<svg width="98" height="111" viewBox="0 0 98 111" fill="none" xmlns="http://www.w3.org/2000/svg">
<path d="M48.5179 93.1457L43.1065 93.1457L34.6049 68.1238L58.248 66.6901L48.5179 93.1457Z" fill="url(#paint0_linear_2207_7165)"/>
<path d="M20.2193 21.6376C20.1919 23.7494 20.1865 65.0954 41.1748 71.8138C62.163 78.5322 71.6495 43.5484 70.8996 18.6332L20.2193 21.6376Z" fill="url(#paint1_linear_2207_7165)"/>
<path d="M62.5935 96.9384L29.0378 96.9346L29.0373 101.008L62.593 101.012L62.5935 96.9384Z" fill="url(#paint2_linear_2207_7165)"/>
<path d="M62.5888 96.9441L29.0328 96.9386L37.526 92.3843L54.0972 92.3873L62.5888 96.9441Z" fill="url(#paint3_linear_2207_7165)"/>
<path d="M18.0071 14.0703C16.1608 14.0727 14.5765 15.3453 14.4829 16.8899L14.2941 20.064C14.2018 21.6164 15.6375 22.8948 17.4819 22.9048L75.0896 23.2292C76.9341 23.2392 78.52 21.9764 78.6126 20.4259L78.8283 16.7981C78.9209 15.2476 77.487 13.979 75.6406 13.9814L18.0071 14.0703Z" fill="url(#paint4_linear_2207_7165)"/>
<path d="M56.0369 75.1015C54.6979 75.1018 53.5409 74.2567 53.3845 73.1049C53.2173 71.872 54.264 70.7577 55.7367 70.6141C56.0155 70.5858 75.3198 68.5514 77.1512 57.9865C77.4612 56.2041 77.4164 53.8788 75.5103 52.9067C73.9289 52.1034 71.3407 52.3583 69.4901 53.4949C68.4377 54.1479 67.2868 55.2784 67.775 57.0051C68.1182 58.2152 67.2312 59.4289 65.7924 59.7093C64.3536 59.9897 62.9156 59.2508 62.5728 58.0426C61.6857 54.9109 63.0894 51.8484 66.3318 49.8532C69.932 47.6361 74.8417 47.3026 78.2673 49.0395C80.2714 50.0561 83.4771 52.6513 82.4406 58.6264C81.4168 64.5333 76.4827 69.2647 68.1734 72.3087C64.348 73.6788 60.3777 74.6044 56.3408 75.0673C56.2402 75.0838 56.1387 75.0952 56.0369 75.1015Z" fill="#91B3FA"/>
<path d="M36.0174 75.0994C37.3583 75.0986 38.5144 74.2523 38.6704 73.1031C38.8374 71.8698 37.7863 70.7533 36.3186 70.6124C36.0407 70.5835 16.7363 68.5435 14.9089 57.9776C14.5993 56.195 14.6335 53.8676 16.5494 52.8971C18.1318 52.0961 20.7205 52.3506 22.57 53.4909C23.6219 54.1384 24.7733 55.2743 24.2831 57.0008C23.9412 58.2096 24.8276 59.4236 26.2626 59.7127C27.6976 60.0018 29.1419 59.2554 29.4857 58.0461C30.3743 54.9162 28.9682 51.8484 25.7282 49.8583C22.1273 47.6405 17.2182 47.3033 13.7917 49.0417C11.7861 50.0556 8.58185 52.6512 9.61621 58.6266C10.6387 64.5333 15.5615 69.2658 23.8802 72.3118C27.704 73.6867 31.6734 74.6167 35.71 75.0834C35.8124 75.0942 35.9153 75.0987 36.0174 75.0994Z" fill="#91B3FA"/>
<path d="M64.7524 19.1876C64.7269 19.1949 64.7006 19.1994 64.6741 19.201L59.5298 19.1728C59.4105 19.1722 59.2964 19.1242 59.2126 19.0394C59.1288 18.9547 59.082 18.8401 59.0827 18.7208C59.0834 18.6016 59.1313 18.4875 59.2161 18.4037C59.3009 18.3199 59.4155 18.2731 59.5347 18.2738L64.6794 18.3039C64.7925 18.3031 64.9017 18.345 64.9851 18.4213C65.0686 18.4976 65.1202 18.6025 65.1296 18.7152C65.139 18.8279 65.1055 18.94 65.0358 19.029C64.9661 19.118 64.8654 19.1775 64.7537 19.1954L64.7524 19.1876Z" fill="#91B3FA"/>
<path d="M50.9899 19.1188C50.965 19.126 50.9394 19.1304 50.9136 19.1319L20.1804 18.9641C20.1214 18.9639 20.063 18.9521 20.0086 18.9294C19.9541 18.9066 19.9047 18.8733 19.8631 18.8315C19.8215 18.7896 19.7886 18.74 19.7662 18.6854C19.7438 18.6308 19.7323 18.5723 19.7325 18.5133C19.7327 18.4543 19.7446 18.3959 19.7673 18.3414C19.7901 18.287 19.8233 18.2376 19.8652 18.196C19.9071 18.1544 19.9567 18.1215 20.0113 18.0991C20.0659 18.0767 20.1244 18.0652 20.1834 18.0654L50.9185 18.2328C51.0318 18.232 51.1412 18.274 51.2247 18.3505C51.3083 18.4269 51.3598 18.5322 51.3689 18.6451C51.3781 18.758 51.3442 18.8702 51.2741 18.9591C51.204 19.0481 51.1028 19.1072 50.9909 19.1246L50.9899 19.1188Z" fill="#91B3FA"/>
<path d="M44.077 67.126C44.0263 67.1379 43.974 67.1412 43.9223 67.1356C38.3612 66.4937 33.9161 61.9658 30.7095 53.676C28.064 46.831 26.8165 38.8223 26.2383 33.3175C26.2321 33.2588 26.2376 33.1995 26.2543 33.143C26.2711 33.0864 26.2988 33.0337 26.3359 32.9879C26.373 32.942 26.4187 32.904 26.4706 32.8758C26.5224 32.8477 26.5792 32.83 26.6379 32.8238C26.6965 32.8176 26.7558 32.8231 26.8124 32.8398C26.8689 32.8565 26.9216 32.8842 26.9675 32.9213C27.0133 32.9584 27.0514 33.0042 27.0795 33.056C27.1077 33.1079 27.1253 33.1647 27.1315 33.2234C28.1282 42.6826 31.7691 64.8388 44.0278 66.2508C44.133 66.2626 44.2307 66.3113 44.3035 66.3881C44.3763 66.465 44.4196 66.5651 44.4257 66.6708C44.4318 66.7765 44.4003 66.8809 44.3368 66.9656C44.2733 67.0504 44.1819 67.1099 44.0788 67.1337L44.077 67.126Z" fill="#91B3FA"/>
<path d="M26.4138 29.3755L26.3423 29.3922C26.2835 29.396 26.2245 29.3882 26.1687 29.3692C26.1129 29.3503 26.0614 29.3205 26.0172 29.2816C25.9729 29.2427 25.9367 29.1954 25.9107 29.1426C25.8847 29.0897 25.8694 29.0322 25.8656 28.9734C25.7754 27.7124 25.761 26.9861 25.7609 26.9596C25.7551 26.8982 25.762 26.8363 25.781 26.7777C25.8001 26.7191 25.831 26.665 25.8718 26.6188C25.9127 26.5726 25.9625 26.5353 26.0183 26.5091C26.0742 26.4829 26.1348 26.4685 26.1964 26.4667C26.258 26.4649 26.3194 26.4758 26.3766 26.4987C26.4339 26.5216 26.4858 26.5559 26.5293 26.5997C26.5727 26.6434 26.6067 26.6956 26.6291 26.7531C26.6516 26.8105 26.662 26.8719 26.6598 26.9335C26.6598 26.9335 26.6817 27.6744 26.762 28.9193C26.7668 29.0241 26.7346 29.1273 26.6709 29.2107C26.6072 29.2942 26.5162 29.3525 26.4138 29.3755Z" fill="white"/>
<path d="M38.3846 80.7168C38.3846 80.7168 42.814 77.3789 43.0354 81.1958C43.2567 85.0127 45.2079 87.3847 42.4552 88.3241C39.7025 89.2634 38.0196 83.4699 38.3846 80.7168Z" fill="#91B3FA"/>
<defs>
<linearGradient id="paint0_linear_2207_7165" x1="49854.6" y1="19270.3" x2="51355.7" y2="23784.3" gradientUnits="userSpaceOnUse">
<stop stop-color="#4042E2"/>
<stop offset="1" stop-color="#4F52FF"/>
</linearGradient>
<linearGradient id="paint1_linear_2207_7165" x1="111142" y1="36775.5" x2="114111" y2="45989.2" gradientUnits="userSpaceOnUse">
<stop stop-color="#4042E2"/>
<stop offset="1" stop-color="#4F52FF"/>
</linearGradient>
<linearGradient id="paint2_linear_2207_7165" x1="63485.5" y1="4544.99" x2="63492.1" y2="5251.8" gradientUnits="userSpaceOnUse">
<stop stop-color="#4042E2"/>
<stop offset="1" stop-color="#4F52FF"/>
</linearGradient>
<linearGradient id="paint3_linear_2207_7165" x1="62720.2" y1="-3179.39" x2="63160.7" y2="-1477.76" gradientUnits="userSpaceOnUse">
<stop stop-color="#4042E2"/>
<stop offset="1" stop-color="#4F52FF"/>
</linearGradient>
<linearGradient id="paint4_linear_2207_7165" x1="247476" y1="-60050.8" x2="248029" y2="-58020" gradientUnits="userSpaceOnUse">
<stop stop-color="#4042E2"/>
<stop offset="1" stop-color="#4F52FF"/>
</linearGradient>
</defs>
</svg>
