<svg width="405" height="404" viewBox="0 0 405 404" fill="none" xmlns="http://www.w3.org/2000/svg">
<path d="M387.418 273.404C346.701 368.575 239.222 409.449 155.01 402.483C132.016 400.58 85.7536 396.751 49.6305 362.592C-19.7355 296.989 -9.05589 159.863 57.3518 79.13C65.9039 68.7341 125.098 -0.922791 217.343 0.0092679C284.881 0.692392 332.285 38.8431 338.048 43.596C345.329 49.5994 361.39 63.8669 375.864 86.5026C409.873 139.686 412.861 213.931 387.418 273.404Z" fill="url(#paint0_linear_2207_6944)"/>
<path d="M388.554 95.7058H159.897V287.31H388.554V95.7058Z" fill="url(#paint1_linear_2207_6944)"/>
<path d="M396.487 70.8472L151.815 72.3857C148.497 72.4074 145.759 74.836 145.759 77.8101V114.315C145.759 117.18 148.342 119.526 151.536 119.539L396.488 121.08C400.121 121.103 403.18 118.64 403.18 115.58V76.3585C403.18 73.2873 400.125 70.8241 396.487 70.8472Z" fill="url(#paint2_linear_2207_6944)"/>
<path d="M396.375 70.8472L151.533 72.3871C148.339 72.4074 145.753 74.7462 145.753 77.6104L402.957 76.3484C402.957 73.2873 400.008 70.8241 396.375 70.8472Z" fill="url(#paint3_linear_2207_6944)"/>
<path d="M151.533 119.539L396.375 121.08C400.008 121.103 402.957 118.64 402.957 115.58L145.753 114.318C145.753 117.179 148.339 119.518 151.533 119.539Z" fill="url(#paint4_linear_2207_6944)"/>
<path d="M396.683 131.721L151.824 131.213C148.4 131.213 145.567 133.683 145.531 136.747L145.062 174.429C145.026 177.392 147.667 179.817 150.972 179.846L396.672 181.994C400.205 182.024 403.185 179.562 403.185 176.494V137.265C403.18 134.21 400.209 131.728 396.683 131.721Z" fill="url(#paint5_linear_2207_6944)"/>
<path d="M396.57 131.721L151.543 131.211C148.246 131.211 145.547 133.59 145.511 136.541L402.963 137.265C402.957 134.21 400.096 131.728 396.57 131.721Z" fill="url(#paint6_linear_2207_6944)"/>
<path d="M150.964 179.846L396.556 181.994C400.09 182.024 402.958 179.562 402.958 176.494L145.049 174.429C145.012 177.391 147.66 179.817 150.964 179.846Z" fill="url(#paint7_linear_2207_6944)"/>
<path d="M396.788 192.727H152.158C148.621 192.727 145.759 195.332 145.759 198.516V237.531C145.759 240.592 148.508 242.944 151.921 242.944H396.788C400.195 242.944 403.18 240.592 403.18 237.531V198.302C403.18 195.239 400.195 192.727 396.788 192.727Z" fill="url(#paint8_linear_2207_6944)"/>
<path d="M396.788 192.727H151.921C148.514 192.727 145.753 195.164 145.753 198.09H402.957C402.957 195.164 400.194 192.727 396.788 192.727Z" fill="url(#paint9_linear_2207_6944)"/>
<path d="M151.921 242.944H396.788C400.194 242.944 402.957 240.506 402.957 237.581H145.753C145.753 240.512 148.514 242.944 151.921 242.944Z" fill="url(#paint10_linear_2207_6944)"/>
<path d="M397.047 254.722L152.28 253.764C148.678 253.749 145.759 256.317 145.759 259.496V298.514C145.759 301.574 148.568 304.056 152.035 304.056L396.918 304.15C400.266 304.15 402.984 301.717 402.997 298.712L403.105 260.191C403.105 257.184 400.397 254.735 397.047 254.722Z" fill="url(#paint11_linear_2207_6944)"/>
<path d="M397.047 254.722L152.035 253.762C148.562 253.749 145.753 256.223 145.753 259.284L403.096 260.191C403.105 257.184 400.397 254.735 397.047 254.722Z" fill="url(#paint12_linear_2207_6944)"/>
<path d="M152.033 304.056L396.915 304.15C400.263 304.15 402.982 301.717 402.994 298.712L145.759 298.514C145.753 301.573 148.565 304.056 152.033 304.056Z" fill="url(#paint13_linear_2207_6944)"/>
<g opacity="0.3">
<path opacity="0.3" d="M271.665 75.9025C271.263 75.8324 270.901 75.6162 270.65 75.2956C270.398 74.975 270.273 74.5726 270.3 74.1658C270.424 72.3031 270.631 70.4202 270.915 68.5662C270.948 68.3518 271.022 68.1459 271.135 67.9604C271.247 67.7748 271.394 67.6132 271.569 67.4847C271.744 67.3562 271.942 67.2634 272.153 67.2116C272.363 67.1597 272.582 67.1499 272.796 67.1826H272.827C273.254 67.2561 273.635 67.4945 273.888 67.8465C274.141 68.1985 274.245 68.6358 274.179 69.0641C273.908 70.8254 273.711 72.6157 273.592 74.3843C273.563 74.8215 273.361 75.2291 273.032 75.5175C272.702 75.806 272.271 75.9518 271.834 75.9228C271.779 75.9185 271.721 75.9112 271.665 75.9025ZM274.221 61.7393C274.156 61.7278 274.092 61.7128 274.03 61.6944C273.61 61.5691 273.257 61.2823 273.048 60.897C272.839 60.5117 272.792 60.0594 272.917 59.6393C273.451 57.8432 274.074 56.0514 274.749 54.3161C274.909 53.9083 275.224 53.5807 275.626 53.4053C276.027 53.23 276.482 53.2213 276.889 53.3812C277.297 53.541 277.625 53.8564 277.8 54.2578C277.976 54.6592 277.984 55.1139 277.824 55.5217C277.176 57.1731 276.591 58.8737 276.088 60.5873C275.971 60.9742 275.717 61.305 275.373 61.5173C275.029 61.7295 274.619 61.8085 274.221 61.7393ZM279.832 48.4907C279.571 48.4456 279.325 48.3384 279.114 48.1783C278.903 48.0182 278.734 47.8099 278.621 47.5707C278.507 47.3316 278.453 47.0687 278.462 46.8042C278.471 46.5396 278.544 46.2812 278.674 46.0506C279.592 44.4224 280.593 42.8116 281.648 41.2745C281.767 41.0884 281.923 40.9281 282.105 40.8031C282.288 40.6781 282.493 40.591 282.71 40.5469C282.927 40.5028 283.15 40.5027 283.367 40.5465C283.584 40.5903 283.789 40.6771 283.972 40.8019C284.155 40.9267 284.31 41.0868 284.43 41.2728C284.549 41.4588 284.63 41.6669 284.668 41.8848C284.706 42.1027 284.699 42.3259 284.649 42.5413C284.599 42.7567 284.506 42.9598 284.376 43.1387C283.373 44.6048 282.424 46.1331 281.551 47.6803C281.383 47.9759 281.127 48.2124 280.82 48.3574C280.512 48.5025 280.167 48.549 279.832 48.4907ZM288.267 36.827C287.957 36.774 287.669 36.6328 287.437 36.4203C287.277 36.2743 287.147 36.098 287.055 35.9017C286.963 35.7055 286.91 35.4929 286.9 35.2763C286.89 35.0596 286.922 34.8431 286.996 34.6391C287.07 34.4351 287.183 34.2476 287.329 34.0873C288.589 32.7036 289.925 31.3591 291.299 30.0884C291.458 29.9411 291.645 29.8266 291.848 29.7515C292.052 29.6763 292.268 29.642 292.485 29.6505C292.702 29.659 292.915 29.71 293.112 29.8008C293.309 29.8916 293.486 30.0203 293.633 30.1796C293.78 30.3388 293.895 30.5256 293.97 30.7291C294.045 30.9326 294.08 31.1489 294.071 31.3657C294.063 31.5825 294.012 31.7955 293.921 31.9925C293.83 32.1895 293.701 32.3667 293.542 32.514C292.239 33.7196 290.969 34.9976 289.772 36.3132C289.585 36.5187 289.348 36.6736 289.085 36.7634C288.822 36.8533 288.54 36.8751 288.267 36.827ZM299.091 27.3385C298.769 27.2823 298.47 27.1316 298.233 26.9056C297.997 26.6795 297.833 26.3883 297.762 26.0688C297.691 25.7494 297.716 25.416 297.835 25.111C297.953 24.806 298.16 24.5431 298.428 24.3556C299.961 23.289 301.56 22.273 303.182 21.3366C303.37 21.2282 303.578 21.1578 303.793 21.1295C304.008 21.1012 304.226 21.1156 304.436 21.1718C304.645 21.2279 304.842 21.3248 305.014 21.4569C305.186 21.589 305.33 21.7537 305.439 21.9416C305.547 22.1294 305.618 22.3368 305.646 22.5519C305.674 22.767 305.66 22.9855 305.604 23.195C305.547 23.4045 305.451 23.6009 305.318 23.773C305.186 23.9451 305.022 24.0895 304.834 24.1979C303.292 25.0865 301.771 26.0533 300.315 27.0664C299.959 27.3154 299.519 27.4132 299.091 27.3385ZM311.743 20.4812C311.389 20.4201 311.065 20.2454 310.82 19.9836C310.574 19.7218 310.42 19.3872 310.382 19.0302C310.343 18.6733 310.422 18.3136 310.606 18.0053C310.79 17.6971 311.069 17.4571 311.402 17.3218C313.138 16.6184 314.92 15.9816 316.706 15.4287C316.915 15.3574 317.137 15.3287 317.357 15.3444C317.577 15.3601 317.793 15.4198 317.99 15.5201C318.187 15.6204 318.361 15.7592 318.504 15.9282C318.646 16.0973 318.753 16.2932 318.819 16.5043C318.884 16.7155 318.906 16.9376 318.884 17.1575C318.862 17.3775 318.796 17.5908 318.69 17.7848C318.585 17.9788 318.441 18.1496 318.268 18.2871C318.095 18.4246 317.896 18.526 317.683 18.5853C315.985 19.1106 314.29 19.7156 312.643 20.3828C312.359 20.4999 312.047 20.5341 311.743 20.4812ZM372.064 26.9174C371.832 26.8768 371.611 26.787 371.417 26.6539C369.949 25.6553 368.419 24.7073 366.868 23.8361C366.679 23.7299 366.512 23.5876 366.378 23.4171C366.244 23.2467 366.145 23.0515 366.086 22.8427C366.028 22.6339 366.011 22.4156 366.036 22.2003C366.062 21.985 366.13 21.7768 366.236 21.5877C366.342 21.3986 366.485 21.2322 366.655 21.0981C366.825 20.964 367.021 20.8648 367.229 20.8062C367.438 20.7475 367.657 20.7305 367.872 20.7562C368.087 20.7819 368.295 20.8498 368.484 20.9559C370.118 21.8735 371.731 22.8707 373.276 23.9229C373.588 24.1355 373.818 24.4486 373.928 24.81C374.037 25.1713 374.019 25.5593 373.878 25.9093C373.736 26.2593 373.479 26.5502 373.149 26.7336C372.819 26.917 372.436 26.9818 372.064 26.9174ZM325.589 16.5996C325.205 16.5324 324.856 16.3312 324.606 16.0315C324.355 15.7318 324.219 15.3532 324.221 14.9626C324.223 14.572 324.363 14.1948 324.617 13.8978C324.871 13.6009 325.221 13.4033 325.607 13.3403C327.452 13.0407 329.334 12.8178 331.199 12.6774C331.418 12.6559 331.64 12.6785 331.85 12.7437C332.06 12.8089 332.255 12.9155 332.424 13.0572C332.593 13.199 332.731 13.3729 332.831 13.5689C332.932 13.7649 332.992 13.979 333.008 14.1986C333.025 14.4182 332.997 14.6388 332.927 14.8476C332.857 15.0564 332.746 15.2491 332.601 15.4144C332.455 15.5797 332.278 15.7143 332.08 15.8102C331.882 15.9061 331.667 15.9614 331.447 15.9729C329.675 16.1061 327.889 16.3174 326.137 16.601C325.955 16.631 325.77 16.6305 325.589 16.5996ZM359.329 20.2178C359.219 20.1989 359.112 20.1688 359.009 20.1281C357.355 19.4826 355.65 18.9008 353.943 18.3913C353.73 18.3342 353.531 18.2351 353.357 18.0997C353.183 17.9644 353.038 17.7956 352.93 17.6032C352.822 17.4109 352.754 17.1989 352.729 16.9798C352.704 16.7606 352.724 16.5388 352.786 16.3273C352.849 16.1158 352.953 15.9189 353.092 15.7482C353.232 15.5775 353.404 15.4366 353.599 15.3335C353.794 15.2305 354.008 15.1676 354.228 15.1484C354.447 15.1292 354.669 15.1541 354.878 15.2218C356.675 15.7529 358.468 16.3651 360.209 17.0439C360.589 17.1933 360.901 17.4785 361.084 17.8444C361.266 18.2102 361.307 18.6308 361.197 19.0248C361.088 19.4188 360.836 19.7582 360.491 19.9775C360.146 20.1968 359.732 20.2803 359.329 20.212V20.2178ZM339.958 15.915C339.543 15.8406 339.173 15.6104 338.922 15.2716C338.671 14.9328 338.559 14.511 338.609 14.0925C338.659 13.6739 338.867 13.2902 339.19 13.0199C339.514 12.7496 339.928 12.6131 340.349 12.6383C342.213 12.7599 344.097 12.9625 345.949 13.2433H345.983C346.197 13.2781 346.403 13.3547 346.587 13.4688C346.772 13.5828 346.932 13.7321 347.059 13.9081C347.185 14.0841 347.276 14.2833 347.326 14.4945C347.376 14.7056 347.384 14.9244 347.349 15.1385C347.314 15.3526 347.237 15.5578 347.123 15.7423C347.009 15.9268 346.86 16.087 346.684 16.2138C346.508 16.3406 346.309 16.4315 346.098 16.4813C345.887 16.5311 345.668 16.5388 345.454 16.5041C343.695 16.2378 341.905 16.0453 340.135 15.9251C340.077 15.9266 340.018 15.9194 339.96 15.9092L339.958 15.915Z" fill="#91B3FA"/>
<path opacity="0.3" d="M381.021 34.2857C380.693 34.228 380.39 34.0721 380.153 33.8385C379.548 33.2407 378.918 32.6444 378.284 32.0684C378.124 31.9224 377.994 31.7463 377.901 31.55C377.809 31.3537 377.756 31.1412 377.746 30.9245C377.735 30.7078 377.768 30.4911 377.841 30.287C377.915 30.0828 378.028 29.8952 378.174 29.7346C378.32 29.5741 378.496 29.444 378.692 29.3515C378.888 29.2591 379.101 29.2062 379.317 29.1959C379.534 29.1857 379.751 29.2182 379.955 29.2916C380.159 29.365 380.347 29.478 380.507 29.6239C381.175 30.2303 381.836 30.857 382.474 31.4866C382.726 31.7338 382.891 32.0551 382.947 32.4033C383.003 32.7515 382.946 33.1084 382.784 33.4218C382.622 33.7351 382.364 33.9885 382.048 34.1447C381.732 34.301 381.374 34.3519 381.027 34.29L381.021 34.2857Z" fill="#91B3FA"/>
</g>
<g opacity="0.3">
<path opacity="0.3" d="M400.209 80.8553C399.822 80.7879 399.472 80.5851 399.221 80.283C398.97 79.9809 398.835 79.5994 398.84 79.2068C398.85 78.3558 398.84 77.4889 398.818 76.6335C398.805 76.1956 398.967 75.7705 399.268 75.4519C399.569 75.1332 399.984 74.9471 400.422 74.9344C400.86 74.9217 401.285 75.0836 401.603 75.3843C401.922 75.685 402.108 76.1 402.121 76.538C402.147 77.4397 402.154 78.3515 402.144 79.2473C402.141 79.4644 402.096 79.6788 402.011 79.8783C401.925 80.0778 401.801 80.2586 401.646 80.4102C401.49 80.5618 401.307 80.6813 401.105 80.7619C400.903 80.8425 400.688 80.8826 400.471 80.8799C400.383 80.8784 400.296 80.8701 400.209 80.8553Z" fill="#91B3FA"/>
<path opacity="0.3" d="M324.974 143.523C324.225 143.395 323.476 143.252 322.725 143.096C322.3 143.003 321.93 142.745 321.693 142.38C321.457 142.015 321.374 141.571 321.463 141.146C321.551 140.72 321.804 140.346 322.166 140.105C322.529 139.865 322.971 139.776 323.398 139.86C325.135 140.219 326.872 140.508 328.595 140.72C329.03 140.773 329.426 140.997 329.696 141.342C329.966 141.687 330.087 142.126 330.034 142.561C329.981 142.996 329.757 143.391 329.411 143.661C329.066 143.931 328.628 144.053 328.193 143.999C327.126 143.869 326.044 143.708 324.974 143.523ZM314.328 140.741C314.235 140.726 314.144 140.702 314.056 140.67C312.319 140.055 310.582 139.359 308.912 138.602C308.714 138.513 308.536 138.386 308.388 138.227C308.239 138.069 308.124 137.883 308.047 137.68C307.892 137.271 307.907 136.816 308.087 136.417C308.268 136.018 308.599 135.706 309.009 135.552C309.419 135.397 309.873 135.412 310.273 135.592C311.865 136.316 313.507 136.971 315.159 137.557C315.548 137.696 315.872 137.975 316.066 138.34C316.259 138.706 316.309 139.13 316.205 139.531C316.1 139.931 315.849 140.277 315.502 140.501C315.154 140.726 314.735 140.811 314.328 140.741ZM336.878 144.458C336.471 144.389 336.105 144.171 335.851 143.845C335.597 143.52 335.475 143.111 335.507 142.7C335.54 142.288 335.725 141.904 336.027 141.622C336.328 141.341 336.725 141.182 337.137 141.178C338.883 141.152 340.65 141.051 342.392 140.877C342.611 140.85 342.834 140.866 343.046 140.926C343.259 140.986 343.457 141.087 343.63 141.225C343.802 141.363 343.945 141.533 344.051 141.727C344.156 141.921 344.222 142.134 344.244 142.354C344.266 142.573 344.243 142.795 344.178 143.006C344.113 143.217 344.006 143.412 343.864 143.581C343.722 143.75 343.547 143.889 343.351 143.989C343.154 144.09 342.94 144.15 342.72 144.166C340.886 144.348 339.023 144.455 337.186 144.483C337.083 144.484 336.98 144.476 336.878 144.458ZM301.577 134.57C301.365 134.533 301.162 134.454 300.979 134.34C299.421 133.359 297.885 132.298 296.416 131.189C296.243 131.059 296.097 130.895 295.987 130.708C295.877 130.521 295.805 130.314 295.775 130.099C295.745 129.885 295.758 129.666 295.812 129.456C295.867 129.246 295.962 129.049 296.093 128.876C296.223 128.703 296.387 128.557 296.574 128.447C296.761 128.337 296.968 128.265 297.182 128.235C297.397 128.205 297.616 128.217 297.826 128.272C298.036 128.326 298.233 128.422 298.406 128.552C299.801 129.606 301.259 130.612 302.739 131.544C303.062 131.748 303.303 132.057 303.424 132.42C303.544 132.782 303.535 133.174 303.399 133.531C303.262 133.887 303.007 134.185 302.676 134.375C302.344 134.564 301.958 134.633 301.582 134.57H301.577ZM350.916 142.675C350.541 142.61 350.201 142.418 349.952 142.131C349.702 141.844 349.559 141.48 349.547 141.101C349.535 140.721 349.653 140.348 349.883 140.046C350.113 139.744 350.441 139.53 350.81 139.44C352.505 139.032 354.207 138.544 355.875 137.993C356.081 137.925 356.299 137.897 356.515 137.913C356.731 137.928 356.942 137.986 357.136 138.084C357.33 138.181 357.503 138.315 357.645 138.479C357.787 138.643 357.895 138.834 357.964 139.039C358.032 139.245 358.059 139.462 358.044 139.679C358.028 139.895 357.97 140.106 357.873 140.3C357.776 140.494 357.642 140.667 357.478 140.809C357.314 140.951 357.123 141.059 356.917 141.128C355.168 141.707 353.376 142.223 351.59 142.653C351.37 142.707 351.14 142.714 350.917 142.675H350.916ZM364.231 137.86C363.887 137.8 363.571 137.633 363.328 137.383C363.085 137.133 362.928 136.813 362.878 136.467C362.828 136.122 362.889 135.77 363.051 135.462C363.214 135.153 363.469 134.904 363.782 134.75C365.352 133.977 366.908 133.13 368.413 132.231C368.789 132.006 369.239 131.939 369.664 132.045C370.089 132.151 370.454 132.422 370.68 132.797C370.905 133.173 370.972 133.623 370.866 134.048C370.76 134.473 370.489 134.838 370.114 135.064C368.536 136.01 366.899 136.902 365.248 137.714C364.934 137.872 364.578 137.925 364.232 137.866L364.231 137.86ZM376.177 130.257C375.863 130.203 375.572 130.06 375.338 129.844C375.104 129.628 374.938 129.35 374.858 129.042C374.779 128.734 374.79 128.409 374.891 128.108C374.992 127.806 375.177 127.54 375.426 127.341C376.79 126.244 378.125 125.079 379.391 123.876C379.548 123.724 379.733 123.604 379.936 123.524C380.139 123.444 380.356 123.405 380.575 123.409C380.793 123.414 381.008 123.461 381.208 123.55C381.408 123.638 381.588 123.765 381.739 123.923C381.889 124.081 382.007 124.268 382.085 124.472C382.162 124.676 382.199 124.893 382.192 125.112C382.186 125.33 382.136 125.545 382.045 125.743C381.955 125.942 381.826 126.121 381.666 126.27C380.335 127.536 378.931 128.764 377.494 129.917C377.311 130.066 377.099 130.174 376.871 130.233C376.644 130.293 376.406 130.303 376.174 130.263L376.177 130.257ZM386.18 120.23C385.897 120.182 385.632 120.06 385.41 119.878C385.188 119.695 385.018 119.458 384.916 119.19C384.813 118.922 384.783 118.631 384.827 118.347C384.871 118.064 384.988 117.796 385.167 117.572C386.26 116.204 387.306 114.775 388.276 113.322C388.397 113.142 388.551 112.987 388.732 112.866C388.912 112.745 389.115 112.661 389.328 112.619C389.54 112.576 389.76 112.576 389.973 112.619C390.185 112.661 390.388 112.745 390.569 112.865C390.749 112.986 390.904 113.14 391.025 113.321C391.146 113.501 391.23 113.704 391.272 113.917C391.314 114.129 391.315 114.349 391.272 114.562C391.23 114.774 391.146 114.977 391.026 115.158C390.004 116.689 388.903 118.197 387.752 119.634C387.569 119.868 387.326 120.048 387.049 120.155C386.771 120.262 386.47 120.292 386.177 120.242L386.18 120.23ZM393.741 108.248C393.489 108.204 393.25 108.103 393.044 107.951C392.838 107.8 392.669 107.602 392.553 107.374C392.436 107.146 392.373 106.895 392.37 106.639C392.367 106.383 392.424 106.13 392.535 105.899C393.297 104.327 394.002 102.704 394.63 101.071C394.707 100.868 394.824 100.683 394.974 100.526C395.123 100.369 395.302 100.242 395.5 100.154C395.699 100.066 395.912 100.018 396.129 100.012C396.346 100.007 396.562 100.044 396.764 100.122C396.967 100.199 397.152 100.316 397.309 100.466C397.467 100.615 397.593 100.794 397.681 100.992C397.769 101.191 397.818 101.404 397.823 101.621C397.829 101.838 397.792 102.054 397.714 102.256C397.052 103.976 396.31 105.686 395.508 107.341C395.352 107.664 395.095 107.929 394.776 108.094C394.457 108.258 394.092 108.315 393.738 108.254L393.741 108.248ZM398.481 94.907C398.447 94.9012 398.414 94.8939 398.381 94.8853C398.17 94.8354 397.971 94.7444 397.795 94.6175C397.619 94.4907 397.47 94.3304 397.356 94.1459C397.242 93.9614 397.165 93.7562 397.131 93.5421C397.096 93.328 397.104 93.1092 397.154 92.8981C397.443 91.6447 397.711 90.3682 397.93 89.1004C398.009 88.6431 398.083 88.1843 398.152 87.7269C398.185 87.5121 398.259 87.3058 398.371 87.1198C398.483 86.9337 398.63 86.7716 398.805 86.6426C398.98 86.5137 399.178 86.4205 399.389 86.3684C399.6 86.3163 399.819 86.3063 400.034 86.339C400.25 86.3687 400.457 86.4414 400.645 86.5527C400.832 86.664 400.995 86.8117 401.125 86.9871C401.254 87.1624 401.347 87.3619 401.398 87.5737C401.449 87.7855 401.457 88.0054 401.422 88.2205C401.349 88.7029 401.272 89.1853 401.189 89.6677C400.959 91.0007 400.684 92.3438 400.371 93.6623C400.275 94.0734 400.026 94.4322 399.674 94.665C399.322 94.8978 398.894 94.987 398.478 94.9142L398.481 94.907Z" fill="#91B3FA"/>
<path opacity="0.3" d="M290.471 125.713C290.137 125.655 289.828 125.495 289.588 125.255C288.954 124.624 288.322 123.967 287.707 123.303C287.409 122.981 287.252 122.554 287.269 122.117C287.287 121.679 287.477 121.266 287.799 120.969C288.121 120.671 288.548 120.514 288.986 120.531C289.423 120.549 289.836 120.739 290.134 121.061C290.713 121.692 291.316 122.316 291.917 122.915C292.166 123.163 292.329 123.483 292.383 123.83C292.438 124.177 292.38 124.533 292.219 124.844C292.057 125.156 291.801 125.409 291.486 125.565C291.172 125.721 290.815 125.773 290.469 125.713H290.471Z" fill="#91B3FA"/>
</g>
<path d="M295.932 107.216C296.01 107.356 296.131 107.469 296.277 107.537C296.422 107.605 296.585 107.626 296.744 107.597L305.987 105.904C308.998 109.181 312.522 111.946 316.422 114.09L316.985 123.464C316.995 123.624 317.054 123.778 317.155 123.903C317.256 124.028 317.394 124.118 317.548 124.161L328.403 127.192C328.558 127.235 328.722 127.228 328.873 127.174C329.024 127.119 329.154 127.019 329.245 126.887L334.58 119.158C339.028 119.345 343.477 118.804 347.751 117.557L354.782 123.794C354.902 123.9 355.052 123.967 355.212 123.984C355.372 124 355.533 123.967 355.673 123.888L365.493 118.353C365.633 118.274 365.745 118.154 365.813 118.008C365.881 117.863 365.902 117.699 365.874 117.541L364.18 108.297C367.457 105.287 370.222 101.762 372.365 97.8625L381.74 97.2995C381.901 97.2902 382.054 97.2309 382.179 97.13C382.305 97.029 382.395 96.8914 382.438 96.7365L385.467 85.8817C385.511 85.7268 385.504 85.5622 385.45 85.4109C385.395 85.2596 385.294 85.1292 385.162 85.038L377.433 79.7032C377.622 75.2558 377.084 70.8073 375.841 66.5328L382.076 59.5019C382.183 59.3818 382.25 59.2313 382.267 59.0714C382.284 58.9116 382.251 58.7504 382.172 58.6103L376.636 48.7904C376.557 48.6506 376.437 48.5387 376.291 48.4705C376.146 48.4023 375.983 48.381 375.825 48.4098L366.581 50.1046C363.571 46.8266 360.047 44.0617 356.146 41.9187L355.575 32.5359C355.565 32.3755 355.506 32.2221 355.405 32.0971C355.304 31.9721 355.166 31.8816 355.012 31.8383L344.157 28.8091C344.002 28.7657 343.838 28.7719 343.687 28.8266C343.536 28.8814 343.406 28.982 343.315 29.1144L337.978 36.843C333.531 36.6566 329.082 37.1968 324.808 38.4423L317.774 32.2117C317.654 32.1052 317.503 32.0388 317.344 32.0217C317.184 32.0046 317.023 32.0376 316.883 32.1161L307.064 37.652C306.924 37.731 306.812 37.8516 306.744 37.9972C306.676 38.1427 306.655 38.3059 306.684 38.464L308.377 47.7064C305.099 50.7168 302.334 54.2414 300.191 58.1414L290.817 58.7044C290.656 58.7141 290.503 58.7735 290.378 58.8744C290.253 58.9753 290.163 59.1127 290.119 59.2674L287.09 70.1221C287.047 70.2767 287.053 70.4409 287.107 70.5919C287.162 70.7429 287.262 70.8731 287.394 70.9645L295.124 76.3006C294.935 80.7481 295.473 85.1967 296.716 89.471L290.493 96.5063C290.386 96.6265 290.319 96.777 290.302 96.9368C290.285 97.0966 290.318 97.2579 290.397 97.3979L295.932 107.216Z" fill="#91B3FA"/>
<path d="M334.343 89.1642C331.451 88.6647 328.865 87.0631 327.129 84.6963C325.394 82.3295 324.643 79.3818 325.036 76.4733C325.429 73.5647 326.935 70.9219 329.236 69.1005C331.538 67.2792 334.456 66.4213 337.377 66.7073C340.298 66.9933 342.994 68.4008 344.899 70.6339C346.804 72.867 347.768 75.7517 347.59 78.6813C347.411 81.6108 346.103 84.357 343.942 86.3423C341.78 88.3275 338.933 89.3972 335.998 89.3263C335.443 89.3122 334.89 89.258 334.343 89.1642ZM337.779 69.4419C337.355 69.3692 336.926 69.3271 336.496 69.316C334.257 69.2636 332.085 70.0812 330.437 71.597C328.788 73.1127 327.791 75.2085 327.655 77.444C327.519 79.6795 328.256 81.8805 329.709 83.5846C331.162 85.2886 333.219 86.363 335.448 86.5818C337.677 86.8007 339.904 86.147 341.661 84.7582C343.418 83.3694 344.568 81.3536 344.87 79.1344C345.172 76.9152 344.601 74.6655 343.279 72.858C341.957 71.0505 339.985 69.826 337.779 69.4419Z" fill="#BDD0FB"/>
<path d="M331.782 105.335C330.841 105.172 329.909 104.962 328.989 104.705C328.7 104.624 328.41 104.537 328.121 104.447C326.7 104.001 325.316 103.443 323.983 102.777L323.929 102.75L323.776 102.672L323.478 102.517C323.355 102.452 323.255 102.35 323.193 102.224C323.132 102.099 323.111 101.958 323.135 101.821C323.147 101.752 323.169 101.686 323.201 101.624C323.242 101.547 323.297 101.479 323.364 101.424C323.43 101.368 323.507 101.327 323.59 101.301C323.673 101.275 323.76 101.266 323.846 101.274C323.932 101.282 324.016 101.307 324.093 101.347C327.803 103.299 331.923 104.344 336.114 104.399C340.306 104.453 344.451 103.514 348.211 101.66C351.97 99.8055 355.237 97.0876 357.745 93.7284C360.253 90.3693 361.931 86.4643 362.64 82.3328C363.744 75.8602 362.41 69.2081 358.895 63.6617C355.381 58.1154 349.935 54.0685 343.611 52.3029C329.51 48.3691 314.849 56.6375 310.917 70.7313C310.675 71.5978 310.477 72.476 310.323 73.3625C309.661 77.1919 309.85 81.1201 310.876 84.8685C310.903 84.9533 310.912 85.0426 310.904 85.1311C310.895 85.2197 310.868 85.3055 310.826 85.3835C310.783 85.4616 310.725 85.5303 310.655 85.5854C310.586 85.6406 310.506 85.6811 310.42 85.7045C310.334 85.728 310.244 85.7339 310.156 85.722C310.068 85.71 309.983 85.6804 309.907 85.6349C309.83 85.5894 309.764 85.529 309.712 85.4572C309.659 85.3855 309.621 85.3038 309.601 85.2173C308.275 80.3573 308.29 75.2291 309.643 70.3767C313.772 55.5781 329.174 46.9015 343.967 51.0292C350.606 52.8841 356.321 57.1331 360.01 62.9557C363.699 68.7782 365.099 75.7611 363.94 82.5557C363.777 83.4982 363.566 84.432 363.309 85.3533C361.455 91.9929 357.205 97.7095 351.381 101.398C345.558 105.087 338.573 106.487 331.778 105.326L331.782 105.335Z" fill="#BDD0FB"/>
<g opacity="0.3">
<path opacity="0.3" d="M208.697 109.198C208.479 109.161 208.279 109.054 208.128 108.894C207.976 108.733 207.881 108.527 207.858 108.308C207.759 107.448 207.684 106.571 207.638 105.702C207.623 105.432 207.716 105.167 207.897 104.966C208.077 104.764 208.331 104.643 208.601 104.628C208.871 104.613 209.136 104.706 209.338 104.887C209.539 105.068 209.661 105.321 209.676 105.591C209.72 106.416 209.79 107.251 209.885 108.072C209.905 108.23 209.887 108.39 209.833 108.54C209.78 108.689 209.691 108.824 209.575 108.934C209.46 109.043 209.32 109.123 209.167 109.168C209.015 109.214 208.854 109.222 208.697 109.193V109.198Z" fill="#91B3FA"/>
<path opacity="0.3" d="M208.521 101.35C208.272 101.309 208.047 101.175 207.891 100.976C207.735 100.777 207.659 100.527 207.678 100.275C207.782 98.7811 207.962 97.2932 208.217 95.8174C208.27 95.5091 208.328 95.1994 208.388 94.8897C208.447 94.6283 208.604 94.3995 208.827 94.2495C209.049 94.0996 209.32 94.0397 209.585 94.0821C209.85 94.1336 210.084 94.2885 210.236 94.5126C210.387 94.7368 210.444 95.012 210.392 95.2776C210.334 95.5748 210.28 95.871 210.229 96.1662C209.985 97.573 209.813 98.9913 209.713 100.415C209.704 100.549 209.669 100.68 209.609 100.8C209.549 100.92 209.467 101.027 209.366 101.115C209.264 101.203 209.147 101.27 209.02 101.313C208.893 101.356 208.759 101.373 208.625 101.363L208.521 101.35ZM210.547 90.9516C210.498 90.943 210.45 90.9314 210.402 90.9169C210.145 90.833 209.931 90.6505 209.808 90.4092C209.685 90.168 209.663 89.8878 209.747 89.6302C210.307 87.907 210.972 86.2197 211.738 84.5777C211.853 84.3324 212.061 84.143 212.316 84.0509C212.571 83.9589 212.852 83.9719 213.097 84.0871C213.342 84.2022 213.532 84.4101 213.624 84.665C213.716 84.9198 213.703 85.2008 213.588 85.4461C212.856 87.0122 212.222 88.6217 211.687 90.2656C211.611 90.4975 211.454 90.6943 211.244 90.8201C211.035 90.946 210.788 90.9927 210.547 90.9516ZM215.034 81.3546C214.903 81.33 214.777 81.2809 214.665 81.2099C214.436 81.0652 214.274 80.8357 214.214 80.5718C214.154 80.3079 214.201 80.031 214.345 79.8016C215.311 78.2679 216.371 76.7951 217.519 75.3917C217.603 75.288 217.708 75.2019 217.826 75.1385C217.944 75.075 218.073 75.0355 218.206 75.022C218.34 75.0086 218.474 75.0215 218.603 75.0601C218.731 75.0987 218.851 75.1622 218.954 75.247C219.058 75.3318 219.144 75.4361 219.208 75.5542C219.271 75.6722 219.311 75.8016 219.324 75.9349C219.337 76.0682 219.325 76.2029 219.286 76.3312C219.247 76.4595 219.184 76.579 219.099 76.6827C218.004 78.0213 216.994 79.4264 216.073 80.89C215.965 81.0619 215.808 81.1978 215.623 81.2806C215.438 81.3633 215.232 81.3891 215.032 81.3546H215.034ZM221.743 73.1528C221.557 73.122 221.383 73.0397 221.241 72.9154C221.099 72.791 220.995 72.6294 220.939 72.4488C220.884 72.2682 220.881 72.0758 220.929 71.8933C220.978 71.7108 221.076 71.5455 221.214 71.416C222.526 70.166 223.914 68.9978 225.37 67.9179C225.478 67.8382 225.6 67.7804 225.73 67.748C225.86 67.7155 225.995 67.709 226.128 67.7287C226.26 67.7485 226.388 67.7941 226.502 67.8631C226.617 67.9321 226.717 68.023 226.797 68.1306C226.877 68.2383 226.935 68.3606 226.967 68.4906C227 68.6206 227.006 68.7557 226.986 68.8882C226.967 69.0207 226.921 69.1481 226.852 69.2629C226.783 69.3778 226.692 69.4779 226.584 69.5577C225.197 70.5852 223.873 71.6968 222.622 72.8865C222.506 72.9971 222.367 73.0789 222.214 73.1252C222.061 73.1715 221.899 73.1809 221.742 73.1528H221.743ZM230.25 66.8368C230.04 66.805 229.846 66.708 229.694 66.5594C229.542 66.4109 229.44 66.2183 229.404 66.009C229.367 65.7997 229.398 65.5842 229.49 65.3931C229.583 65.2019 229.734 65.0447 229.92 64.9437C231.496 64.051 233.125 63.255 234.798 62.56C234.921 62.5086 235.054 62.482 235.188 62.4818C235.321 62.4816 235.454 62.5077 235.578 62.5587C235.701 62.6097 235.814 62.6846 235.909 62.779C236.003 62.8735 236.079 62.9857 236.13 63.1093C236.182 63.2328 236.208 63.3653 236.208 63.4991C236.209 63.6329 236.182 63.7654 236.131 63.8891C236.08 64.0128 236.006 64.1253 235.911 64.2201C235.817 64.3148 235.704 64.3901 235.581 64.4415C233.984 65.1044 232.43 65.8642 230.926 66.7166C230.722 66.8341 230.483 66.8766 230.25 66.8368ZM240.031 62.7843C239.797 62.752 239.582 62.6391 239.423 62.465C239.263 62.2909 239.17 62.0666 239.158 61.8308C239.146 61.595 239.217 61.3626 239.359 61.1736C239.5 60.9846 239.703 60.851 239.933 60.7958C241.678 60.3124 243.452 59.9378 245.244 59.6741C245.378 59.6551 245.513 59.6625 245.643 59.6958C245.773 59.7292 245.896 59.7879 246.003 59.8685C246.111 59.9491 246.201 60.0502 246.27 60.1658C246.338 60.2814 246.383 60.4094 246.402 60.5425C246.421 60.6755 246.414 60.811 246.381 60.9412C246.347 61.0714 246.289 61.1937 246.208 61.3012C246.127 61.4088 246.026 61.4993 245.911 61.5678C245.795 61.6363 245.667 61.6813 245.534 61.7003C243.825 61.9517 242.133 62.3089 240.468 62.7699C240.325 62.8065 240.176 62.8114 240.031 62.7843ZM250.505 61.243C250.237 61.2228 249.987 61.0968 249.811 60.8925C249.636 60.6883 249.548 60.4226 249.568 60.1539C249.588 59.8852 249.714 59.6355 249.919 59.4598C250.123 59.284 250.389 59.1966 250.657 59.2167C252.469 59.1774 254.282 59.2494 256.085 59.4324C256.341 59.4748 256.571 59.6132 256.729 59.8195C256.887 60.0258 256.96 60.2844 256.933 60.5428C256.907 60.8011 256.783 61.0396 256.587 61.2098C256.391 61.3799 256.137 61.4689 255.878 61.4586C254.158 61.2835 252.43 61.2144 250.702 61.2516C250.636 61.2549 250.57 61.2515 250.505 61.2415V61.243ZM266.136 63.8134C266.076 63.8041 266.018 63.7885 265.961 63.767C264.548 63.2565 263.108 62.8217 261.648 62.4645C261.427 62.4095 261.214 62.3574 260.99 62.3082C260.726 62.2478 260.497 62.0853 260.353 61.8563C260.209 61.6273 260.161 61.3505 260.221 61.0867C260.25 60.9555 260.304 60.8314 260.381 60.7215C260.458 60.6116 260.557 60.5181 260.67 60.4465C260.784 60.3749 260.91 60.3265 261.043 60.3042C261.175 60.2819 261.31 60.2862 261.441 60.3167C261.674 60.3702 261.906 60.4252 262.137 60.4831C263.667 60.8575 265.175 61.3131 266.656 61.8479C266.916 61.9168 267.139 62.0864 267.274 62.3193C267.409 62.5521 267.447 62.8293 267.378 63.0897C267.309 63.3502 267.14 63.5726 266.907 63.708C266.674 63.8434 266.397 63.8808 266.136 63.8119V63.8134Z" fill="#91B3FA"/>
</g>
<g opacity="0.3">
<path opacity="0.3" d="M244.735 146.808C244.602 146.786 244.476 146.739 244.362 146.668C244.248 146.597 244.15 146.504 244.072 146.395C243.994 146.286 243.938 146.163 243.908 146.033C243.877 145.902 243.873 145.767 243.895 145.635C243.917 145.502 243.965 145.376 244.036 145.262C244.107 145.148 244.199 145.05 244.308 144.972C244.417 144.894 244.54 144.838 244.671 144.808C244.801 144.778 244.937 144.773 245.069 144.795C246.746 145.063 248.437 145.229 250.134 145.292C250.268 145.297 250.4 145.328 250.522 145.384C250.644 145.44 250.754 145.519 250.845 145.617C250.936 145.715 251.007 145.831 251.054 145.956C251.101 146.082 251.122 146.216 251.117 146.35C251.112 146.484 251.081 146.615 251.025 146.737C250.969 146.859 250.89 146.969 250.792 147.06C250.693 147.151 250.578 147.222 250.452 147.269C250.327 147.316 250.193 147.337 250.059 147.332C248.278 147.265 246.503 147.091 244.743 146.81L244.735 146.808ZM239.637 145.677C239.601 145.67 239.565 145.662 239.53 145.652C237.816 145.163 236.133 144.571 234.489 143.881C234.24 143.776 234.042 143.576 233.94 143.325C233.838 143.074 233.839 142.793 233.944 142.544C234.049 142.294 234.249 142.097 234.5 141.995C234.75 141.893 235.031 141.894 235.281 141.999C236.849 142.658 238.455 143.223 240.09 143.691C240.353 143.751 240.582 143.913 240.726 144.142C240.87 144.371 240.917 144.647 240.857 144.91C240.796 145.174 240.634 145.402 240.406 145.546C240.177 145.69 239.901 145.737 239.637 145.677ZM255.145 147.192C254.876 147.18 254.623 147.063 254.441 146.865C254.259 146.666 254.164 146.404 254.175 146.135C254.187 145.867 254.305 145.614 254.503 145.432C254.701 145.25 254.963 145.154 255.232 145.166C256.926 145.02 258.61 144.771 260.274 144.422C260.539 144.366 260.815 144.418 261.042 144.566C261.268 144.715 261.426 144.946 261.482 145.211C261.537 145.476 261.485 145.752 261.337 145.979C261.189 146.205 260.957 146.364 260.692 146.419C258.948 146.785 257.183 147.046 255.407 147.199C255.32 147.208 255.232 147.205 255.145 147.192ZM230.031 141.629C229.914 141.608 229.802 141.567 229.699 141.508C228.152 140.62 226.66 139.638 225.232 138.569C225.125 138.489 225.035 138.388 224.966 138.273C224.898 138.157 224.853 138.03 224.834 137.897C224.815 137.764 224.823 137.629 224.856 137.499C224.889 137.37 224.948 137.248 225.028 137.14C225.109 137.033 225.209 136.943 225.325 136.875C225.44 136.806 225.568 136.762 225.7 136.743C225.833 136.724 225.968 136.731 226.098 136.764C226.227 136.798 226.349 136.856 226.457 136.936C227.817 137.956 229.239 138.892 230.713 139.738C230.932 139.851 231.102 140.039 231.192 140.268C231.282 140.497 231.286 140.751 231.203 140.983C231.119 141.214 230.954 141.408 230.739 141.526C230.523 141.645 230.272 141.682 230.031 141.629ZM265.345 145.049C265.117 145.016 264.907 144.907 264.75 144.739C264.592 144.572 264.496 144.355 264.478 144.126C264.46 143.896 264.52 143.667 264.649 143.476C264.779 143.286 264.969 143.145 265.189 143.077C266.798 142.528 268.372 141.882 269.903 141.144C270.147 141.026 270.427 141.01 270.683 141.099C270.938 141.188 271.148 141.375 271.266 141.619C271.383 141.863 271.399 142.143 271.31 142.399C271.221 142.654 271.034 142.864 270.79 142.982C269.185 143.756 267.534 144.432 265.848 145.008C265.684 145.064 265.51 145.078 265.34 145.049H265.345ZM274.728 140.521C274.523 140.49 274.333 140.396 274.183 140.253C274.033 140.11 273.93 139.924 273.889 139.721C273.848 139.518 273.87 139.307 273.952 139.117C274.035 138.926 274.174 138.766 274.351 138.657C275.781 137.738 277.156 136.734 278.467 135.651C278.57 135.566 278.689 135.501 278.817 135.462C278.945 135.422 279.08 135.408 279.213 135.421C279.347 135.433 279.476 135.472 279.595 135.535C279.713 135.597 279.818 135.683 279.904 135.786C279.989 135.889 280.054 136.008 280.093 136.136C280.133 136.264 280.147 136.399 280.134 136.532C280.122 136.666 280.083 136.795 280.02 136.914C279.958 137.032 279.872 137.137 279.769 137.223C278.395 138.359 276.955 139.412 275.455 140.375C275.238 140.515 274.976 140.568 274.723 140.521H274.728ZM282.758 133.877C282.576 133.845 282.407 133.764 282.267 133.644C282.127 133.523 282.023 133.367 281.965 133.192C281.907 133.017 281.897 132.829 281.937 132.649C281.977 132.469 282.065 132.303 282.192 132.169C283.362 130.935 284.455 129.63 285.466 128.261C285.627 128.044 285.868 127.899 286.135 127.859C286.403 127.819 286.676 127.887 286.894 128.048C287.111 128.209 287.256 128.45 287.296 128.718C287.336 128.985 287.268 129.258 287.107 129.476C286.046 130.909 284.899 132.277 283.673 133.571C283.556 133.695 283.411 133.788 283.25 133.841C283.088 133.894 282.916 133.907 282.749 133.877H282.758Z" fill="#91B3FA"/>
<path opacity="0.3" d="M221.656 135.346C221.455 135.311 221.269 135.216 221.122 135.075C220.494 134.47 219.879 133.844 219.297 133.213C219.206 133.114 219.135 132.999 219.089 132.873C219.043 132.747 219.021 132.613 219.027 132.48C219.032 132.346 219.064 132.214 219.12 132.092C219.176 131.971 219.256 131.861 219.354 131.77C219.452 131.679 219.568 131.609 219.694 131.562C219.819 131.516 219.953 131.495 220.087 131.5C220.221 131.505 220.352 131.537 220.474 131.593C220.596 131.649 220.705 131.729 220.796 131.827C221.351 132.43 221.937 133.027 222.533 133.605C222.689 133.757 222.792 133.954 222.827 134.169C222.863 134.383 222.829 134.603 222.731 134.797C222.632 134.991 222.474 135.148 222.28 135.246C222.086 135.344 221.866 135.378 221.652 135.341L221.656 135.346Z" fill="#91B3FA"/>
</g>
<path d="M224.738 122.501C224.79 122.595 224.871 122.67 224.968 122.716C225.065 122.762 225.175 122.776 225.28 122.756L231.466 121.623C233.48 123.816 235.838 125.666 238.448 127.101L238.824 133.373C238.831 133.481 238.871 133.583 238.939 133.667C239.006 133.75 239.098 133.811 239.202 133.839L246.466 135.865C246.57 135.895 246.68 135.891 246.781 135.854C246.882 135.818 246.969 135.75 247.03 135.661L250.601 130.49C253.576 130.615 256.552 130.253 259.411 129.419L264.116 133.592C264.196 133.663 264.297 133.708 264.404 133.719C264.511 133.731 264.618 133.708 264.712 133.655L271.283 129.952C271.377 129.899 271.452 129.819 271.497 129.721C271.543 129.624 271.557 129.515 271.537 129.409L270.404 123.223C272.598 121.209 274.448 118.85 275.882 116.24L282.155 115.864C282.262 115.858 282.365 115.818 282.448 115.75C282.532 115.683 282.592 115.591 282.621 115.488L284.647 108.222C284.676 108.118 284.672 108.008 284.636 107.907C284.599 107.806 284.532 107.719 284.443 107.658L279.276 104.09C279.401 101.114 279.039 98.1382 278.205 95.2789L282.378 90.5738C282.449 90.4935 282.494 90.3928 282.505 90.2859C282.517 90.1789 282.494 90.0711 282.441 89.9775L278.738 83.4068C278.685 83.3134 278.604 83.2388 278.507 83.1932C278.41 83.1476 278.301 83.1332 278.195 83.152L272.009 84.2867C269.995 82.0929 267.636 80.2425 265.026 78.8087L264.65 72.5347C264.643 72.4275 264.604 72.3251 264.536 72.2416C264.469 72.1581 264.377 72.0976 264.274 72.0687L257.008 70.0424C256.904 70.0137 256.794 70.0179 256.693 70.0544C256.592 70.091 256.505 70.1581 256.444 70.2465L252.875 75.4191C249.899 75.2942 246.923 75.6555 244.063 76.4887L239.36 72.3161C239.279 72.2451 239.178 72.2008 239.071 72.1894C238.964 72.178 238.856 72.2 238.762 72.2525L232.191 75.9575C232.098 76.0104 232.023 76.0911 231.977 76.1883C231.932 76.2856 231.918 76.3946 231.937 76.5003L233.07 82.686C230.877 84.7003 229.027 87.0585 227.593 89.6678L221.319 90.0441C221.212 90.0509 221.109 90.091 221.026 90.1586C220.942 90.2263 220.882 90.3183 220.853 90.4218L218.827 97.6858C218.798 97.7894 218.802 97.8995 218.839 98.0007C218.875 98.1019 218.942 98.1891 219.031 98.2503L224.204 101.821C224.079 104.796 224.44 107.772 225.273 110.63L221.095 115.334C221.024 115.415 220.979 115.515 220.968 115.622C220.957 115.729 220.979 115.837 221.031 115.93L224.738 122.501Z" fill="#91B3FA"/>
<path d="M250.405 110.558C248.43 110.216 246.665 109.122 245.481 107.505C244.296 105.889 243.785 103.876 244.054 101.89C244.323 99.9038 245.351 98.0994 246.923 96.8561C248.494 95.6127 250.487 95.0272 252.482 95.2226C254.476 95.418 256.317 96.3791 257.618 97.9038C258.918 99.4286 259.577 101.398 259.455 103.399C259.334 105.399 258.441 107.274 256.966 108.63C255.49 109.986 253.546 110.717 251.543 110.67C251.161 110.66 250.781 110.622 250.405 110.558ZM252.706 97.3602C252.432 97.3135 252.154 97.2859 251.875 97.2777C250.37 97.2405 248.911 97.8028 247.821 98.841C246.73 99.8792 246.096 101.308 246.059 102.814C246.022 104.319 246.584 105.778 247.622 106.869C248.66 107.959 250.089 108.593 251.595 108.63C253.028 108.666 254.421 108.158 255.495 107.208C256.57 106.259 257.245 104.938 257.385 103.512C257.526 102.085 257.122 100.658 256.254 99.5168C255.386 98.3758 254.119 97.6054 252.706 97.3602Z" fill="#BDD0FB"/>
<path d="M248.609 121.808C246.675 121.474 244.802 120.847 243.056 119.95L242.9 119.868C242.66 119.743 242.48 119.527 242.4 119.268C242.32 119.01 242.345 118.73 242.471 118.491C242.597 118.251 242.813 118.071 243.071 117.991C243.33 117.911 243.609 117.936 243.849 118.062C244.932 118.632 246.072 119.084 247.25 119.411L247.444 119.465C250.194 120.208 253.087 120.249 255.857 119.583C257.363 119.22 258.813 118.656 260.169 117.906L260.202 117.889L260.305 117.831C262.272 116.727 264.001 115.244 265.393 113.468C266.784 111.691 267.809 109.657 268.41 107.483C268.569 106.909 268.698 106.334 268.797 105.757C269.229 103.223 269.087 100.623 268.38 98.1507C267.674 95.6783 266.421 93.396 264.715 91.4721C263.009 89.5483 260.893 88.0318 258.523 87.0347C256.153 86.0376 253.589 85.5852 251.021 85.7109C248.453 85.8365 245.945 86.5371 243.684 87.7609C241.423 88.9846 239.465 90.7004 237.955 92.7816C236.445 94.8629 235.421 97.2566 234.959 99.7861C234.497 102.316 234.609 104.917 235.287 107.397C235.322 107.526 235.332 107.661 235.315 107.794C235.298 107.927 235.256 108.056 235.189 108.172C235.123 108.289 235.034 108.391 234.929 108.473C234.823 108.555 234.702 108.616 234.573 108.651C234.443 108.687 234.308 108.696 234.175 108.68C234.042 108.663 233.914 108.62 233.798 108.554C233.681 108.487 233.579 108.399 233.497 108.293C233.414 108.187 233.354 108.066 233.318 107.937C232.575 105.222 232.438 102.377 232.918 99.6035C233.029 98.9637 233.172 98.3269 233.352 97.6988C234.675 92.9523 237.77 88.8951 241.999 86.3654C246.228 83.8356 251.266 83.0264 256.074 84.1049C260.882 85.1834 265.093 88.0672 267.836 92.1607C270.578 96.2543 271.645 101.245 270.814 106.102C270.702 106.746 270.557 107.39 270.379 108.03C267.709 117.605 258.2 123.465 248.609 121.808Z" fill="#BDD0FB"/>
<path d="M24.5288 347.249C24.5338 348.705 25.1151 350.1 26.1456 351.129C27.1762 352.158 28.5722 352.737 30.0285 352.74H327.303C328.759 352.737 330.155 352.158 331.186 351.129C332.216 350.1 332.798 348.705 332.803 347.249L335.276 176.416C335.276 173.395 331.717 167.499 325.194 167.942L34.6613 160.425C32.7851 160.375 30.9184 160.707 29.1744 161.401C27.4305 162.095 25.8458 163.136 24.5164 164.461C23.187 165.786 22.1407 167.367 21.441 169.109C20.7413 170.85 20.4028 172.716 20.446 174.592L24.5288 347.249Z" fill="url(#paint14_linear_2207_6944)"/>
<path d="M29.9558 341.979C29.9588 343.358 30.5077 344.678 31.4823 345.653C32.4569 346.627 33.7778 347.175 35.1559 347.178H320.129C321.507 347.175 322.828 346.627 323.803 345.652C324.778 344.677 325.326 343.355 325.329 341.977L327.663 186.894C327.388 177.561 319.207 174.207 314.247 174.406L35.8029 166.938C34.484 166.903 33.1719 167.137 31.9462 167.625C30.7205 168.113 29.6069 168.846 28.6729 169.778C27.7389 170.709 27.0041 171.821 26.5131 173.046C26.0221 174.27 25.7851 175.582 25.8165 176.901L29.9558 341.979Z" fill="url(#paint15_linear_2207_6944)"/>
<path d="M322.248 268.3H322.236C322.136 268.299 322.037 268.278 321.945 268.238C321.853 268.198 321.77 268.141 321.7 268.069C321.63 267.997 321.575 267.912 321.539 267.819C321.502 267.726 321.483 267.626 321.485 267.526L321.67 254.949C321.673 254.749 321.754 254.558 321.897 254.417C322.039 254.277 322.231 254.198 322.431 254.198H322.439C322.539 254.199 322.638 254.22 322.731 254.259C322.823 254.299 322.906 254.356 322.977 254.428C323.047 254.5 323.102 254.585 323.139 254.679C323.176 254.772 323.194 254.872 323.193 254.972L323.009 267.549C323.006 267.749 322.925 267.94 322.782 268.081C322.64 268.222 322.448 268.3 322.248 268.3Z" fill="#7D97F4"/>
<path d="M322.695 237.485C322.595 237.483 322.496 237.462 322.404 237.422C322.312 237.383 322.228 237.325 322.158 237.253C322.089 237.181 322.034 237.096 321.997 237.003C321.96 236.91 321.942 236.81 321.944 236.71L322.65 188.54C322.637 185.679 321.769 183.395 320.069 181.765C316.896 178.726 311.857 178.881 311.646 178.891L222.651 176.504C222.55 176.502 222.452 176.48 222.36 176.439C222.269 176.398 222.186 176.34 222.117 176.267C222.048 176.195 221.994 176.109 221.958 176.016C221.922 175.922 221.905 175.823 221.908 175.723C221.905 175.621 221.924 175.52 221.963 175.426C222.002 175.332 222.06 175.247 222.134 175.177C222.208 175.107 222.296 175.054 222.392 175.02C222.488 174.986 222.59 174.973 222.691 174.982L311.635 177.368C312.187 177.335 317.551 177.242 321.123 180.665C323.133 182.59 324.162 185.243 324.175 188.549L323.468 236.733C323.466 236.833 323.445 236.932 323.406 237.024C323.366 237.116 323.309 237.199 323.237 237.269C323.165 237.339 323.08 237.394 322.987 237.431C322.894 237.468 322.795 237.486 322.695 237.485Z" fill="#7D97F4"/>
<path d="M1.2301 366.921L350.063 366.921C350.515 366.921 350.881 366.555 350.881 366.103V352.728C350.881 352.277 350.515 351.911 350.063 351.911L1.2301 351.911C0.778473 351.911 0.412384 352.277 0.412384 352.728V366.103C0.412384 366.555 0.778473 366.921 1.2301 366.921Z" fill="url(#paint16_linear_2207_6944)"/>
<path d="M53.505 220.44V226.743H145.527V220.44H53.505Z" fill="#7D97F4"/>
<path d="M53.0707 178.313V184.616H145.093V178.313H53.0707Z" fill="#7D97F4"/>
<path d="M79.0135 189.097V195.4H145.368V189.097H79.0135Z" fill="#7D97F4"/>
<path d="M64.972 188.594V194.896H74.5212V188.594H64.972Z" fill="#7D97F4"/>
<path d="M78.9484 199.632V205.935H145.303V199.632H78.9484Z" fill="#7D97F4"/>
<path d="M64.9242 199.128V205.431H74.4735V199.128H64.9242Z" fill="#7D97F4"/>
<path d="M78.7037 210.152V216.455H145.058V210.152H78.7037Z" fill="#7D97F4"/>
<path d="M64.3568 209.647V215.95H73.906V209.647H64.3568Z" fill="#7D97F4"/>
<path d="M53.0678 264.3V270.603H145.09V264.3H53.0678Z" fill="#7D97F4"/>
<path d="M78.5793 232.957V239.26H144.934V232.957H78.5793Z" fill="#7D97F4"/>
<path d="M64.535 232.452V238.755H74.0842V232.452H64.535Z" fill="#7D97F4"/>
<path d="M78.5128 243.494V249.797H144.867V243.494H78.5128Z" fill="#7D97F4"/>
<path d="M64.4884 242.989V249.292H74.0376V242.989H64.4884Z" fill="#7D97F4"/>
<path d="M78.2697 254.011V260.314H144.624V254.011H78.2697Z" fill="#7D97F4"/>
<path d="M63.9197 253.506V259.809H73.469V253.506H63.9197Z" fill="#7D97F4"/>
<path d="M53.0678 308.103V314.406H145.09V308.103H53.0678Z" fill="#7D97F4"/>
<path d="M78.5793 276.761V283.064H144.934V276.761H78.5793Z" fill="#7D97F4"/>
<path d="M64.535 276.255V282.558H74.0842V276.255H64.535Z" fill="#7D97F4"/>
<path d="M78.5114 287.298V293.601H144.866V287.298H78.5114Z" fill="#7D97F4"/>
<path d="M64.4872 286.791V293.094H74.0365V286.791H64.4872Z" fill="#7D97F4"/>
<path d="M78.2683 297.815V304.118H144.623V297.815H78.2683Z" fill="#7D97F4"/>
<path d="M63.9197 297.308V303.611H73.469V297.308H63.9197Z" fill="#7D97F4"/>
<path d="M79.0149 319.527V325.83H145.369V319.527H79.0149Z" fill="#7D97F4"/>
<path d="M64.972 319.024V325.327H74.5212V319.024H64.972Z" fill="#7D97F4"/>
<path d="M78.4897 330.064V336.367H144.844V330.064H78.4897Z" fill="#7D97F4"/>
<path d="M64.4653 329.56V335.863H74.0146V329.56H64.4653Z" fill="#7D97F4"/>
<path d="M215.447 298.892V305.28H281.684V298.892H215.447Z" fill="#7D97F4"/>
<path d="M188.503 288.215V294.604H295.969V288.215H188.503Z" fill="#7D97F4"/>
<path d="M222.87 277.551V283.94H309.015V277.551H222.87Z" fill="#7D97F4"/>
<path d="M222.872 266.878V273.267H271.995V266.878H222.872Z" fill="#7D97F4"/>
<path d="M224.012 256.192V262.581H310.05V256.192H224.012Z" fill="#7D97F4"/>
<path d="M216.314 245.53V251.918H289.018V245.53H216.314Z" fill="#7D97F4"/>
<path d="M188.506 234.836V241.224H266.13V234.836H188.506Z" fill="#7D97F4"/>
<path d="M223.154 224.167V230.556H311.717V224.167H223.154Z" fill="#7D97F4"/>
<path d="M223.156 213.493V219.881H312.817V213.493H223.156Z" fill="#7D97F4"/>
<path d="M224.012 202.817V209.206H312.341V202.817H224.012Z" fill="#7D97F4"/>
<path d="M208.024 192.142V198.531H280.383V192.142H208.024Z" fill="#7D97F4"/>
<path d="M162.627 223.899V230.287H181.389V223.899H162.627Z" fill="#7D97F4"/>
<path d="M162.627 234.879V241.268H181.389V234.879H162.627Z" fill="#7D97F4"/>
<path d="M162.627 245.41V251.798H181.389V245.41H162.627Z" fill="#7D97F4"/>
<path d="M162.625 256.124V262.512H181.388V256.124H162.625Z" fill="#7D97F4"/>
<path d="M162.627 267.103V273.492H181.389V267.103H162.627Z" fill="#7D97F4"/>
<path d="M162.625 277.635V284.024H181.388V277.635H162.625Z" fill="#7D97F4"/>
<path d="M163.578 288.133V294.521H182.34V288.133H163.578Z" fill="#7D97F4"/>
<path d="M163.579 299.113V305.502H182.342V299.113H163.579Z" fill="#7D97F4"/>
<path d="M163.578 309.644V316.032H182.34V309.644H163.578Z" fill="#7D97F4"/>
<path d="M163.579 320.387V326.776H182.342V320.387H163.579Z" fill="#7D97F4"/>
<path d="M163.579 331.368V337.756H182.342V331.368H163.579Z" fill="#7D97F4"/>
<path d="M162.625 213.49V219.878H181.388V213.49H162.625Z" fill="#7D97F4"/>
<path d="M162.625 202.822V209.21H181.388V202.822H162.625Z" fill="#7D97F4"/>
<path d="M162.627 192.141V198.529H181.389V192.141H162.627Z" fill="#7D97F4"/>
<path d="M162.625 181.467V187.855H181.388V181.467H162.625Z" fill="#7D97F4"/>
<path d="M188.53 181.476V187.866H278.51C278.51 184.337 275.616 181.476 272.035 181.476H188.53Z" fill="#7D97F4"/>
<path d="M223.727 331.787V338.176H314.464V331.787H223.727Z" fill="#7D97F4"/>
<path d="M223.727 320.79V327.178H312.815V320.79H223.727Z" fill="#7D97F4"/>
<path d="M223.743 310.301V316.689H280.398C280.398 313.161 278.573 310.299 276.321 310.299L223.743 310.301Z" fill="#7D97F4"/>
<path d="M154.136 177.097H154.033C153.555 177.097 153.167 177.485 153.167 177.963V341.619C153.167 342.097 153.555 342.484 154.033 342.484H154.136C154.614 342.484 155.001 342.097 155.001 341.619V177.963C155.001 177.485 154.614 177.097 154.136 177.097Z" fill="#7D97F4"/>
<path d="M283.951 263.235L396.662 383.505C397.78 384.698 398.64 386.109 399.187 387.65C399.734 389.191 399.956 390.829 399.84 392.46C399.723 394.091 399.271 395.68 398.511 397.128C397.751 398.576 396.699 399.851 395.423 400.873L394.537 401.583C393.402 402.492 392.098 403.167 390.701 403.569C389.304 403.972 387.841 404.094 386.396 403.929C384.952 403.764 383.554 403.315 382.284 402.607C381.014 401.9 379.896 400.949 378.995 399.808L276.255 269.8L283.951 263.235Z" fill="url(#paint17_linear_2207_6944)"/>
<path opacity="0.5" d="M303.974 235.386C322.708 198.394 307.357 152.941 269.686 133.863C232.016 114.784 186.29 129.305 167.556 166.297C148.822 203.288 164.173 248.741 201.844 267.82C239.514 286.898 285.24 272.377 303.974 235.386Z" fill="white"/>
<path d="M159.858 162.393C139.017 203.556 156.095 254.131 198.017 275.357C239.94 296.583 290.815 280.423 311.657 239.262C332.5 198.101 315.42 147.522 273.498 126.296C231.576 105.07 180.7 121.23 159.858 162.393ZM171.002 168.038C188.784 132.922 232.189 119.133 267.951 137.242C303.712 155.351 318.286 198.499 300.505 233.615C282.723 268.73 239.317 282.517 203.556 264.409C167.795 246.3 153.225 203.155 171.006 168.039L171.002 168.038Z" fill="url(#paint18_linear_2207_6944)"/>
<path d="M301.349 245.242C301.301 245.21 301.268 245.16 301.256 245.103C301.245 245.046 301.257 244.988 301.289 244.94C302.396 243.306 303.46 241.611 304.436 239.887C304.449 239.86 304.467 239.836 304.49 239.817C304.513 239.798 304.539 239.783 304.568 239.774C304.596 239.765 304.626 239.762 304.656 239.766C304.685 239.769 304.714 239.778 304.74 239.793C304.766 239.808 304.789 239.828 304.807 239.852C304.825 239.875 304.837 239.903 304.844 239.932C304.851 239.961 304.852 239.991 304.847 240.02C304.842 240.05 304.831 240.078 304.815 240.103C303.829 241.832 302.764 243.542 301.651 245.184C301.628 245.218 301.597 245.244 301.56 245.261C301.523 245.277 301.483 245.283 301.443 245.278C301.409 245.274 301.377 245.262 301.349 245.242ZM311.441 224.167C311.385 224.15 311.339 224.111 311.312 224.06C311.285 224.009 311.279 223.95 311.296 223.894C312.849 218.708 313.844 213.371 314.266 207.974C315.455 192.708 312.088 177.472 304.527 163.916C296.784 150.035 285.124 138.866 270.805 131.615C257.432 124.815 242.415 121.921 227.473 123.264C227.418 123.265 227.364 123.245 227.323 123.208C227.282 123.171 227.256 123.12 227.251 123.065C227.246 123.01 227.262 122.955 227.296 122.912C227.33 122.868 227.379 122.839 227.434 122.83C242.455 121.479 257.553 124.388 270.997 131.224C285.392 138.513 297.115 149.749 304.9 163.7C312.503 177.332 315.89 192.646 314.694 208.006C314.27 213.435 313.268 218.803 311.705 224.019C311.691 224.068 311.659 224.111 311.616 224.139C311.572 224.167 311.521 224.179 311.47 224.172L311.441 224.167Z" fill="#BDD0FB"/>
<path d="M385.121 400.013C389.972 400.64 393.334 399.353 395.107 396.188C396.918 392.965 396.394 388.856 393.805 385.963L380.49 371.092C380.45 371.054 380.398 371.032 380.343 371.031C380.288 371.03 380.234 371.049 380.193 371.086C380.152 371.122 380.126 371.173 380.121 371.228C380.116 371.282 380.131 371.337 380.164 371.381L393.479 386.251C395.94 389 396.448 392.908 394.728 395.972C393.028 399 389.778 400.211 385.021 399.558C384.993 399.555 384.964 399.556 384.936 399.564C384.908 399.571 384.882 399.584 384.859 399.602C384.836 399.619 384.817 399.641 384.803 399.666C384.788 399.691 384.779 399.718 384.775 399.747C384.771 399.775 384.773 399.804 384.781 399.832C384.788 399.86 384.801 399.886 384.818 399.909C384.836 399.931 384.858 399.951 384.882 399.965C384.907 399.979 384.935 399.989 384.963 399.993L385.121 400.013Z" fill="#BDD0FB"/>
<path d="M376.201 366.87C376.232 366.874 376.264 366.872 376.294 366.863C376.323 366.853 376.351 366.837 376.374 366.816C376.417 366.778 376.443 366.724 376.446 366.666C376.449 366.608 376.43 366.551 376.391 366.508L374.666 364.582C374.648 364.558 374.625 364.538 374.598 364.523C374.572 364.508 374.543 364.499 374.513 364.496C374.483 364.493 374.453 364.496 374.424 364.506C374.395 364.515 374.369 364.53 374.346 364.55C374.324 364.57 374.306 364.595 374.293 364.622C374.28 364.649 374.274 364.679 374.273 364.709C374.272 364.739 374.278 364.769 374.29 364.797C374.301 364.825 374.318 364.85 374.34 364.871L376.067 366.798C376.101 366.837 376.149 366.863 376.201 366.87Z" fill="#BDD0FB"/>
<path d="M144.832 83.8366C144.546 83.8284 144.274 83.7098 144.073 83.5056C143.872 83.3014 143.758 83.0275 143.754 82.741C143.644 76.6045 141.754 46.1375 115.251 39.7708C85.7464 32.679 72.2431 63.0607 72.2431 63.0607C72.2431 63.0607 35.7365 48.8902 28.736 86.8571C5.84552 92.4191 -0.101416 122.685 14.7869 137.473C17.1395 139.818 20.316 141.149 23.6371 141.181L166.99 142.484C169.049 142.496 171.055 141.835 172.704 140.601C174.352 139.368 175.553 137.63 176.123 135.651C180.601 120.353 186.471 84.8237 144.832 83.8366Z" fill="#91B3FA"/>
<path d="M141.555 84.4938C141.27 84.4852 140.998 84.3666 140.797 84.1628C140.597 83.959 140.483 83.6856 140.479 83.3996C140.361 77.5149 138.489 49.2637 113.529 43.3413C85.629 36.7228 72.8595 65.0913 72.8595 65.0913C72.8595 65.0913 38.3401 51.8529 31.7201 87.3131C10.2828 92.4568 4.56161 120.23 18.13 134.179C19.302 135.387 20.7016 136.35 22.248 137.013C23.7944 137.676 25.4569 138.027 27.1394 138.044L162.088 139.259C164.152 139.27 166.162 138.605 167.812 137.367C169.462 136.128 170.662 134.383 171.228 132.399C175.437 117.864 180.425 85.4302 141.555 84.4938Z" fill="#BDD0FB"/>
<path d="M7.36495 342.192C6.14053 344.004 1.27473 385.032 0.513448 400.176C0.501059 400.419 0.538297 400.662 0.622887 400.89C0.707477 401.118 0.837647 401.327 1.00545 401.503C1.17326 401.679 1.37518 401.819 1.59889 401.914C1.82261 402.01 2.06342 402.059 2.30665 402.058C2.73482 402.058 3.14891 401.905 3.47426 401.626C3.7996 401.348 4.01479 400.963 4.08103 400.54L12.9819 343.5L7.36495 342.192Z" fill="#7D97F4"/>
<path d="M46.4914 342.192C47.7158 344.004 52.5816 385.032 53.3443 400.176C53.3565 400.419 53.3191 400.662 53.2343 400.89C53.1496 401.118 53.0192 401.327 52.8513 401.503C52.6834 401.679 52.4814 401.819 52.2576 401.914C52.0338 402.01 51.7929 402.059 51.5497 402.058C51.1215 402.058 50.7074 401.905 50.382 401.626C50.0567 401.348 49.8415 400.963 49.7753 400.54L40.8744 343.5L46.4914 342.192Z" fill="#7D97F4"/>
<path d="M0.00419196 338.991V339.438C-0.024754 342.657 2.74681 345.296 6.21888 345.354L47.3612 346.055C50.7826 346.113 53.6352 343.641 53.8002 340.473L53.8219 340.063C53.9956 336.759 51.1893 333.974 47.6217 333.911L6.46058 333.172C2.93496 333.11 0.0345852 335.725 0.00419196 338.991Z" fill="#7D97F4"/>
<path d="M80.0424 398.687C72.7292 398.687 69.4931 398.059 68.0458 397.487C68.1871 398.099 68.5314 398.644 69.0224 399.034C69.5134 399.424 70.1221 399.637 70.7493 399.637H96.627C96.8206 399.636 97.0116 399.591 97.1851 399.505C97.3586 399.419 97.5099 399.295 97.6273 399.141C97.7448 398.987 97.8252 398.808 97.8623 398.618C97.8994 398.428 97.8922 398.231 97.8413 398.045C94.8902 398.285 88.622 398.687 80.0424 398.687Z" fill="url(#paint19_linear_2207_6944)"/>
<path d="M97.8358 398.047C97.7947 397.89 97.7223 397.742 97.623 397.613C95.6518 395.096 91.6891 391.145 86.3081 391.221C78.4189 391.332 75.6676 392.187 69.5368 391.268L68.0895 396.063C67.95 396.528 67.935 397.021 68.0461 397.493C69.4934 398.065 72.7295 398.693 80.0427 398.693C88.6223 398.687 94.8905 398.285 97.8358 398.047Z" fill="url(#paint20_linear_2207_6944)"/>
<path d="M71.311 386.097L69.5366 392.135C69.5366 392.135 73.4704 393.926 76.9294 392.488L77.6082 387.256L71.311 386.097Z" fill="url(#paint21_linear_2207_6944)"/>
<path d="M124.938 394.884C119.235 399.464 116.322 401.006 114.837 401.467C115.33 401.853 115.939 402.06 116.565 402.055C117.191 402.051 117.797 401.834 118.284 401.441L138.454 385.242C138.604 385.121 138.725 384.968 138.806 384.793C138.888 384.618 138.928 384.427 138.924 384.234C138.919 384.042 138.871 383.852 138.781 383.681C138.692 383.511 138.565 383.363 138.409 383.249C136.257 385.275 131.624 389.51 124.938 394.884Z" fill="url(#paint22_linear_2207_6944)"/>
<path d="M138.409 383.243C138.28 383.146 138.132 383.075 137.975 383.035C134.869 382.311 129.32 381.732 125.169 385.162C119.091 390.19 117.477 392.578 112.125 395.704L113.986 400.336C114.166 400.784 114.461 401.177 114.843 401.473C116.328 401.012 119.241 399.47 124.943 394.889C131.624 389.51 136.257 385.275 138.409 383.243Z" fill="url(#paint23_linear_2207_6944)"/>
<path d="M33.3324 317.302C33.3324 317.302 77.1189 320.876 86.1009 325.105C95.0828 329.334 78.7718 388.598 78.7718 388.598C78.7718 388.598 76.3258 389.775 70.884 388.083C70.884 388.083 76.4648 344.349 72.3125 334.864L24.9019 327.11L33.3324 317.302Z" fill="url(#paint24_linear_2207_6944)"/>
<path d="M107.771 387.379C108.178 387.75 112.122 395.704 112.122 395.704C112.122 395.704 116.513 394.755 117.409 391.976L113.458 384.797L107.771 387.379Z" fill="url(#paint25_linear_2207_6944)"/>
<path d="M6.95979 316.929C6.95979 316.929 5.53275 320.362 5.59064 324.926C5.67169 331.236 10.7445 336.359 17.0474 336.671L68.81 339.031C69.3416 339.055 69.8514 339.25 70.2642 339.585C70.677 339.921 70.9709 340.381 71.1025 340.897C72.3182 345.602 78.2637 360.05 107.327 388.88C107.703 389.252 108.194 389.485 108.719 389.542C109.245 389.6 109.774 389.477 110.221 389.196L114.359 386.582C114.568 386.45 114.717 386.242 114.776 386.002C114.834 385.762 114.797 385.508 114.672 385.295L84.5377 333.834C82.9534 331.221 80.407 329.334 77.446 328.579L33.3281 317.301L6.95979 316.929Z" fill="url(#paint26_linear_2207_6944)"/>
<path d="M57.9712 236.54C57.9712 236.54 52.4266 246.344 46.7735 251.094L58.4589 257.606C58.4589 257.606 61.0916 247.226 67.108 244.187L57.9712 236.54Z" fill="url(#paint27_linear_2207_6944)"/>
<path d="M6.0262 317.301C6.0262 317.301 20.0013 320.707 33.3396 317.301C33.3396 317.301 52.0097 292.211 59.2245 285.383C59.2245 285.383 70.742 303.558 96.378 306.133L97.8079 302.938C97.8079 302.938 77.401 293.531 71.1154 279.074C64.8298 264.617 62.3014 258.459 56.586 254.681C53.0257 252.332 50.8938 250.727 49.7924 249.85C49.4995 249.616 49.1413 249.477 48.7668 249.454C48.3923 249.43 48.0197 249.523 47.6996 249.719C41.6297 253.415 13.089 272.964 6.0262 317.301Z" fill="url(#paint28_linear_2207_6944)"/>
<path d="M51.5525 271.89C51.5525 271.89 54.0375 278.366 58.459 284.132L51.5525 271.89Z" fill="url(#paint29_linear_2207_6944)"/>
<path d="M94.8296 301.27L97.7155 300.5L106.477 298.474C106.999 298.353 107.54 298.337 108.068 298.426C108.597 298.515 109.102 298.708 109.556 298.993L117.089 303.733L96.2856 303.698L94.8296 301.27Z" fill="url(#paint30_linear_2207_6944)"/>
<path d="M66.7765 221.842C66.7765 221.842 72.1648 230.801 73.0998 235.752C74.0347 240.703 75.5356 243.798 69.9013 245.562C64.2669 247.326 59.0292 245.093 55.7424 240.472C55.7424 240.472 50.6103 233.36 51.1226 230.102C51.6349 226.844 66.7765 221.842 66.7765 221.842Z" fill="url(#paint31_linear_2207_6944)"/>
<path d="M57.2433 236.635L57.967 236.539C57.967 236.539 54.1519 230.773 56.6485 229.344C59.1451 227.914 69.321 224.402 71.0881 220.396C72.7916 216.534 70.2429 212.168 67.1703 211.258C67.0751 211.232 66.9738 211.244 66.8866 211.29C66.7993 211.335 66.7327 211.413 66.6999 211.506L66.5205 211.992C66.493 212.066 66.4441 212.13 66.3801 212.175C66.3161 212.221 66.2398 212.247 66.1611 212.249C66.0825 212.251 66.0049 212.23 65.9385 212.188C65.872 212.145 65.8197 212.084 65.7881 212.012C65.7592 211.941 65.71 211.879 65.6465 211.836C65.583 211.792 65.5081 211.768 65.4311 211.766C65.354 211.765 65.2782 211.786 65.2131 211.827C65.1479 211.868 65.0962 211.927 65.0645 211.998C64.5203 213.199 62.8936 215.248 57.9945 216.835C51.0474 219.087 46.7273 222.586 47.2584 227.518C47.2663 227.589 47.2554 227.659 47.2266 227.724C47.1979 227.788 47.1524 227.844 47.095 227.885C47.0375 227.926 46.9702 227.95 46.8999 227.957C46.8297 227.963 46.759 227.95 46.6954 227.919C46.1266 227.669 45.2669 227.63 44.2683 228.723C42.5315 230.623 43.8905 234.78 48.6362 237.72C48.6896 237.752 48.7349 237.795 48.7683 237.847C48.8018 237.899 48.8225 237.958 48.8287 238.02C48.8349 238.081 48.8264 238.143 48.8041 238.201C48.7817 238.259 48.746 238.31 48.6999 238.352C47.9907 238.959 46.9921 240.314 50.2022 241.523C53.4876 242.759 55.2793 242.34 55.9407 242.075C56.0269 242.042 56.0984 241.979 56.1429 241.897C56.1873 241.816 56.2018 241.722 56.1839 241.631L55.3416 237.308C55.331 237.255 55.3314 237.201 55.3428 237.148C55.3542 237.095 55.3764 237.045 55.4079 237.001C55.4394 236.957 55.4795 236.921 55.5259 236.893C55.5722 236.865 55.6238 236.847 55.6773 236.841L57.2433 236.635Z" fill="url(#paint32_linear_2207_6944)"/>
<path d="M57.5415 237.524C57.5415 237.524 55.1636 231.661 52.667 233.722C50.1705 235.783 54.9827 240.337 57.1927 240.276L57.5415 237.524Z" fill="url(#paint33_linear_2207_6944)"/>
<path d="M86.7929 307.811C86.8262 307.811 86.8609 307.811 86.8942 307.811L131.338 307.768C131.864 307.768 132.369 307.559 132.742 307.186C133.114 306.814 133.323 306.309 133.323 305.782C133.323 305.256 133.114 304.751 132.742 304.378C132.369 304.006 131.864 303.797 131.338 303.797L86.8942 303.842C86.3777 303.844 85.8824 304.048 85.5136 304.409C85.1448 304.771 84.9315 305.262 84.9189 305.779C84.9062 306.295 85.0954 306.796 85.4461 307.175C85.7968 307.555 86.2814 307.782 86.7972 307.81L86.7929 307.811Z" fill="url(#paint34_linear_2207_6944)"/>
<path d="M148.549 264.287L148.504 264.378L129.805 304.697C129.689 304.934 129.622 305.192 129.608 305.456C129.593 305.719 129.631 305.983 129.719 306.232C129.808 306.48 129.945 306.709 130.123 306.904C130.301 307.099 130.516 307.256 130.755 307.367C130.994 307.479 131.254 307.541 131.517 307.55C131.781 307.56 132.044 307.517 132.291 307.424C132.538 307.331 132.764 307.189 132.956 307.008C133.147 306.826 133.301 306.609 133.407 306.367L152.108 266.048C152.332 265.577 152.362 265.037 152.191 264.545C152.02 264.052 151.663 263.646 151.196 263.415C150.728 263.184 150.189 263.146 149.694 263.309C149.198 263.472 148.787 263.823 148.549 264.287Z" fill="url(#paint35_linear_2207_6944)"/>
<path d="M106.582 311.152C106.388 311.955 87.8436 381.506 83.1355 399.137C83.0061 399.608 82.9867 400.103 83.079 400.583C83.1712 401.062 83.3726 401.514 83.6676 401.904C83.9625 402.293 84.3431 402.609 84.7799 402.828C85.2167 403.047 85.6979 403.162 86.1864 403.165C86.8948 403.163 87.5818 402.922 88.1375 402.483C88.6933 402.044 89.0856 401.431 89.2518 400.742L109.838 317.28L106.582 311.152Z" fill="#BDD0FB"/>
<path d="M116.736 311.152C116.931 311.955 135.476 381.506 140.182 399.137C140.312 399.608 140.331 400.103 140.239 400.583C140.147 401.062 139.945 401.514 139.65 401.904C139.355 402.293 138.975 402.609 138.538 402.828C138.101 403.047 137.62 403.162 137.131 403.165C136.423 403.162 135.736 402.922 135.18 402.483C134.625 402.044 134.232 401.431 134.066 400.742L113.481 317.28L116.736 311.152Z" fill="#BDD0FB"/>
<path d="M117.509 308.877H105.959V318.152C105.957 318.468 106.017 318.78 106.136 319.072C106.255 319.364 106.43 319.629 106.652 319.853C106.873 320.078 107.137 320.256 107.427 320.378C107.718 320.501 108.029 320.565 108.344 320.566H109.936V341.399C109.935 341.637 109.98 341.874 110.07 342.095C110.16 342.316 110.293 342.517 110.46 342.687C110.628 342.856 110.827 342.991 111.047 343.084C111.267 343.177 111.503 343.225 111.741 343.227C111.98 343.225 112.216 343.177 112.436 343.085C112.656 342.992 112.855 342.857 113.023 342.687C113.191 342.517 113.323 342.316 113.413 342.095C113.503 341.874 113.549 341.638 113.547 341.399V320.566H114.351C114.769 320.564 115.183 320.479 115.568 320.317C115.953 320.154 116.303 319.918 116.597 319.62C116.891 319.323 117.123 318.97 117.281 318.583C117.439 318.195 117.519 317.78 117.516 317.362L117.509 308.877Z" fill="#BDD0FB"/>
<path d="M77.5619 306.654H142.051C142.491 306.655 142.918 306.804 143.265 307.075C143.612 307.347 143.858 307.727 143.964 308.155L144.866 311.684C144.941 311.979 144.949 312.287 144.888 312.584C144.827 312.882 144.698 313.162 144.513 313.402C144.327 313.643 144.089 313.838 143.817 313.973C143.544 314.107 143.245 314.178 142.941 314.18L76.7688 313.795C76.4672 313.79 76.1704 313.718 75.9009 313.582C75.6314 313.446 75.3962 313.251 75.2129 313.012C75.0296 312.772 74.9029 312.494 74.8425 312.199C74.7821 311.903 74.7895 311.598 74.8642 311.305L75.6472 308.159C75.753 307.73 75.9988 307.35 76.3457 307.077C76.6926 306.804 77.1207 306.655 77.5619 306.654Z" fill="#BDD0FB"/>
<defs>
<linearGradient id="paint0_linear_2207_6944" x1="428.714" y1="455.669" x2="132.39" y2="135.828" gradientUnits="userSpaceOnUse">
<stop stop-color="#DAE3FE"/>
<stop offset="1" stop-color="#E9EFFD"/>
</linearGradient>
<linearGradient id="paint1_linear_2207_6944" x1="273.246" y1="29.9508" x2="272.272" y2="-130.938" gradientUnits="userSpaceOnUse">
<stop stop-color="#E1473D"/>
<stop offset="1" stop-color="#E9605A"/>
</linearGradient>
<linearGradient id="paint2_linear_2207_6944" x1="229.765" y1="-291.588" x2="258.043" y2="-46.8411" gradientUnits="userSpaceOnUse">
<stop stop-color="#FF928E"/>
<stop offset="1" stop-color="#FE7062"/>
</linearGradient>
<linearGradient id="paint3_linear_2207_6944" x1="356.875" y1="-121.934" x2="295.448" y2="25.7842" gradientUnits="userSpaceOnUse">
<stop stop-color="#FEBBBA"/>
<stop offset="1" stop-color="#FF928E"/>
</linearGradient>
<linearGradient id="paint4_linear_2207_6944" x1="733005" y1="-388.702" x2="732931" y2="7122.3" gradientUnits="userSpaceOnUse">
<stop stop-color="#FEBBBA"/>
<stop offset="1" stop-color="#FF928E"/>
</linearGradient>
<linearGradient id="paint5_linear_2207_6944" x1="515317" y1="-78718.3" x2="517294" y2="8257.72" gradientUnits="userSpaceOnUse">
<stop stop-color="#FF928E"/>
<stop offset="1" stop-color="#FE7062"/>
</linearGradient>
<linearGradient id="paint6_linear_2207_6944" x1="653266" y1="6306.39" x2="653221" y2="10199.1" gradientUnits="userSpaceOnUse">
<stop stop-color="#FEBBBA"/>
<stop offset="1" stop-color="#FF928E"/>
</linearGradient>
<linearGradient id="paint7_linear_2207_6944" x1="755247" y1="2674.46" x2="755077" y2="16165.1" gradientUnits="userSpaceOnUse">
<stop stop-color="#FEBBBA"/>
<stop offset="1" stop-color="#FF928E"/>
</linearGradient>
<linearGradient id="paint8_linear_2207_6944" x1="501949" y1="-77510.3" x2="503887" y2="8499.27" gradientUnits="userSpaceOnUse">
<stop stop-color="#FF928E"/>
<stop offset="1" stop-color="#FE7062"/>
</linearGradient>
<linearGradient id="paint9_linear_2207_6944" x1="750837" y1="2839.6" x2="750742" y2="13526.7" gradientUnits="userSpaceOnUse">
<stop stop-color="#FEBBBA"/>
<stop offset="1" stop-color="#FF928E"/>
</linearGradient>
<linearGradient id="paint10_linear_2207_6944" x1="740721" y1="6100.22" x2="740658" y2="11852.2" gradientUnits="userSpaceOnUse">
<stop stop-color="#FEBBBA"/>
<stop offset="1" stop-color="#FF928E"/>
</linearGradient>
<linearGradient id="paint11_linear_2207_6944" x1="489274" y1="-77428.2" x2="491226" y2="8871.17" gradientUnits="userSpaceOnUse">
<stop stop-color="#FF928E"/>
<stop offset="1" stop-color="#FE7062"/>
</linearGradient>
<linearGradient id="paint12_linear_2207_6944" x1="736550" y1="6936.63" x2="736465" y2="15036" gradientUnits="userSpaceOnUse">
<stop stop-color="#FEBBBA"/>
<stop offset="1" stop-color="#FF928E"/>
</linearGradient>
<linearGradient id="paint13_linear_2207_6944" x1="748731" y1="8312.68" x2="748649" y2="15744.1" gradientUnits="userSpaceOnUse">
<stop stop-color="#FEBBBA"/>
<stop offset="1" stop-color="#FF928E"/>
</linearGradient>
<linearGradient id="paint14_linear_2207_6944" x1="205.813" y1="339.607" x2="135.604" y2="128.982" gradientUnits="userSpaceOnUse">
<stop stop-color="#09005D"/>
<stop offset="1" stop-color="#1A0F91"/>
</linearGradient>
<linearGradient id="paint15_linear_2207_6944" x1="25.8107" y1="257.058" x2="327.66" y2="257.058" gradientUnits="userSpaceOnUse">
<stop stop-color="#4F52FF"/>
<stop offset="1" stop-color="#4042E2"/>
</linearGradient>
<linearGradient id="paint16_linear_2207_6944" x1="-141685" y1="41113.4" x2="-117567" y2="178090" gradientUnits="userSpaceOnUse">
<stop stop-color="#09005D"/>
<stop offset="1" stop-color="#1A0F91"/>
</linearGradient>
<linearGradient id="paint17_linear_2207_6944" x1="-158195" y1="201105" x2="-284834" y2="137074" gradientUnits="userSpaceOnUse">
<stop stop-color="#09005D"/>
<stop offset="1" stop-color="#1A0F91"/>
</linearGradient>
<linearGradient id="paint18_linear_2207_6944" x1="53642.2" y1="282924" x2="-127767" y2="201190" gradientUnits="userSpaceOnUse">
<stop stop-color="#09005D"/>
<stop offset="1" stop-color="#1A0F91"/>
</linearGradient>
<linearGradient id="paint19_linear_2207_6944" x1="27774.9" y1="7296.53" x2="33925.8" y2="7296.53" gradientUnits="userSpaceOnUse">
<stop stop-color="#4F52FF"/>
<stop offset="1" stop-color="#4042E2"/>
</linearGradient>
<linearGradient id="paint20_linear_2207_6944" x1="32539.5" y1="21419" x2="32432.1" y2="24384.1" gradientUnits="userSpaceOnUse">
<stop stop-color="#09005D"/>
<stop offset="1" stop-color="#1A0F91"/>
</linearGradient>
<linearGradient id="paint21_linear_2207_6944" x1="7647.29" y1="22263.4" x2="8097.44" y2="22263.4" gradientUnits="userSpaceOnUse">
<stop stop-color="#FEBBBA"/>
<stop offset="1" stop-color="#FF928E"/>
</linearGradient>
<linearGradient id="paint22_linear_2207_6944" x1="30267.7" y1="59984.4" x2="34276.6" y2="59984.4" gradientUnits="userSpaceOnUse">
<stop stop-color="#4F52FF"/>
<stop offset="1" stop-color="#4042E2"/>
</linearGradient>
<linearGradient id="paint23_linear_2207_6944" x1="36024.4" y1="54581.4" x2="35244" y2="62044.1" gradientUnits="userSpaceOnUse">
<stop stop-color="#09005D"/>
<stop offset="1" stop-color="#1A0F91"/>
</linearGradient>
<linearGradient id="paint24_linear_2207_6944" x1="69760.9" y1="192142" x2="35970.6" y2="219022" gradientUnits="userSpaceOnUse">
<stop stop-color="#09005D"/>
<stop offset="1" stop-color="#1A0F91"/>
</linearGradient>
<linearGradient id="paint25_linear_2207_6944" x1="11701.5" y1="34769.8" x2="12343.3" y2="34769.8" gradientUnits="userSpaceOnUse">
<stop stop-color="#FEBBBA"/>
<stop offset="1" stop-color="#FF928E"/>
</linearGradient>
<linearGradient id="paint26_linear_2207_6944" x1="133487" y1="173546" x2="125959" y2="190030" gradientUnits="userSpaceOnUse">
<stop stop-color="#09005D"/>
<stop offset="1" stop-color="#1A0F91"/>
</linearGradient>
<linearGradient id="paint27_linear_2207_6944" x1="16988.1" y1="46885.5" x2="17697.5" y2="45158.8" gradientUnits="userSpaceOnUse">
<stop stop-color="#FEBBBA"/>
<stop offset="1" stop-color="#FF928E"/>
</linearGradient>
<linearGradient id="paint28_linear_2207_6944" x1="85900.9" y1="67878.7" x2="82714.7" y2="125492" gradientUnits="userSpaceOnUse">
<stop stop-color="#FF928E"/>
<stop offset="1" stop-color="#FE7062"/>
</linearGradient>
<linearGradient id="paint29_linear_2207_6944" x1="5677.31" y1="29373.9" x2="6006.89" y2="29373.9" gradientUnits="userSpaceOnUse">
<stop stop-color="#E1473D"/>
<stop offset="1" stop-color="#E9605A"/>
</linearGradient>
<linearGradient id="paint30_linear_2207_6944" x1="24882.5" y1="13901.8" x2="28306" y2="13901.8" gradientUnits="userSpaceOnUse">
<stop stop-color="#FEBBBA"/>
<stop offset="1" stop-color="#FF928E"/>
</linearGradient>
<linearGradient id="paint31_linear_2207_6944" x1="72021.3" y1="51976.6" x2="68485.2" y2="55308.1" gradientUnits="userSpaceOnUse">
<stop stop-color="#FEBBBA"/>
<stop offset="1" stop-color="#FF928E"/>
</linearGradient>
<linearGradient id="paint32_linear_2207_6944" x1="85107.6" y1="64244.6" x2="90526" y2="69087.6" gradientUnits="userSpaceOnUse">
<stop stop-color="#09005D"/>
<stop offset="1" stop-color="#1A0F91"/>
</linearGradient>
<linearGradient id="paint33_linear_2207_6944" x1="17559.3" y1="15302.7" x2="16591.1" y2="16083.3" gradientUnits="userSpaceOnUse">
<stop stop-color="#FEBBBA"/>
<stop offset="1" stop-color="#FF928E"/>
</linearGradient>
<linearGradient id="paint34_linear_2207_6944" x1="-1.3846e+06" y1="-193132" x2="-1.38444e+06" y2="-188552" gradientUnits="userSpaceOnUse">
<stop stop-color="#09005D"/>
<stop offset="1" stop-color="#1A0F91"/>
</linearGradient>
<linearGradient id="paint35_linear_2207_6944" x1="1.46694e+06" y1="148043" x2="1.44868e+06" y2="161221" gradientUnits="userSpaceOnUse">
<stop stop-color="#09005D"/>
<stop offset="1" stop-color="#1A0F91"/>
</linearGradient>
</defs>
</svg>
