<svg width="110" height="107" viewBox="0 0 110 107" fill="none" xmlns="http://www.w3.org/2000/svg">
<g opacity="0.7">
<path opacity="0.7" d="M51.278 42.2716C51.1963 42.2545 51.1202 42.2169 51.0565 42.162C50.9927 42.1072 50.9432 42.0368 50.9125 41.9571C50.762 41.5476 50.6172 41.137 50.4779 40.7252C50.4339 40.5954 50.4419 40.4522 50.5004 40.3272C50.5588 40.2021 50.6627 40.1054 50.7893 40.0583C50.9159 40.0113 51.0548 40.0177 51.1755 40.0762C51.2961 40.1347 51.3886 40.2405 51.4326 40.3703C51.5739 40.7731 51.7151 41.1758 51.8573 41.5741C51.8901 41.6615 51.8991 41.7568 51.8833 41.8498C51.8676 41.9427 51.8277 42.0299 51.7679 42.1019C51.7081 42.1739 51.6306 42.2281 51.5438 42.2587C51.457 42.2893 51.364 42.2952 51.2749 42.2756L51.278 42.2716Z" fill="#BDD0FB"/>
</g>
<path d="M12.2082 53.2139L12.8771 82.1286C12.9393 84.5601 13.9139 86.8596 15.5962 88.5445C17.2786 90.2295 19.538 91.1687 21.9001 91.1653L89.1119 91.2174C90.6988 91.2224 92.242 90.6373 93.4578 89.5696C94.6736 88.502 95.4805 87.0235 95.7303 85.4056C96.8484 78.1059 98.2851 65.0238 96.8749 52.7675L12.2082 53.2139Z" fill="url(#paint0_linear_2207_7149)"/>
<path d="M20.3707 88.9291L20.3401 88.9225C19.86 88.7335 19.397 88.5021 18.9565 88.2306C18.914 88.2043 18.8835 88.1616 18.8716 88.1119C18.8597 88.0621 18.8674 88.0092 18.8929 87.9648C18.9196 87.9205 18.9618 87.8886 19.0106 87.8758C19.0594 87.863 19.111 87.8703 19.1541 87.8962C19.577 88.155 20.0205 88.3768 20.4801 88.5592C20.5278 88.5736 20.5678 88.6069 20.5912 88.652C20.6147 88.697 20.6197 88.75 20.6051 88.7994C20.5905 88.8488 20.5576 88.8904 20.5135 88.9151C20.4695 88.9399 20.4179 88.9457 20.3702 88.9314L20.3707 88.9291ZM23.8306 89.5127C23.7883 89.503 23.7505 89.4787 23.7237 89.4438C23.6968 89.4089 23.6824 89.3654 23.6827 89.3206C23.6838 89.2689 23.7046 89.2196 23.7406 89.1832C23.7767 89.1468 23.825 89.1264 23.8752 89.1264L25.3922 89.126C25.4421 89.127 25.4894 89.1479 25.5241 89.1845C25.5589 89.221 25.5782 89.2702 25.5781 89.3217C25.5779 89.3473 25.5727 89.3727 25.5629 89.3965C25.5531 89.4202 25.5388 89.4417 25.5209 89.4598C25.5029 89.4778 25.4817 89.4921 25.4585 89.5017C25.4353 89.5113 25.4106 89.5161 25.3857 89.5158L23.8708 89.5167L23.8306 89.5127ZM28.8847 89.5164C28.8423 89.5066 28.8046 89.4823 28.7777 89.4474C28.7509 89.4125 28.7364 89.3691 28.7368 89.3242C28.7378 89.2726 28.7586 89.2232 28.7947 89.1868C28.8307 89.1504 28.8791 89.13 28.9292 89.1301L30.4457 89.1319C30.4719 89.1298 30.4981 89.1334 30.5228 89.1423C30.5474 89.1512 30.5699 89.1653 30.5889 89.1836C30.6078 89.202 30.6228 89.2243 30.6329 89.2491C30.643 89.2739 30.648 89.3006 30.6476 89.3276C30.6471 89.3546 30.6412 89.3813 30.6303 89.406C30.6194 89.4307 30.6036 89.4529 30.5841 89.4711C30.5645 89.4893 30.5415 89.5032 30.5166 89.5119C30.4916 89.5207 30.4653 89.524 30.4392 89.5217L28.9249 89.5203L28.8847 89.5164ZM16.4528 85.8149C16.4066 85.8056 16.3659 85.7782 16.3392 85.7385C16.0408 85.3083 15.7798 84.8514 15.5593 84.3732C15.5487 84.329 15.5536 84.2821 15.5731 84.2407C15.5926 84.1994 15.6254 84.1662 15.6659 84.1469C15.7064 84.1276 15.752 84.1235 15.7948 84.1352C15.8375 84.1469 15.8747 84.1738 15.8999 84.2111C16.1103 84.6692 16.3603 85.1064 16.647 85.5174C16.6754 85.5595 16.6867 85.6117 16.6782 85.6627C16.6698 85.7137 16.6423 85.7595 16.6018 85.7904C16.5795 85.8051 16.5545 85.8148 16.5285 85.819C16.5024 85.8231 16.4759 85.8215 16.4506 85.8144L16.4528 85.8149ZM33.9409 89.5205C33.8986 89.5107 33.8609 89.4864 33.834 89.4515C33.8071 89.4166 33.7927 89.3732 33.793 89.3283C33.7941 89.2767 33.8149 89.2273 33.8509 89.1909C33.887 89.1545 33.9353 89.1341 33.9855 89.1342L35.502 89.136C35.5281 89.1339 35.5544 89.1375 35.579 89.1464C35.6036 89.1553 35.6261 89.1694 35.6451 89.1877C35.6641 89.2061 35.6791 89.2284 35.6892 89.2532C35.6993 89.278 35.7043 89.3047 35.7038 89.3317C35.7034 89.3587 35.6975 89.3854 35.6866 89.4101C35.6756 89.4348 35.6599 89.457 35.6403 89.4752C35.6207 89.4934 35.5978 89.5073 35.5728 89.516C35.5479 89.5248 35.5215 89.5281 35.4955 89.5258L33.9811 89.5244L33.9409 89.5205ZM38.995 89.5241C38.9526 89.5143 38.9149 89.4901 38.888 89.4551C38.8612 89.4202 38.8467 89.3768 38.8471 89.3319C38.8481 89.2803 38.8689 89.2309 38.905 89.1945C38.941 89.1582 38.9894 89.1378 39.0395 89.1378L40.556 89.1397C40.6035 89.1438 40.6475 89.1662 40.6792 89.2025C40.7109 89.2387 40.7281 89.2861 40.7273 89.3352C40.7264 89.3844 40.7077 89.4316 40.6748 89.4676C40.6418 89.5036 40.5971 89.5257 40.5495 89.5294L39.0352 89.528L38.995 89.5241ZM44.049 89.5277C44.0068 89.5185 43.969 89.4947 43.942 89.4602C43.915 89.4256 43.9004 89.3825 43.9007 89.3378C43.9023 89.2864 43.9232 89.2373 43.9592 89.2011C43.9951 89.1648 44.0431 89.1442 44.0931 89.1437L45.6096 89.1455C45.6593 89.1471 45.7063 89.1682 45.7409 89.2046C45.7755 89.241 45.7951 89.2899 45.7955 89.3411C45.7953 89.3668 45.7901 89.3922 45.7803 89.4159C45.7705 89.4396 45.7562 89.4612 45.7383 89.4792C45.7204 89.4973 45.6992 89.5116 45.676 89.5212C45.6528 89.5308 45.628 89.5356 45.6031 89.5353L44.0883 89.5362L44.049 89.5277ZM49.1031 89.5313C49.0608 89.5222 49.023 89.4983 48.996 89.4638C48.969 89.4293 48.9545 89.3861 48.9547 89.3415C48.9563 89.29 48.9773 89.241 49.0132 89.2047C49.0492 89.1685 49.0972 89.1479 49.1471 89.1473L50.6636 89.1492C50.7138 89.1495 50.7615 89.1703 50.7963 89.2069C50.8311 89.2436 50.8503 89.2931 50.8496 89.3448C50.8494 89.3703 50.8444 89.3956 50.8347 89.4192C50.825 89.4428 50.811 89.4643 50.7933 89.4824C50.7756 89.5005 50.7546 89.5148 50.7316 89.5246C50.7087 89.5344 50.6841 89.5394 50.6593 89.5394L49.1423 89.5398L49.1031 89.5313ZM54.1567 89.5372C54.1143 89.5275 54.0766 89.5032 54.0497 89.4683C54.0229 89.4334 54.0084 89.3899 54.0088 89.3451C54.0098 89.2934 54.0306 89.2441 54.0667 89.2077C54.1027 89.1713 54.1511 89.1509 54.2012 89.1509L55.7182 89.1505C55.7679 89.1521 55.815 89.1732 55.8496 89.2096C55.8842 89.246 55.9037 89.2949 55.9041 89.3462C55.9032 89.3975 55.8828 89.4467 55.8472 89.4831C55.8116 89.5195 55.7637 89.5402 55.7139 89.5408L54.1974 89.5389L54.1567 89.5372ZM14.8693 80.9725C14.8285 80.9631 14.792 80.9401 14.7653 80.9072C14.7387 80.8742 14.7233 80.833 14.7217 80.7898L14.6869 79.227C14.6868 79.1764 14.706 79.1275 14.7404 79.0909C14.7747 79.0542 14.8215 79.0327 14.8706 79.031C14.9194 79.0314 14.966 79.0509 15.0009 79.0855C15.0357 79.1202 15.0564 79.1674 15.0585 79.2176L15.0959 80.7786C15.0951 80.8286 15.0759 80.8767 15.0422 80.9131C15.0085 80.9496 14.9628 80.9717 14.9144 80.9751C14.8986 80.9763 14.8826 80.9753 14.8671 80.972L14.8693 80.9725ZM59.2107 89.5408C59.1683 89.5311 59.1306 89.5068 59.1038 89.4719C59.0769 89.437 59.0625 89.3935 59.0628 89.3487C59.0639 89.2971 59.0847 89.2477 59.1207 89.2113C59.1568 89.1749 59.2051 89.1545 59.2553 89.1545L60.7718 89.1564C60.8199 89.1595 60.8648 89.1813 60.8973 89.2175C60.9299 89.2537 60.9478 89.3015 60.9472 89.3512C60.9467 89.4008 60.9278 89.4487 60.8944 89.485C60.861 89.5213 60.8156 89.5434 60.7674 89.5467L59.2509 89.5448L59.2107 89.5408ZM64.2648 89.5445C64.2224 89.5348 64.1847 89.5104 64.1578 89.4755C64.131 89.4406 64.1165 89.3972 64.1169 89.3523C64.1179 89.3007 64.1387 89.2513 64.1748 89.2149C64.2108 89.1786 64.2592 89.1582 64.3093 89.1582L65.8258 89.16C65.8757 89.161 65.9231 89.182 65.9578 89.2185C65.9925 89.255 66.0119 89.3042 66.0117 89.3557C66.0116 89.3812 66.0065 89.4065 65.9969 89.4301C65.9872 89.4537 65.9731 89.4752 65.9554 89.4933C65.9378 89.5113 65.9168 89.5257 65.8938 89.5355C65.8708 89.5453 65.8462 89.5503 65.8215 89.5503L64.305 89.5484L64.2648 89.5445ZM69.321 89.5486C69.2785 89.5393 69.2405 89.515 69.2136 89.48C69.1866 89.4451 69.1723 89.4014 69.1731 89.3564C69.173 89.3308 69.1778 89.3054 69.1874 89.2817C69.1969 89.2579 69.211 89.2363 69.2288 89.2182C69.2465 89.2 69.2676 89.1857 69.2907 89.176C69.3138 89.1663 69.3385 89.1615 69.3634 89.1618L70.8799 89.1637C70.9296 89.1652 70.9766 89.1863 71.0112 89.2227C71.0458 89.2591 71.0654 89.308 71.0658 89.3593C71.0648 89.4109 71.044 89.4603 71.0079 89.4967C70.9719 89.5331 70.9235 89.5535 70.8734 89.5535L69.3569 89.5516L69.321 89.5486ZM74.3751 89.5522C74.3326 89.5434 74.2946 89.5197 74.2675 89.4851C74.2405 89.4505 74.226 89.4071 74.2267 89.3623C74.2276 89.311 74.2481 89.2618 74.2836 89.2254C74.3192 89.189 74.3671 89.1683 74.4169 89.1677L75.9335 89.1696C75.9834 89.1705 76.0307 89.1915 76.0654 89.228C76.1001 89.2645 76.1195 89.3137 76.1194 89.3652C76.1183 89.4168 76.0975 89.4662 76.0615 89.5026C76.0254 89.539 75.9771 89.5594 75.9269 89.5593L74.4099 89.5597L74.3751 89.5522ZM14.7505 75.7696C14.7089 75.7605 14.6717 75.7372 14.6447 75.7037C14.6176 75.6701 14.6023 75.6281 14.6011 75.5842L14.5659 74.0237C14.5669 73.9734 14.5865 73.9252 14.6206 73.8888C14.6547 73.8524 14.7008 73.8305 14.7496 73.8277C14.7981 73.8291 14.844 73.8489 14.8787 73.8834C14.9134 73.9179 14.9343 73.9645 14.9375 74.0143L14.9722 75.5771C14.9723 75.6277 14.9531 75.6766 14.9188 75.7132C14.8844 75.7499 14.8376 75.7714 14.7885 75.7731L14.7505 75.7696ZM79.4291 89.5558C79.3866 89.5471 79.3486 89.5234 79.3216 89.4887C79.2945 89.4541 79.2801 89.4107 79.2807 89.3659C79.2816 89.3146 79.3021 89.2654 79.3377 89.229C79.3733 89.1926 79.4212 89.1719 79.471 89.1713L80.9875 89.1732C81.0371 89.1753 81.0838 89.1966 81.1182 89.2329C81.1527 89.2691 81.1725 89.3177 81.1734 89.3688C81.1724 89.4204 81.1516 89.4698 81.1155 89.5062C81.0795 89.5426 81.0311 89.563 80.981 89.5629L79.464 89.5633L79.4291 89.5558ZM84.4827 89.5617C84.4371 89.5517 84.397 89.5247 84.37 89.4858C84.3429 89.447 84.3308 89.399 84.3361 89.3511C84.3413 89.3032 84.3635 89.2588 84.3984 89.2263C84.4332 89.1938 84.4783 89.1755 84.525 89.175L86.0421 89.1746C86.0918 89.1761 86.1388 89.1972 86.1734 89.2336C86.208 89.27 86.2276 89.3189 86.228 89.3702C86.2264 89.4216 86.2054 89.4707 86.1695 89.5069C86.1336 89.5432 86.0855 89.5638 86.0355 89.5643L84.519 89.5625L84.4827 89.5617ZM89.5023 89.2068C89.4616 89.1983 89.425 89.1761 89.398 89.1438C89.371 89.1115 89.3552 89.0708 89.353 89.028C89.3509 88.9852 89.3624 88.9427 89.3859 88.907C89.4094 88.8713 89.4436 88.8443 89.4832 88.8303C89.9492 88.6675 90.395 88.4471 90.8108 88.1741C90.8317 88.1567 90.8558 88.144 90.8817 88.1369C90.9075 88.1297 90.9344 88.1282 90.9607 88.1324C90.987 88.1367 91.0121 88.1466 91.0342 88.1616C91.0564 88.1765 91.0752 88.1962 91.0894 88.2192C91.1036 88.2423 91.1129 88.2682 91.1167 88.2953C91.1204 88.3225 91.1186 88.3502 91.1113 88.3767C91.104 88.4032 91.0914 88.4279 91.0743 88.4492C91.0572 88.4705 91.0359 88.4879 91.0119 88.5002C90.5705 88.7917 90.0975 89.0283 89.6031 89.205C89.5694 89.2148 89.5338 89.2153 89.5001 89.2063L89.5023 89.2068ZM14.6295 70.5663C14.588 70.5575 14.5509 70.5344 14.5242 70.5008C14.4974 70.4672 14.4827 70.4251 14.4823 70.3814L14.4449 68.8204C14.4459 68.7701 14.4654 68.7219 14.4996 68.6855C14.5337 68.649 14.5798 68.6272 14.6286 68.6244C14.6772 68.6253 14.7235 68.6449 14.7583 68.6795C14.7931 68.714 14.8138 68.761 14.8164 68.811L14.8512 70.3738C14.8515 70.3989 14.847 70.4239 14.838 70.4474C14.8289 70.4709 14.8155 70.4923 14.7984 70.5105C14.7813 70.5288 14.761 70.5434 14.7385 70.5535C14.716 70.5637 14.6919 70.5692 14.6675 70.5698C14.654 70.5704 14.6404 70.5691 14.6273 70.5658L14.6295 70.5663ZM93.1938 85.8083L93.1524 85.7994C93.1077 85.7779 93.0732 85.7392 93.0562 85.6915C93.0392 85.6438 93.0411 85.5909 93.0614 85.5441C93.2565 85.1226 93.4047 84.6802 93.5032 84.2255L93.5313 84.0949C93.5417 84.0438 93.5713 83.9987 93.6135 83.9695C93.6557 83.9402 93.7071 83.929 93.7567 83.9385C93.8019 83.9547 93.8407 83.9856 93.8672 84.0265C93.8937 84.0675 93.9066 84.1163 93.9039 84.1658L93.8786 84.2829C93.7732 84.7693 93.6153 85.2427 93.4077 85.6942C93.3901 85.7362 93.3588 85.7706 93.3192 85.7913C93.2797 85.8121 93.2345 85.818 93.1916 85.8079L93.1938 85.8083ZM14.5085 65.363C14.467 65.3541 14.4299 65.331 14.4032 65.2974C14.3764 65.2639 14.3617 65.2218 14.3613 65.1781L14.3239 63.617C14.3221 63.5906 14.3255 63.564 14.334 63.5389C14.3425 63.5137 14.3558 63.4906 14.3732 63.4708C14.3906 63.451 14.4117 63.435 14.4351 63.4237C14.4586 63.4125 14.4839 63.4063 14.5097 63.4054C14.5354 63.4046 14.561 63.4091 14.5848 63.4188C14.6087 63.4285 14.6303 63.4431 14.6484 63.4617C14.6664 63.4803 14.6806 63.5026 14.69 63.5271C14.6994 63.5517 14.7038 63.578 14.7029 63.6045L14.7404 65.1656C14.7399 65.216 14.7205 65.2646 14.6863 65.3011C14.652 65.3376 14.6056 65.3593 14.5567 65.3616L14.5085 65.363ZM94.1903 80.7117C94.1444 80.7009 94.1042 80.6729 94.0774 80.6332C94.0506 80.5935 94.0391 80.5449 94.0451 80.4966C94.1095 79.9968 94.1735 79.478 94.2382 78.9452C94.2444 78.8941 94.2701 78.8473 94.3095 78.8151C94.349 78.783 94.3989 78.7681 94.4485 78.7738C94.4981 78.7795 94.5432 78.8053 94.5739 78.8455C94.6046 78.8857 94.6184 78.937 94.6122 78.9882C94.5504 79.5216 94.4865 80.0396 94.4207 80.5422C94.4141 80.5936 94.388 80.6404 94.3482 80.6725C94.3084 80.7045 94.258 80.7192 94.2082 80.7132L94.1903 80.7117ZM14.3766 60.1573C14.3353 60.1481 14.2984 60.1249 14.2717 60.0914C14.2451 60.0579 14.2302 60.016 14.2294 59.9724L14.1941 58.4118C14.1931 58.3604 14.212 58.3103 14.2467 58.2727C14.2813 58.2351 14.3288 58.213 14.3788 58.2113C14.4288 58.2096 14.4771 58.2284 14.5131 58.2636C14.5492 58.2987 14.57 58.3474 14.571 58.3989L14.6085 59.9599C14.6074 60.0102 14.5879 60.0584 14.5538 60.0948C14.5196 60.1312 14.4735 60.1531 14.4247 60.1559L14.3766 60.1573ZM94.7586 75.5274C94.7137 75.517 94.6741 75.4902 94.6472 75.4519C94.6202 75.4137 94.6077 75.3665 94.6119 75.3191C94.6613 74.8081 94.7077 74.2895 94.7513 73.7632C94.7518 73.7364 94.7578 73.71 94.7688 73.6855C94.7797 73.6611 94.7955 73.6393 94.815 73.6213C94.8346 73.6034 94.8574 73.5897 94.8822 73.5813C94.907 73.5729 94.9331 73.5698 94.959 73.5723C94.9849 73.5729 95.0103 73.5789 95.0337 73.59C95.0571 73.601 95.078 73.617 95.0951 73.6368C95.1122 73.6566 95.1251 73.6798 95.1331 73.7051C95.1411 73.7304 95.1439 73.7571 95.1415 73.7837C95.0983 74.3117 95.0501 74.8315 95.0034 75.3446C94.9975 75.3957 94.9727 75.4427 94.934 75.4757C94.8954 75.5087 94.8461 75.5251 94.7964 75.5214L94.7586 75.5274ZM14.2577 54.9544C14.2164 54.9455 14.1793 54.9226 14.1523 54.8895C14.1252 54.8564 14.1096 54.8148 14.1079 54.7713L14.0681 53.0095L15.6944 52.9997C15.7203 52.9979 15.7462 53.0016 15.7705 53.0106C15.7949 53.0196 15.8171 53.0336 15.8358 53.0519C15.8545 53.0701 15.8694 53.0922 15.8794 53.1167C15.8895 53.1412 15.8945 53.1676 15.8942 53.1944C15.8939 53.2211 15.8883 53.2476 15.8777 53.2721C15.8671 53.2967 15.8518 53.3188 15.8326 53.3371C15.8135 53.3555 15.791 53.3696 15.7664 53.3787C15.7419 53.3878 15.7159 53.3916 15.69 53.3899L14.4567 53.3973L14.4875 54.7565C14.4864 54.8068 14.4669 54.8551 14.4328 54.8915C14.3986 54.9279 14.3525 54.9497 14.3037 54.9526L14.2577 54.9544ZM95.1542 70.3295C95.1105 70.3197 95.0717 70.2944 95.0446 70.258C95.0174 70.2216 95.0036 70.1763 95.0056 70.1301C95.0346 69.6148 95.0616 69.0951 95.0864 68.571C95.0856 68.5441 95.0902 68.5173 95.1 68.4921C95.1098 68.467 95.1244 68.4442 95.1431 68.425C95.1618 68.4059 95.184 68.3909 95.2084 68.3809C95.2328 68.371 95.259 68.3663 95.2851 68.3673C95.3112 68.3682 95.3368 68.3746 95.3602 68.3863C95.3837 68.3979 95.4045 68.4144 95.4213 68.4347C95.4381 68.4551 95.4507 68.4789 95.4581 68.5046C95.4655 68.5304 95.4677 68.5575 95.4645 68.5843C95.4408 69.1101 95.4143 69.6315 95.3849 70.1483C95.3842 70.1745 95.3784 70.2003 95.3678 70.2243C95.3572 70.2482 95.342 70.2698 95.3233 70.2878C95.3045 70.3057 95.2825 70.3196 95.2585 70.3287C95.2346 70.3378 95.2091 70.3418 95.1838 70.3406L95.1542 70.3295ZM19.1896 53.367C19.144 53.357 19.1039 53.33 19.0768 53.2911C19.0498 53.2523 19.0377 53.2043 19.043 53.1564C19.0482 53.1085 19.0704 53.0641 19.1052 53.0316C19.1401 52.9991 19.1852 52.9808 19.2319 52.9802L20.7482 52.9726C20.7978 52.9735 20.845 52.994 20.8797 53.0301C20.9145 53.0661 20.9342 53.1148 20.9346 53.166C20.9337 53.2173 20.9132 53.2665 20.8777 53.3029C20.8421 53.3393 20.7942 53.36 20.7444 53.3606L19.2281 53.3682L19.1896 53.367ZM24.2434 53.34C24.2011 53.3308 24.1634 53.307 24.1364 53.2724C24.1094 53.2379 24.0948 53.1947 24.095 53.1501C24.0952 53.1244 24.1004 53.099 24.1102 53.0753C24.1201 53.0516 24.1343 53.0301 24.1523 53.012C24.1702 52.9939 24.1914 52.9796 24.2146 52.97C24.2378 52.9604 24.2626 52.9556 24.2875 52.9559L25.8042 52.9461C25.8523 52.9491 25.8972 52.971 25.9298 53.0072C25.9624 53.0433 25.9802 53.0911 25.9797 53.1408C25.9791 53.1905 25.9602 53.2383 25.9268 53.2747C25.8934 53.311 25.8481 53.333 25.7999 53.3363L24.2836 53.3439C24.2731 53.3446 24.2625 53.3439 24.2521 53.3418L24.2434 53.34ZM29.2972 53.3129C29.2494 53.3057 29.2064 53.2797 29.1772 53.2403C29.148 53.2009 29.1348 53.1512 29.1405 53.1016C29.1462 53.0519 29.1703 53.0062 29.2077 52.9741C29.2451 52.9419 29.293 52.9257 29.3413 52.9289L30.858 52.919C30.908 52.92 30.9553 52.9409 30.99 52.9774C31.0247 53.014 31.0441 53.0632 31.044 53.1146C31.0429 53.1662 31.0221 53.2156 30.9861 53.252C30.95 53.2884 30.9017 53.3088 30.8515 53.3088L29.3353 53.3164C29.3269 53.317 29.3186 53.3168 29.3103 53.3157L29.2972 53.3129ZM34.3532 53.2863C34.3046 53.2804 34.2603 53.2549 34.2301 53.2155C34.1998 53.1761 34.186 53.1258 34.1914 53.0754C34.1969 53.0251 34.2213 52.9787 34.2594 52.9463C34.2975 52.9138 34.3462 52.8978 34.3951 52.9018L35.9114 52.8942C35.9362 52.894 35.9606 52.8989 35.9834 52.9085C36.0062 52.9181 36.0269 52.9324 36.0442 52.9503C36.0615 52.9683 36.0752 52.9897 36.0844 53.0132C36.0936 53.0368 36.0981 53.062 36.0978 53.0876C36.0969 53.1389 36.0764 53.1881 36.0408 53.2245C36.0052 53.2609 35.9574 53.2816 35.9076 53.2822L34.3913 53.2898L34.3532 53.2863ZM39.4066 53.2615C39.3642 53.2518 39.3265 53.2275 39.2996 53.1926C39.2728 53.1577 39.2583 53.1142 39.2587 53.0694C39.2589 53.0439 39.2639 53.0186 39.2736 52.995C39.2832 52.9714 39.2973 52.9499 39.315 52.9318C39.3327 52.9137 39.3536 52.8993 39.3766 52.8896C39.3996 52.8798 39.4242 52.8747 39.449 52.8748L40.9657 52.8649C41.0155 52.8664 41.0625 52.8875 41.0971 52.9239C41.1317 52.9604 41.1512 53.0092 41.1516 53.0605C41.1518 53.0861 41.1469 53.1115 41.1374 53.1353C41.1278 53.159 41.1137 53.1806 41.096 53.1988C41.0782 53.2169 41.0572 53.2313 41.034 53.241C41.0109 53.2506 40.9862 53.2555 40.9614 53.2551L39.4446 53.265L39.4066 53.2615ZM95.3464 65.123C95.3038 65.1137 95.2659 65.0895 95.2389 65.0545C95.212 65.0195 95.1977 64.9758 95.1985 64.9309C95.2051 64.4139 95.2092 63.894 95.2109 63.3712C95.2118 63.3199 95.2323 63.2707 95.2679 63.2343C95.3035 63.1979 95.3514 63.1772 95.4012 63.1766C95.426 63.1764 95.4505 63.1813 95.4733 63.1909C95.4961 63.2006 95.5167 63.2148 95.534 63.2327C95.5513 63.2507 95.565 63.2721 95.5742 63.2956C95.5834 63.3192 95.588 63.3445 95.5876 63.37C95.5859 63.8927 95.5814 64.4141 95.5742 64.9341C95.5732 64.9858 95.5524 65.0352 95.5163 65.0715C95.4803 65.1079 95.4319 65.1283 95.3818 65.1283L95.3464 65.123ZM44.4667 53.2476C44.4215 53.2371 44.3817 53.2098 44.3551 53.1708C44.3285 53.1319 44.3168 53.084 44.3223 53.0363C44.3278 52.9887 44.3501 52.9445 44.3849 52.9122C44.4198 52.88 44.4647 52.8618 44.5112 52.8613L46.0275 52.8537C46.0523 52.8535 46.0767 52.8584 46.0995 52.868C46.1223 52.8777 46.143 52.8919 46.1603 52.9098C46.1777 52.9278 46.1913 52.9492 46.2005 52.9728C46.2097 52.9963 46.2143 53.0216 46.2139 53.0471C46.213 53.0984 46.1926 53.1476 46.157 53.184C46.1214 53.2204 46.0735 53.2411 46.0237 53.2417L44.5074 53.2493L44.4667 53.2476ZM49.5227 53.221C49.4772 53.211 49.437 53.184 49.41 53.1451C49.3829 53.1063 49.3709 53.0583 49.3761 53.0104C49.3813 52.9626 49.4035 52.9181 49.4384 52.8856C49.4733 52.8531 49.5184 52.8348 49.5651 52.8342L51.0813 52.8266C51.1312 52.8269 51.1786 52.8473 51.2135 52.8834C51.2484 52.9196 51.2679 52.9687 51.2677 53.02C51.2661 53.0715 51.2452 53.1205 51.2092 53.1568C51.1733 53.193 51.1253 53.2136 51.0753 53.2142L49.5612 53.2222L49.5227 53.221ZM54.5766 53.194C54.531 53.1839 54.4909 53.1569 54.4638 53.1181C54.4368 53.0792 54.4247 53.0313 54.4299 52.9834C54.4352 52.9355 54.4573 52.891 54.4922 52.8585C54.5271 52.826 54.5722 52.8077 54.6189 52.8072L56.1352 52.7996C56.1841 52.8013 56.2303 52.8224 56.264 52.8585C56.2978 52.8946 56.3165 52.943 56.3162 52.9935C56.3159 53.0439 56.2967 53.0926 56.2625 53.1293C56.2284 53.166 56.182 53.1878 56.133 53.1903L54.6168 53.1979L54.5766 53.194ZM59.6304 53.1669C59.5851 53.1564 59.5454 53.1291 59.5188 53.0901C59.4922 53.0512 59.4805 53.0033 59.486 52.9556C59.4915 52.908 59.5138 52.8638 59.5486 52.8315C59.5834 52.7993 59.6284 52.7811 59.6749 52.7806L61.1912 52.773C61.2393 52.7761 61.2842 52.7979 61.3168 52.8341C61.3494 52.8703 61.3672 52.9181 61.3667 52.9678C61.3661 53.0174 61.3472 53.0653 61.3138 53.1016C61.2804 53.1379 61.235 53.1599 61.1869 53.1632L59.6706 53.1709C59.6572 53.168 59.6445 53.1629 59.6328 53.1556L59.6304 53.1669ZM95.3121 59.9195C95.2711 59.9105 95.2343 59.8877 95.2076 59.8546C95.1809 59.8216 95.1657 59.7801 95.1644 59.7369C95.1483 59.2197 95.1255 58.701 95.1006 58.182C95.1006 58.1324 95.1189 58.0844 95.1518 58.0477C95.1847 58.0111 95.2298 57.9885 95.2778 57.9845C95.3262 57.9827 95.3731 58.0006 95.4085 58.0342C95.4439 58.0678 95.465 58.1145 95.4671 58.1644C95.494 58.6886 95.516 59.2102 95.5333 59.7292C95.533 59.7794 95.514 59.8277 95.4802 59.8643C95.4464 59.9009 95.4005 59.9229 95.3518 59.9258L95.3121 59.9195ZM64.6867 53.1286C64.6445 53.1198 64.6067 53.096 64.5801 53.0615C64.5534 53.0269 64.5394 52.9836 64.5404 52.9392C64.5413 52.8878 64.5618 52.8387 64.5974 52.8023C64.633 52.7658 64.6809 52.7451 64.7307 52.7445L66.247 52.7369C66.2729 52.7352 66.2988 52.7389 66.3231 52.7479C66.3475 52.7568 66.3697 52.7709 66.3884 52.7891C66.4071 52.8074 66.422 52.8295 66.432 52.854C66.442 52.8785 66.4471 52.9049 66.4468 52.9316C66.4465 52.9584 66.4409 52.9848 66.4303 53.0094C66.4197 53.0339 66.4044 53.0561 66.3852 53.0744C66.3661 53.0927 66.3436 53.1069 66.319 53.1159C66.2945 53.125 66.2685 53.1289 66.2426 53.1272L64.7264 53.1348C64.7128 53.1358 64.6992 53.1344 64.6862 53.1308L64.6867 53.1286ZM69.7427 53.102C69.7002 53.0932 69.6622 53.0695 69.6351 53.0349C69.608 53.0002 69.5936 52.9569 69.5943 52.9121C69.5941 52.8865 69.599 52.8611 69.6085 52.8373C69.6181 52.8136 69.6322 52.792 69.6499 52.7738C69.6677 52.7557 69.6887 52.7413 69.7118 52.7317C69.735 52.722 69.7597 52.7172 69.7845 52.7175L71.3013 52.7076C71.351 52.7091 71.398 52.7303 71.4326 52.7667C71.4672 52.8031 71.4868 52.852 71.4872 52.9033C71.487 52.9288 71.482 52.9541 71.4723 52.9777C71.4627 53.0013 71.4486 53.0228 71.4309 53.0408C71.4132 53.0589 71.3923 53.0733 71.3693 53.0831C71.3463 53.0929 71.3217 53.0979 71.2969 53.0979L69.7807 53.1055C69.7679 53.1064 69.7551 53.1052 69.7427 53.102ZM74.7965 53.075C74.7542 53.0658 74.7164 53.042 74.6894 53.0074C74.6624 52.9729 74.6479 52.9297 74.6481 52.8851C74.6483 52.8595 74.6533 52.8343 74.663 52.8107C74.6726 52.787 74.6867 52.7656 74.7044 52.7475C74.7221 52.7294 74.743 52.715 74.766 52.7052C74.789 52.6954 74.8136 52.6904 74.8384 52.6904L76.3546 52.6828C76.3802 52.6816 76.4057 52.6856 76.4295 52.6947C76.4534 52.7039 76.4752 52.7179 76.4935 52.736C76.5119 52.7541 76.5264 52.7759 76.5363 52.8001C76.5462 52.8242 76.5512 52.8503 76.5511 52.8766C76.551 52.9029 76.5457 52.9291 76.5355 52.9534C76.5253 52.9777 76.5105 52.9997 76.492 53.0181C76.4734 53.0365 76.4515 53.0509 76.4275 53.0604C76.4036 53.07 76.378 53.0744 76.3525 53.0735L74.8367 53.0789C74.8231 53.0799 74.8096 53.0786 74.7965 53.075ZM79.8498 53.0502C79.8075 53.0404 79.7698 53.0161 79.7429 52.9812C79.716 52.9463 79.7016 52.9028 79.7019 52.858C79.703 52.8064 79.7238 52.757 79.7598 52.7206C79.7959 52.6842 79.8442 52.6638 79.8944 52.6639L81.4111 52.654C81.461 52.655 81.5084 52.6759 81.5431 52.7124C81.5778 52.749 81.5972 52.7981 81.597 52.8496C81.5972 52.8752 81.5923 52.9006 81.5828 52.9244C81.5732 52.9482 81.5592 52.9697 81.5414 52.9879C81.5237 53.0061 81.5026 53.0204 81.4795 53.0301C81.4563 53.0397 81.4316 53.0446 81.4068 53.0442L79.89 53.0541L79.8498 53.0502ZM84.9058 53.0236C84.8603 53.0136 84.8201 52.9865 84.7931 52.9477C84.766 52.9088 84.754 52.8609 84.7592 52.813C84.7645 52.7651 84.7866 52.7207 84.8215 52.6882C84.8564 52.6556 84.9015 52.6374 84.9482 52.6368L86.4645 52.6292C86.5143 52.6294 86.5618 52.6498 86.5966 52.686C86.6315 52.7222 86.651 52.7712 86.6508 52.8225C86.6493 52.874 86.6283 52.9231 86.5923 52.9593C86.5564 52.9956 86.5084 53.0161 86.4584 53.0167L84.9422 53.0243L84.9058 53.0236ZM94.9947 54.7281C94.9555 54.7193 94.9203 54.6981 94.8937 54.6674C94.8672 54.6368 94.8508 54.5982 94.8467 54.5571C94.7986 54.0401 94.7478 53.5248 94.6877 53.01C94.6819 52.9584 94.6962 52.9063 94.7276 52.8651C94.7589 52.8239 94.8047 52.797 94.8548 52.7903C94.905 52.7836 94.9554 52.7977 94.995 52.8294C95.0345 52.8612 95.06 52.908 95.0658 52.9595C95.1232 53.4762 95.1753 53.9964 95.2229 54.5157C95.2277 54.5671 95.2126 54.6186 95.1808 54.6589C95.149 54.6993 95.1032 54.7253 95.0533 54.7313C95.0338 54.7303 95.0147 54.7262 94.9966 54.719L94.9947 54.7281ZM89.9597 52.9965C89.9141 52.9865 89.874 52.9595 89.8469 52.9206C89.8199 52.8818 89.8078 52.8338 89.813 52.7859C89.8183 52.738 89.8404 52.6936 89.8753 52.6611C89.9102 52.6286 89.9553 52.6103 90.002 52.6097L91.5183 52.6021C91.5678 52.6035 91.6146 52.6243 91.6492 52.6602C91.6839 52.6962 91.7037 52.7445 91.7047 52.7955C91.7038 52.8468 91.6834 52.896 91.6478 52.9324C91.6122 52.9688 91.5643 52.9895 91.5144 52.9901L89.9982 52.9977L89.9597 52.9965Z" fill="#BDD0FB"/>
<path d="M32.0778 32.1173L32.3098 29.8886C32.425 29.6261 32.6015 29.3964 32.8235 29.2204C33.0455 29.0445 33.3058 28.9278 33.581 28.8809C35.6783 28.5272 40.8654 27.8927 43.3599 29.8116L43.7136 32.4022L32.0778 32.1173Z" fill="url(#paint1_linear_2207_7149)"/>
<path d="M38.6385 29.9385C38.1613 30.0617 37.6637 30.0636 37.1888 29.944C36.9051 29.874 36.6536 29.7077 36.4746 29.4717C36.2956 29.2358 36.1994 28.9438 36.2012 28.6423L36.2563 21.6601L39.7071 21.6408L39.6504 28.6203C39.6477 28.923 39.5466 29.2174 39.3631 29.4564C39.1797 29.6954 38.9245 29.8652 38.6385 29.9385Z" fill="url(#paint2_linear_2207_7149)"/>
<path d="M65.4948 31.9413L65.7159 29.7103C65.8307 29.4475 66.0072 29.2176 66.2292 29.0416C66.4513 28.8656 66.7118 28.749 66.9871 28.7025C69.0822 28.3484 74.2715 27.7143 76.766 29.6332L77.1197 32.2239L65.4948 31.9413Z" fill="url(#paint3_linear_2207_7149)"/>
<path d="M72.0547 29.7624C71.5775 29.8856 71.0799 29.8874 70.605 29.7679C70.3214 29.6978 70.0699 29.5316 69.8909 29.2956C69.7119 29.0597 69.6156 28.7676 69.6175 28.4662L69.685 20.7491L73.1359 20.7298L73.0688 28.4447C73.0659 28.7476 72.9644 29.0421 72.7806 29.2811C72.5967 29.52 72.3411 29.6895 72.0547 29.7624Z" fill="url(#paint4_linear_2207_7149)"/>
<path d="M35.8935 23.3729L73.0064 21.9131C73.4155 21.8995 73.8096 21.7417 74.1227 21.4661C74.4358 21.1904 74.649 20.8137 74.7267 20.3989C75.0226 18.7979 75.0744 17.1624 74.8802 15.5517C74.735 14.5263 74.2425 13.5915 73.4895 12.9118C72.7364 12.2321 71.7711 11.8511 70.7635 11.836C63.844 11.7035 46.2223 11.8008 36.4798 15.81C35.9729 16.0183 35.5203 16.3482 35.1602 16.7721C34.8 17.1959 34.5428 17.7013 34.4102 18.2457C34.0804 19.5166 34.039 20.8448 34.2894 22.1268C34.374 22.495 34.5798 22.8201 34.8721 23.0472C35.1644 23.2742 35.5252 23.3893 35.8935 23.3729Z" fill="url(#paint5_linear_2207_7149)"/>
<path d="M35.1568 21.7316C35.0527 21.7087 34.9587 21.6524 34.8882 21.5708C34.8178 21.4891 34.7744 21.3863 34.7644 21.277C34.6919 20.2688 34.7785 19.2529 35.0208 18.2688C35.1805 17.6886 35.4807 17.1579 35.893 16.7268C36.3052 16.2958 36.816 15.9787 37.3769 15.8054C39.4654 15.1648 43.4531 14.0736 46.7211 13.9607C46.8498 13.9646 46.9715 14.0188 47.0616 14.1124C47.1517 14.206 47.2034 14.3318 47.2062 14.4644C47.2089 14.597 47.1626 14.7264 47.0765 14.8263C46.9905 14.9262 46.8711 14.9891 46.7428 15.0022C43.4704 15.1142 39.2965 16.2972 37.6503 16.8117C37.2551 16.9331 36.8951 17.1558 36.6043 17.4588C36.3135 17.7617 36.1014 18.135 35.9881 18.5434C35.7795 19.4055 35.704 20.2943 35.7646 21.1769C35.7766 21.3142 35.7354 21.4516 35.6498 21.559C35.5642 21.6664 35.4413 21.7351 35.3079 21.75C35.2568 21.7513 35.206 21.7451 35.1568 21.7316Z" fill="#91B3FA"/>
<path d="M14.8704 31.3404C26.8594 31.1194 78.7169 30.285 93.7664 32.0767C94.3969 32.1503 94.987 32.4238 95.4556 32.8595C95.9241 33.2953 96.2481 33.8718 96.3828 34.5096C97.2392 38.6509 98.9534 48.2604 98.6564 57.8132C98.6337 58.4459 98.4007 59.0542 97.9965 59.5363C97.5923 60.0184 97.0414 60.345 96.4361 60.4614L61.9997 67.3434L49.7867 67.4077L13.2119 60.0996C12.5868 59.9771 12.022 59.6424 11.6074 59.1487C11.1927 58.655 10.9519 58.0305 10.9233 57.3744C10.7245 52.5737 10.442 41.3077 11.7611 34.049C11.8969 33.2994 12.2818 32.6186 12.8494 32.1241C13.4171 31.6296 14.1318 31.3524 14.8704 31.3404Z" fill="url(#paint6_linear_2207_7149)"/>
<path d="M13.9373 57.329C13.8891 57.318 13.8472 57.2879 13.8206 57.2452C13.794 57.2024 13.7848 57.1505 13.795 57.1004C13.7996 57.0751 13.809 57.0509 13.8227 57.0293C13.8365 57.0077 13.8543 56.9892 13.8751 56.9747C13.8959 56.9603 13.9192 56.9503 13.9437 56.9453C13.9682 56.9403 13.9934 56.9405 14.0177 56.9457L15.5026 57.2424C15.5515 57.2523 15.5943 57.2817 15.6219 57.3243C15.6494 57.3669 15.6594 57.4191 15.6497 57.4697C15.6394 57.5205 15.6103 57.5653 15.5686 57.5946C15.5269 57.6239 15.4759 57.6354 15.4265 57.6266L13.9417 57.3299L13.9373 57.329ZM18.8886 58.3167C18.8444 58.3018 18.8072 58.2705 18.7842 58.2288C18.7613 58.1871 18.7543 58.138 18.7645 58.0908C18.7746 58.0436 18.8013 58.0017 18.8394 57.9732C18.8774 57.9447 18.9242 57.9315 18.9707 57.9361L20.456 58.2306C20.5043 58.2416 20.5462 58.2717 20.5728 58.3144C20.5994 58.3571 20.6086 58.4091 20.5984 58.4592C20.5938 58.4845 20.5844 58.5087 20.5706 58.5302C20.5569 58.5518 20.5391 58.5704 20.5183 58.5848C20.4975 58.5993 20.4742 58.6093 20.4497 58.6142C20.4251 58.6192 20.4 58.6191 20.3757 58.6138L18.8908 58.3172L18.8886 58.3167ZM23.8373 59.3062C23.7882 59.2956 23.7454 59.2653 23.7184 59.2219C23.6914 59.1785 23.6823 59.1256 23.6933 59.0748C23.7042 59.0241 23.7343 58.9796 23.7768 58.9512C23.8192 58.9228 23.8707 58.9128 23.9199 58.9234L25.4047 59.22C25.4298 59.2234 25.4539 59.2323 25.4754 59.2461C25.4968 59.2598 25.515 59.2782 25.5289 59.2999C25.5428 59.3217 25.552 59.3462 25.5559 59.3721C25.5597 59.3979 25.5582 59.4243 25.5514 59.4496C25.5405 59.5002 25.5108 59.5447 25.4688 59.5735C25.4268 59.6023 25.3757 59.6132 25.3265 59.6038L23.8416 59.3071L23.8373 59.3062ZM28.786 60.2957C28.7368 60.2851 28.694 60.2547 28.667 60.2113C28.64 60.1679 28.631 60.1151 28.6419 60.0643C28.6529 60.0135 28.6829 59.9691 28.7254 59.9407C28.7679 59.9123 28.8194 59.9023 28.8685 59.9129L30.3534 60.2095C30.4009 60.2219 30.4421 60.2519 30.4692 60.2938C30.4963 60.3357 30.5075 60.3866 30.5005 60.4368C30.4901 60.488 30.4606 60.533 30.4184 60.5623C30.3762 60.5916 30.3248 60.6027 30.2752 60.5933L28.7903 60.2966L28.786 60.2957ZM33.7351 61.2829C33.7086 61.2802 33.683 61.2718 33.66 61.2582C33.637 61.2447 33.6171 61.2262 33.6016 61.2041C33.5861 61.182 33.5754 61.1567 33.57 61.1298C33.5647 61.103 33.565 61.0752 33.5708 61.0483C33.5766 61.0214 33.5878 60.996 33.6037 60.9738C33.6196 60.9515 33.6398 60.9329 33.6631 60.9191C33.6863 60.9053 33.7121 60.8967 33.7386 60.8938C33.7652 60.891 33.7919 60.8938 33.8172 60.9023L35.302 61.199C35.3504 61.2094 35.3927 61.239 35.4198 61.2814C35.4469 61.3238 35.4566 61.3756 35.447 61.4258C35.4366 61.4769 35.4071 61.522 35.3649 61.5513C35.3227 61.5806 35.2712 61.5917 35.2216 61.5823L33.7372 61.2834L33.7351 61.2829ZM38.6838 62.2724C38.6356 62.262 38.5935 62.2324 38.5668 62.19C38.5401 62.1476 38.5308 62.0959 38.5409 62.046C38.5458 62.0207 38.5554 61.9966 38.5692 61.975C38.5831 61.9535 38.6009 61.9349 38.6216 61.9203C38.6423 61.9058 38.6656 61.8955 38.69 61.8901C38.7145 61.8848 38.7397 61.8844 38.7641 61.8891L40.249 62.1858C40.274 62.1895 40.2979 62.1986 40.3191 62.2124C40.3403 62.2263 40.3584 62.2446 40.3723 62.2663C40.3861 62.2879 40.3953 62.3124 40.3993 62.3381C40.4033 62.3637 40.4021 62.39 40.3956 62.4153C40.3854 62.4658 40.3562 62.5104 40.3145 62.5393C40.2728 62.5683 40.222 62.5793 40.173 62.57L38.6881 62.2733L38.6838 62.2724ZM43.6346 63.2623C43.6103 63.2574 43.5872 63.2475 43.5668 63.2333C43.5464 63.2191 43.5289 63.2008 43.5155 63.1795C43.502 63.1582 43.4929 63.1343 43.4885 63.1092C43.4842 63.084 43.4847 63.0582 43.4901 63.0332C43.5004 62.9827 43.5295 62.9381 43.5712 62.9092C43.6129 62.8802 43.6638 62.8693 43.7128 62.8786L45.1976 63.1752C45.2909 63.2189 45.3671 63.299 45.3443 63.4048C45.3395 63.43 45.3299 63.4539 45.316 63.4754C45.3022 63.4968 45.2844 63.5152 45.2637 63.5296C45.243 63.544 45.2197 63.554 45.1954 63.5592C45.171 63.5643 45.1459 63.5644 45.1216 63.5594L43.6367 63.2628L43.6346 63.2623ZM48.5832 64.2518C48.5347 64.2407 48.4926 64.2107 48.4656 64.1679C48.4387 64.1252 48.429 64.0731 48.4387 64.0227C48.4436 63.9973 48.4533 63.9732 48.4673 63.9517C48.4813 63.9301 48.4993 63.9116 48.5203 63.8972C48.5412 63.8829 48.5647 63.8729 48.5893 63.868C48.6139 63.8631 48.6392 63.8632 48.6636 63.8685L50.1485 64.1652C50.1731 64.1692 50.1966 64.1784 50.2176 64.1922C50.2385 64.206 50.2564 64.2241 50.2702 64.2454C50.284 64.2667 50.2934 64.2907 50.2977 64.316C50.3021 64.3413 50.3014 64.3673 50.2956 64.3925C50.2852 64.4436 50.2557 64.4887 50.2135 64.518C50.1713 64.5473 50.1199 64.5584 50.0703 64.5489L48.5854 64.2523L48.5832 64.2518ZM52.2308 64.5365C52.1853 64.5265 52.1451 64.4995 52.1181 64.4606C52.091 64.4218 52.079 64.3738 52.0842 64.3259C52.0895 64.278 52.1116 64.2336 52.1465 64.2011C52.1814 64.1686 52.2265 64.1503 52.2732 64.1497L53.7895 64.1421C53.815 64.1408 53.8405 64.1449 53.8644 64.154C53.8882 64.1632 53.91 64.1772 53.9284 64.1953C53.9467 64.2134 53.9613 64.2352 53.9712 64.2594C53.981 64.2835 53.9861 64.3096 53.9859 64.3359C53.9858 64.3623 53.9805 64.3884 53.9703 64.4127C53.9601 64.437 53.9454 64.459 53.9268 64.4774C53.9082 64.4958 53.8863 64.5102 53.8624 64.5197C53.8384 64.5292 53.8129 64.5337 53.7873 64.5328L52.271 64.5405L52.2308 64.5365ZM57.2847 64.5095C57.2391 64.4994 57.199 64.4724 57.1719 64.4336C57.1449 64.3947 57.1328 64.3467 57.138 64.2989C57.1433 64.251 57.1655 64.2065 57.2003 64.174C57.2352 64.1415 57.2803 64.1233 57.327 64.1227L58.8433 64.1151C58.8689 64.1138 58.8943 64.1178 58.9182 64.127C58.9421 64.1361 58.9638 64.1502 58.9822 64.1683C59.0005 64.1864 59.0151 64.2082 59.025 64.2323C59.0349 64.2565 59.0399 64.2825 59.0397 64.3089C59.0396 64.3352 59.0343 64.3613 59.0241 64.3856C59.014 64.4099 58.9992 64.432 58.9806 64.4504C58.9621 64.4687 58.9402 64.4831 58.9162 64.4927C58.8922 64.5022 58.8667 64.5067 58.8411 64.5058L57.3249 64.5134L57.2847 64.5095ZM62.3344 64.3637C62.2921 64.3541 62.2544 64.3298 62.2276 64.2949C62.2009 64.2599 62.1868 64.2163 62.1876 64.1715C62.1885 64.1267 62.2042 64.0833 62.2323 64.0486C62.2603 64.014 62.2989 63.9902 62.3417 63.9811L63.8339 63.6832C63.8812 63.6779 63.9285 63.691 63.9665 63.72C64.0044 63.749 64.0302 63.7917 64.0388 63.8398C64.0474 63.8878 64.038 63.9377 64.0127 63.9795C63.9874 64.0213 63.9479 64.052 63.902 64.0655L62.4093 64.3657C62.3829 64.3696 62.356 64.3686 62.3301 64.3627L62.3344 64.3637ZM13.737 53.7628C13.6958 53.7542 13.6588 53.7314 13.632 53.6983C13.6052 53.6652 13.5902 53.6236 13.5893 53.5802C13.5762 53.0801 13.5659 52.5571 13.5572 52.0156C13.5563 51.9635 13.5756 51.913 13.6107 51.875C13.6458 51.8371 13.694 51.8149 13.7445 51.8133C13.7951 51.8117 13.8439 51.8308 13.8803 51.8665C13.9166 51.9022 13.9376 51.9515 13.9384 52.0036C13.9449 52.5446 13.9553 53.0676 13.9667 53.5649C13.9668 53.6155 13.9476 53.6644 13.9132 53.7011C13.8789 53.7377 13.8321 53.7592 13.783 53.761L13.737 53.7628ZM67.3071 63.3695C67.2648 63.3599 67.2271 63.3356 67.2003 63.3006C67.1736 63.2656 67.1595 63.2221 67.1603 63.1773C67.1612 63.1324 67.1769 63.0891 67.205 63.0545C67.233 63.0198 67.2717 62.996 67.3144 62.9869L68.8066 62.689C68.8539 62.6836 68.9012 62.6967 68.9392 62.7257C68.9771 62.7547 69.003 62.7975 69.0115 62.8455C69.0201 62.8936 69.0108 62.9435 68.9854 62.9853C68.9601 63.0271 68.9206 63.0578 68.8747 63.0713L67.3825 63.3692C67.3562 63.3753 67.3289 63.3751 67.3028 63.3686L67.3071 63.3695ZM72.282 62.3757C72.2455 62.3683 72.2121 62.3497 72.1863 62.3222C72.1605 62.2948 72.1434 62.2599 72.1373 62.222C72.1285 62.1713 72.1395 62.1188 72.1679 62.076C72.1964 62.0331 72.24 62.0033 72.2893 61.9932L73.7815 61.6952C73.8288 61.6899 73.8761 61.703 73.9141 61.732C73.952 61.761 73.9778 61.8038 73.9864 61.8518C73.995 61.8999 73.9857 61.9498 73.9603 61.9916C73.935 62.0334 73.8955 62.064 73.8496 62.0775L72.3574 62.3755C72.3311 62.3816 72.3038 62.3814 72.2777 62.3748L72.282 62.3757ZM13.6733 48.5577C13.6311 48.5489 13.5935 48.5252 13.5668 48.4906C13.5401 48.4561 13.5261 48.4128 13.5272 48.3683C13.5287 47.8534 13.5332 47.332 13.5406 46.8041C13.5422 46.7527 13.5631 46.7036 13.5991 46.6674C13.635 46.6312 13.683 46.6105 13.733 46.61C13.7826 46.612 13.8293 46.6334 13.8638 46.6697C13.8982 46.7059 13.918 46.7545 13.9189 46.8056C13.9104 47.3316 13.905 47.8536 13.9016 48.3666C13.9007 48.4179 13.8803 48.4671 13.8447 48.5035C13.8091 48.5399 13.7612 48.5607 13.7114 48.5612L13.6733 48.5577ZM77.2446 61.3864C77.208 61.3785 77.1745 61.3597 77.1484 61.3323C77.1223 61.3048 77.1046 61.2701 77.0976 61.2322C77.089 61.1812 77.1004 61.1286 77.1293 61.0858C77.1582 61.0429 77.2023 61.0135 77.2518 61.0038L78.744 60.7059C78.7696 60.6978 78.7965 60.6954 78.8229 60.6988C78.8493 60.7021 78.8747 60.7112 78.8973 60.7253C78.92 60.7395 78.9394 60.7585 78.9544 60.781C78.9693 60.8035 78.9795 60.8291 78.9841 60.8561C78.9888 60.8831 78.9879 60.9108 78.9814 60.9376C78.975 60.9643 78.9631 60.9894 78.9467 61.0113C78.9303 61.0331 78.9096 61.0512 78.886 61.0644C78.8625 61.0776 78.8365 61.0855 78.8099 61.0877L77.3177 61.3857C77.2959 61.3888 77.2737 61.3872 77.2526 61.3811L77.2446 61.3864ZM82.2173 60.3922C82.1749 60.3826 82.1372 60.3583 82.1105 60.3233C82.0838 60.2883 82.0696 60.2448 82.0705 60.2C82.0713 60.1552 82.0871 60.1118 82.1151 60.0771C82.1432 60.0425 82.1818 60.0187 82.2246 60.0096L83.7168 59.7117C83.7641 59.7063 83.8114 59.7195 83.8494 59.7485C83.8873 59.7774 83.9131 59.8202 83.9217 59.8683C83.9302 59.9163 83.9209 59.9662 83.8956 60.008C83.8702 60.0498 83.8307 60.0805 83.7848 60.094L82.2926 60.3919C82.27 60.3948 82.2472 60.393 82.2253 60.3868L82.2173 60.3922ZM87.1922 59.3984C87.1557 59.3903 87.1224 59.3713 87.0963 59.344C87.0702 59.3166 87.0525 59.282 87.0453 59.2442C87.0366 59.1933 87.048 59.1406 87.0769 59.0978C87.1058 59.055 87.1499 59.0255 87.1994 59.0159L88.6916 58.7179C88.739 58.7126 88.7863 58.7257 88.8243 58.7547C88.8622 58.7837 88.888 58.8264 88.8965 58.8745C88.9051 58.9226 88.8958 58.9724 88.8705 59.0142C88.8451 59.056 88.8056 59.0867 88.7598 59.1002L87.2675 59.3982C87.2449 59.4035 87.2215 59.404 87.1988 59.3998L87.1922 59.3984ZM13.7824 43.3451C13.7393 43.3355 13.701 43.3105 13.6742 43.2746C13.6473 43.2387 13.6337 43.1941 13.6355 43.1485C13.6575 42.6238 13.6841 42.1017 13.7156 41.5822C13.716 41.5559 13.7216 41.5299 13.7321 41.5058C13.7426 41.4817 13.7577 41.46 13.7765 41.442C13.7953 41.424 13.8175 41.4101 13.8416 41.4011C13.8657 41.3922 13.8912 41.3884 13.9167 41.3899C13.942 41.3906 13.9669 41.3965 13.9899 41.4072C14.0128 41.4179 14.0335 41.4332 14.0506 41.4522C14.0677 41.4712 14.0809 41.4936 14.0895 41.518C14.0981 41.5424 14.1019 41.5684 14.1007 41.5945C14.0713 42.1113 14.0454 42.6336 14.0221 43.1541C14.0214 43.1801 14.0157 43.2058 14.0053 43.2297C13.9948 43.2535 13.9799 43.2751 13.9614 43.293C13.9429 43.311 13.9211 43.325 13.8973 43.3342C13.8736 43.3435 13.8484 43.3478 13.8231 43.3468L13.7824 43.3451ZM92.1562 58.4023C92.1201 58.3941 92.0871 58.3751 92.0614 58.3479C92.0357 58.3206 92.0184 58.2861 92.0115 58.2486C92.0026 58.1979 92.0136 58.1454 92.0421 58.1025C92.0706 58.0597 92.1142 58.0299 92.1634 58.0198L93.6561 57.7196C93.7059 57.7112 93.7566 57.7227 93.7978 57.7517C93.8391 57.7808 93.8678 57.8252 93.8779 57.8758C93.8866 57.9268 93.8752 57.9794 93.8463 58.0222C93.8173 58.065 93.7733 58.0945 93.7237 58.1041L92.2315 58.4021C92.2119 58.4044 92.1921 58.4033 92.1729 58.3989L92.1562 58.4023ZM95.6727 56.1538C95.6304 56.1447 95.5926 56.1208 95.5656 56.0863C95.5386 56.0517 95.524 56.0086 95.5243 55.9639C95.5272 55.443 95.5235 54.9238 95.5135 54.4063C95.5135 54.3554 95.5331 54.3063 95.5679 54.2697C95.6027 54.2331 95.6499 54.2119 95.6993 54.2107C95.7238 54.2101 95.748 54.2144 95.7707 54.2234C95.7934 54.2324 95.814 54.246 95.8315 54.2633C95.8489 54.2807 95.8628 54.3014 95.8724 54.3244C95.882 54.3474 95.887 54.3722 95.8872 54.3973C95.8974 54.9211 95.9011 55.4435 95.8983 55.9644C95.8974 56.0158 95.8769 56.065 95.8413 56.1014C95.8057 56.1378 95.7579 56.1585 95.708 56.1591L95.6727 56.1538ZM14.1514 38.1438C14.106 38.1343 14.0659 38.1077 14.0388 38.0692C14.0117 38.0307 13.9996 37.983 14.0048 37.9354C14.0603 37.403 14.1225 36.8815 14.1906 36.3754C14.194 36.3498 14.2022 36.3251 14.2148 36.3027C14.2274 36.2802 14.2442 36.2605 14.2641 36.2446C14.2841 36.2288 14.3068 36.2171 14.3311 36.2103C14.3553 36.2035 14.3805 36.2017 14.4053 36.2049C14.43 36.208 14.4538 36.2161 14.4753 36.2288C14.4968 36.2415 14.5156 36.2585 14.5305 36.2789C14.5454 36.2992 14.5562 36.3225 14.5623 36.3473C14.5684 36.3721 14.5696 36.3979 14.5658 36.4234C14.4987 36.925 14.4369 37.4442 14.3824 37.9721C14.3759 38.0233 14.3505 38.0702 14.3116 38.103C14.2726 38.1359 14.2231 38.1522 14.1732 38.1485L14.1514 38.1438ZM16.2926 34.5618C16.2508 34.5522 16.2136 34.5283 16.187 34.4939C16.1605 34.4595 16.1461 34.4166 16.1464 34.3724C16.1466 34.3212 16.1665 34.2719 16.2017 34.2353C16.237 34.1987 16.2847 34.1778 16.3344 34.1773L17.8524 34.1512C17.8789 34.148 17.9056 34.1505 17.9308 34.1586C17.9561 34.1667 17.9794 34.1802 17.9992 34.1982C18.0189 34.2163 18.0347 34.2384 18.0455 34.2633C18.0564 34.2881 18.062 34.3151 18.062 34.3425C18.0621 34.3698 18.0565 34.397 18.0458 34.4222C18.035 34.4473 18.0192 34.47 17.9995 34.4886C17.9798 34.5072 17.9566 34.5215 17.9313 34.5303C17.9061 34.5392 17.8794 34.5425 17.8529 34.5401L16.335 34.5662C16.3239 34.5646 16.313 34.5615 16.3027 34.5569L16.2926 34.5618ZM95.5282 50.9431C95.4881 50.9349 95.4519 50.9133 95.4253 50.8816C95.3987 50.8498 95.3832 50.8097 95.3812 50.7676C95.3481 50.2444 95.314 49.7257 95.274 49.2128C95.27 49.1863 95.2714 49.1591 95.278 49.133C95.2847 49.1069 95.2965 49.0825 95.3126 49.0611C95.3288 49.0398 95.3491 49.0221 95.3721 49.0091C95.3951 48.9961 95.4204 48.9881 95.4464 48.9856C95.4724 48.9831 95.4986 48.9861 95.5233 48.9945C95.548 49.0029 95.5707 49.0165 95.5899 49.0344C95.6091 49.0523 95.6245 49.0741 95.6351 49.0986C95.6457 49.123 95.6512 49.1495 95.6514 49.1763C95.6925 49.6911 95.7285 50.2118 95.7594 50.7384C95.7595 50.7877 95.7415 50.8355 95.7091 50.8722C95.6766 50.9089 95.6321 50.9318 95.5844 50.9363L95.5282 50.9431ZM21.3525 34.4748C21.3086 34.4635 21.2702 34.4364 21.2444 34.3982C21.2186 34.3601 21.2071 34.3135 21.2119 34.267C21.2167 34.2204 21.2375 34.1769 21.2706 34.1444C21.3037 34.1119 21.3468 34.0925 21.3922 34.0898L22.9097 34.066C22.96 34.0653 23.0083 34.0852 23.044 34.1214C23.0796 34.1576 23.0996 34.207 23.0996 34.2589C23.0996 34.3108 23.0796 34.3608 23.044 34.398C23.0084 34.4352 22.9601 34.4564 22.9097 34.4571L21.3927 34.4787C21.3823 34.4779 21.372 34.4757 21.3622 34.4722L21.3525 34.4748ZM26.409 34.4036C26.3631 34.3941 26.3225 34.3673 26.295 34.3286C26.2675 34.2898 26.2551 34.2417 26.2601 34.1936C26.2651 34.1455 26.2871 34.1008 26.3221 34.068C26.357 34.0353 26.4023 34.0169 26.4492 34.0163L27.9386 33.9958C27.9908 33.9947 28.0411 34.0144 28.0791 34.0506C28.1172 34.0869 28.14 34.1371 28.1429 34.1907C28.144 34.2156 28.1403 34.2405 28.132 34.2639C28.1236 34.2874 28.1108 34.309 28.0943 34.3274C28.0778 34.3458 28.0579 34.3607 28.0358 34.3711C28.0137 34.3815 27.9899 34.3873 27.9657 34.3881L26.4492 34.4075L26.409 34.4036ZM31.4641 34.3391C31.4185 34.329 31.3784 34.302 31.3513 34.2632C31.3243 34.2243 31.3122 34.1763 31.3174 34.1285C31.3227 34.0806 31.3449 34.0361 31.3797 34.0036C31.4146 33.9711 31.4597 33.9528 31.5064 33.9523L33.0246 33.9357C33.0743 33.9365 33.1214 33.9571 33.1562 33.9931C33.1909 34.0292 33.2106 34.0779 33.211 34.129C33.2101 34.1804 33.1897 34.2295 33.1541 34.266C33.1185 34.3024 33.0706 34.3231 33.0208 34.3237L31.5048 34.3408L31.4641 34.3391ZM36.5211 34.2868C36.4755 34.2768 36.4354 34.2497 36.4083 34.2109C36.3813 34.172 36.3692 34.1241 36.3744 34.0762C36.3797 34.0283 36.4019 33.9838 36.4367 33.9513C36.4716 33.9188 36.5167 33.9006 36.5634 33.9L38.0806 33.8879C38.1307 33.8874 38.1785 33.9074 38.2137 33.9435C38.2489 33.9796 38.2686 34.0288 38.2684 34.0803C38.2682 34.1319 38.2481 34.1815 38.2126 34.2182C38.1771 34.255 38.129 34.2759 38.079 34.2763L36.5613 34.2907L36.5211 34.2868ZM41.5778 34.2462C41.5322 34.2362 41.4921 34.2092 41.4651 34.1703C41.438 34.1314 41.4259 34.0835 41.4312 34.0356C41.4364 33.9877 41.4586 33.9433 41.4935 33.9108C41.5283 33.8783 41.5734 33.86 41.6201 33.8594L43.1369 33.8496C43.1625 33.8483 43.188 33.8524 43.2118 33.8615C43.2357 33.8706 43.2574 33.8847 43.2758 33.9028C43.2941 33.9209 43.3087 33.9426 43.3186 33.9668C43.3285 33.991 43.3335 34.017 43.3334 34.0433C43.3332 34.0697 43.3279 34.0958 43.3178 34.1201C43.3076 34.1444 43.2928 34.1665 43.2743 34.1849C43.2557 34.2033 43.2338 34.2176 43.2098 34.2272C43.1858 34.2367 43.1603 34.2412 43.1348 34.2403L41.6328 34.2557L41.5778 34.2462ZM95.0767 45.7698C95.0384 45.7614 95.0037 45.7409 94.9774 45.7112C94.9512 45.6815 94.9346 45.644 94.93 45.6039C94.8702 45.0772 94.8102 44.5624 94.7456 44.0583C94.7424 44.0328 94.7441 44.0069 94.7506 43.982C94.7571 43.9571 94.7683 43.9337 94.7835 43.9131C94.7988 43.8926 94.8178 43.8753 94.8394 43.8622C94.861 43.8491 94.885 43.8404 94.9097 43.8368C94.9344 43.8332 94.9596 43.8346 94.9837 43.841C95.0077 43.8473 95.0303 43.8585 95.0501 43.874C95.0698 43.8894 95.0864 43.9087 95.0988 43.9308C95.1112 43.953 95.1193 43.9774 95.1225 44.0029C95.1853 44.5082 95.2465 45.0248 95.306 45.553C95.3091 45.5784 95.3073 45.6043 95.3007 45.6291C95.294 45.6539 95.2826 45.6772 95.2672 45.6976C95.2517 45.7179 95.2326 45.735 95.2108 45.7477C95.189 45.7604 95.165 45.7686 95.1402 45.7717C95.1221 45.7727 95.104 45.7711 95.0864 45.7672L95.0767 45.7698ZM46.6321 34.2169C46.59 34.2073 46.5525 34.1834 46.5256 34.1489C46.4986 34.1145 46.4839 34.0715 46.4838 34.027C46.4848 33.9754 46.5056 33.926 46.5416 33.8896C46.5777 33.8532 46.626 33.8328 46.6762 33.8328L48.1919 33.8275C48.2167 33.8273 48.2412 33.8322 48.264 33.8418C48.2868 33.8514 48.3074 33.8657 48.3248 33.8836C48.3421 33.9016 48.3558 33.923 48.3649 33.9465C48.3741 33.9701 48.3787 33.9953 48.3784 34.0208C48.3775 34.0722 48.357 34.1214 48.3214 34.1578C48.2858 34.1942 48.2379 34.2149 48.1881 34.2155L46.6723 34.2208L46.6321 34.2169ZM51.6879 34.202C51.6423 34.192 51.6022 34.165 51.5751 34.1262C51.5481 34.0873 51.536 34.0393 51.5413 33.9914C51.5465 33.9436 51.5687 33.8991 51.6035 33.8666C51.6384 33.8341 51.6835 33.8158 51.7302 33.8153L53.2477 33.8126C53.2976 33.8136 53.345 33.8345 53.3797 33.8711C53.4144 33.9076 53.4337 33.9568 53.4336 34.0083C53.4327 34.0596 53.4123 34.1087 53.3767 34.1452C53.3411 34.1816 53.2932 34.2023 53.2434 34.2029L51.7264 34.2033L51.6879 34.202ZM56.7407 34.2007C56.6985 34.1915 56.6607 34.1677 56.6337 34.1331C56.6067 34.0986 56.5921 34.0554 56.5923 34.0108C56.5939 33.9594 56.6149 33.9103 56.6509 33.874C56.6868 33.8378 56.7348 33.8172 56.7848 33.8167L58.3008 33.8208C58.3507 33.8217 58.3981 33.8427 58.4328 33.8792C58.4675 33.9157 58.4868 33.9649 58.4867 34.0164C58.4857 34.068 58.4649 34.1174 58.4288 34.1538C58.3928 34.1902 58.3444 34.2106 58.2943 34.2105L56.7783 34.2064L56.7407 34.2007ZM61.7962 34.2188C61.751 34.2083 61.7112 34.1809 61.6846 34.142C61.658 34.1031 61.6463 34.0552 61.6518 34.0075C61.6573 33.9598 61.6796 33.9157 61.7144 33.8834C61.7493 33.8511 61.7942 33.833 61.8408 33.8325L63.358 33.8416C63.4084 33.8421 63.4562 33.8633 63.491 33.9004C63.5258 33.9375 63.5446 33.9875 63.5434 34.0394C63.5422 34.0914 63.521 34.1409 63.4845 34.1772C63.448 34.2136 63.3992 34.2337 63.3488 34.2331L61.8343 34.2223C61.8246 34.2214 61.8151 34.2194 61.8059 34.2161L61.7962 34.2188ZM94.3831 40.6197C94.346 40.6122 94.3121 40.5932 94.286 40.5652C94.2598 40.5373 94.2426 40.5017 94.2367 40.4632C94.1517 39.9265 94.0662 39.4132 93.9841 38.9266C93.9754 38.8756 93.9868 38.823 94.0157 38.7801C94.0446 38.7373 94.0887 38.7079 94.1382 38.6982C94.1877 38.6893 94.2384 38.7005 94.2795 38.7296C94.3205 38.7587 94.3486 38.8034 94.3579 38.854C94.4409 39.3432 94.5248 39.8569 94.6095 40.3952C94.6137 40.4204 94.6129 40.4462 94.6073 40.4712C94.6017 40.4963 94.5914 40.5199 94.5769 40.5409C94.5624 40.5619 94.544 40.5798 94.5229 40.5935C94.5017 40.6072 94.4782 40.6165 94.4536 40.6208C94.4332 40.623 94.4127 40.6217 94.3928 40.6171L94.3831 40.6197ZM66.8491 34.2598C66.806 34.2507 66.7676 34.2263 66.7407 34.1907C66.7137 34.1552 66.6999 34.1108 66.7016 34.0654C66.7034 34.0137 66.7247 33.9644 66.7611 33.9282C66.7975 33.892 66.846 33.8717 66.8963 33.8718L68.4116 33.8898C68.4365 33.8901 68.4611 33.8955 68.4839 33.9056C68.5067 33.9157 68.5273 33.9303 68.5446 33.9487C68.5618 33.967 68.5753 33.9888 68.5843 34.0126C68.5933 34.0365 68.5976 34.062 68.597 34.0877C68.5964 34.1134 68.5909 34.1389 68.5807 34.1625C68.5706 34.1861 68.5561 34.2076 68.5381 34.2256C68.52 34.2435 68.4987 34.2577 68.4754 34.2673C68.4522 34.2769 68.4273 34.2817 68.4024 34.2814L66.8871 34.2633L66.8491 34.2598ZM71.9031 34.3271C71.8601 34.3172 71.8219 34.2926 71.7948 34.2571C71.7676 34.2217 71.753 34.1777 71.7535 34.1322C71.7541 34.1064 71.7597 34.0808 71.77 34.057C71.7802 34.0333 71.795 34.0118 71.8133 33.9938C71.8316 33.9758 71.8531 33.9617 71.8766 33.9523C71.9001 33.9429 71.9252 33.9384 71.9503 33.939L73.4663 33.9643C73.5166 33.9652 73.5643 33.9866 73.5988 34.0239C73.6333 34.0612 73.6519 34.1112 73.6504 34.1631C73.6489 34.215 73.6274 34.2643 73.5908 34.3004C73.5541 34.3365 73.5053 34.3563 73.4549 34.3554L71.9394 34.3278L71.9031 34.3271ZM76.9542 34.4291C76.9068 34.4201 76.8647 34.3929 76.8365 34.3529C76.8084 34.313 76.7962 34.2632 76.8025 34.2138C76.8088 34.1644 76.8331 34.1191 76.8704 34.0871C76.9078 34.0551 76.9554 34.0387 77.0036 34.0414L78.5188 34.0807C78.5695 34.0827 78.6171 34.1049 78.6516 34.1427C78.686 34.1805 78.7046 34.2309 78.7033 34.2831C78.7026 34.3091 78.6969 34.3348 78.6865 34.3587C78.676 34.3826 78.6611 34.4041 78.6426 34.422C78.6241 34.44 78.6023 34.454 78.5785 34.4633C78.5548 34.4725 78.5296 34.4768 78.5043 34.4758L76.9912 34.437L76.9542 34.4291ZM82.0048 34.5757C81.9578 34.5662 81.9163 34.5386 81.8886 34.4985C81.8609 34.4585 81.8492 34.4089 81.8557 34.3598C81.8623 34.3107 81.8866 34.2657 81.9238 34.2339C81.9611 34.2021 82.0084 34.1859 82.0563 34.1885C82.5742 34.206 83.0794 34.2254 83.5721 34.2468C83.5984 34.2455 83.6246 34.2498 83.6491 34.2595C83.6736 34.2692 83.6958 34.2841 83.7142 34.3032C83.7327 34.3223 83.747 34.3452 83.7564 34.3704C83.7657 34.3957 83.7698 34.4227 83.7684 34.4498C83.767 34.4769 83.7601 34.5036 83.7483 34.5279C83.7364 34.5523 83.7197 34.574 83.6994 34.5915C83.679 34.609 83.6554 34.622 83.63 34.6296C83.6047 34.6373 83.5781 34.6395 83.552 34.636L82.0384 34.5782L82.0048 34.5757ZM87.0524 34.7994C87.0057 34.7894 86.9647 34.7615 86.9375 34.7213C86.9103 34.6812 86.899 34.6317 86.9058 34.5829C86.9126 34.534 86.937 34.4894 86.9741 34.4578C87.0113 34.4263 87.0584 34.4102 87.1061 34.4128C87.6315 34.4412 88.1358 34.4722 88.6216 34.504C88.6696 34.5101 88.7132 34.5349 88.7436 34.5732C88.774 34.6116 88.7889 34.6607 88.7851 34.7105C88.7814 34.7603 88.7593 34.8069 88.7235 34.841C88.6877 34.875 88.6408 34.8938 88.5924 34.8935C88.1082 34.8645 87.6039 34.8335 87.0812 34.8033L87.0524 34.7994ZM93.46 35.5074C93.4246 35.4995 93.3923 35.4813 93.3668 35.455C93.3414 35.4286 93.3239 35.3951 93.3165 35.3586L93.303 35.2944C92.9404 35.2515 92.5388 35.2097 92.1101 35.1668C92.0853 35.1643 92.0613 35.1569 92.0394 35.1449C92.0175 35.1329 91.9982 35.1165 91.9826 35.0967C91.967 35.077 91.9553 35.0541 91.9483 35.0296C91.9413 35.005 91.939 34.9793 91.9417 34.9537C91.9443 34.9281 91.9519 34.9033 91.9638 34.8805C91.9758 34.8578 91.9919 34.8377 92.0114 34.8214C92.0308 34.805 92.0531 34.7926 92.077 34.7851C92.1009 34.7775 92.126 34.7749 92.1508 34.7773C92.5974 34.8217 93.0143 34.8669 93.4013 34.9126C93.4638 34.9136 93.5237 34.9368 93.5709 34.9783C93.618 35.0199 93.6496 35.0772 93.6601 35.1405L93.6883 35.2738C93.6942 35.3057 93.6924 35.3388 93.6829 35.37C93.6735 35.4012 93.6566 35.4296 93.6341 35.4527C93.6115 35.4758 93.5838 35.4929 93.5535 35.5024C93.5231 35.512 93.491 35.5137 93.46 35.5074Z" fill="#BDD0FB"/>
<path d="M60.813 72.6345L50.1156 72.6839C49.4395 72.6885 48.7885 72.4379 48.2856 71.9795C47.7826 71.5211 47.4625 70.8866 47.3857 70.1958L46.2364 59.5959C46.1938 59.1968 46.234 58.7918 46.3544 58.4077C46.4747 58.0236 46.6725 57.669 46.9345 57.3674C47.1966 57.0658 47.5171 56.8241 47.8747 56.6581C48.2324 56.4922 48.6192 56.4058 49.0095 56.4047L61.8617 56.3486C62.245 56.3458 62.6236 56.4251 62.9735 56.5815C63.3233 56.738 63.6367 56.9682 63.8938 57.2574C64.1509 57.5467 64.346 57.8887 64.4667 58.2618C64.5874 58.6348 64.6311 59.0307 64.5949 59.4242L63.5882 70.047C63.5162 70.7522 63.192 71.4081 62.6789 71.8865C62.1658 72.3649 61.5005 72.6316 60.813 72.6345Z" fill="url(#paint7_linear_2207_7149)"/>
<path d="M59.5124 70.6903L51.3691 70.7321C50.8548 70.7362 50.3594 70.5458 49.9768 70.1971C49.5942 69.8483 49.351 69.3654 49.2931 68.8398L48.4165 60.773C48.3843 60.4686 48.4154 60.1598 48.5077 59.867C48.6001 59.5742 48.7514 59.3041 48.9519 59.0746C49.1524 58.8451 49.3973 58.6615 49.6705 58.5358C49.9437 58.4102 50.239 58.3455 50.5366 58.3459L60.3197 58.2948C60.6111 58.2925 60.8989 58.3525 61.165 58.4711C61.4311 58.5896 61.6696 58.7642 61.8655 58.9837C62.0613 59.2031 62.2102 59.4628 62.3028 59.746C62.3953 60.0293 62.4294 60.3301 62.403 60.6293L61.6362 68.7117C61.5834 69.2522 61.3359 69.7554 60.9427 70.1217C60.5494 70.4881 60.039 70.691 59.5124 70.6903Z" fill="url(#paint8_linear_2207_7149)"/>
<defs>
<linearGradient id="paint0_linear_2207_7149" x1="151108" y1="104550" x2="149772" y2="111665" gradientUnits="userSpaceOnUse">
<stop stop-color="#4042E2"/>
<stop offset="1" stop-color="#4F52FF"/>
</linearGradient>
<linearGradient id="paint1_linear_2207_7149" x1="44897.4" y1="5349" x2="44890.9" y2="5073.82" gradientUnits="userSpaceOnUse">
<stop stop-color="#09005D"/>
<stop offset="1" stop-color="#1A0F91"/>
</linearGradient>
<linearGradient id="paint2_linear_2207_7149" x1="18194.9" y1="8571.1" x2="18370.5" y2="9880.22" gradientUnits="userSpaceOnUse">
<stop stop-color="#09005D"/>
<stop offset="1" stop-color="#1A0F91"/>
</linearGradient>
<linearGradient id="paint3_linear_2207_7149" x1="46677.3" y1="5300.66" x2="46670.8" y2="5025.48" gradientUnits="userSpaceOnUse">
<stop stop-color="#09005D"/>
<stop offset="1" stop-color="#1A0F91"/>
</linearGradient>
<linearGradient id="paint4_linear_2207_7149" x1="19524.4" y1="9173.36" x2="19723.7" y2="10589" gradientUnits="userSpaceOnUse">
<stop stop-color="#09005D"/>
<stop offset="1" stop-color="#1A0F91"/>
</linearGradient>
<linearGradient id="paint5_linear_2207_7149" x1="157739" y1="16267.5" x2="157617" y2="18349.8" gradientUnits="userSpaceOnUse">
<stop stop-color="#4042E2"/>
<stop offset="1" stop-color="#4F52FF"/>
</linearGradient>
<linearGradient id="paint6_linear_2207_7149" x1="156183" y1="83204.1" x2="154852" y2="90786.1" gradientUnits="userSpaceOnUse">
<stop stop-color="#4042E2"/>
<stop offset="1" stop-color="#4F52FF"/>
</linearGradient>
<linearGradient id="paint7_linear_2207_7149" x1="76344.8" y1="19328.8" x2="75977.1" y2="22507.5" gradientUnits="userSpaceOnUse">
<stop stop-color="#09005D"/>
<stop offset="1" stop-color="#1A0F91"/>
</linearGradient>
<linearGradient id="paint8_linear_2207_7149" x1="57354.4" y1="16639.1" x2="58278.4" y2="16646.4" gradientUnits="userSpaceOnUse">
<stop stop-color="#4042E2"/>
<stop offset="1" stop-color="#4F52FF"/>
</linearGradient>
</defs>
</svg>
