<svg width="107" height="21" viewBox="0 0 107 21" fill="none" xmlns="http://www.w3.org/2000/svg">
<path d="M0.71 -1.43051e-06H7.79V21H0.71V-1.43051e-06ZM10.8383 9.78H19.8383V14.88H10.8383V9.78ZM26.2466 5.49H20.0966V-1.43051e-06H39.4766V5.49H33.3266V21H26.2466V5.49ZM54.5708 17.34H46.5908L45.1808 21H37.9808L47.1608 -1.43051e-06H54.1208L63.3008 21H55.9808L54.5708 17.34ZM52.6208 12.24L50.5808 6.96L48.5408 12.24H52.6208ZM74.5407 -1.43051e-06C76.4807 -1.43051e-06 78.1707 0.319999 79.6107 0.959999C81.0507 1.6 82.1607 2.52 82.9407 3.72C83.7207 4.92 84.1107 6.32 84.1107 7.92C84.1107 9.52 83.7207 10.92 82.9407 12.12C82.1607 13.32 81.0507 14.24 79.6107 14.88C78.1707 15.52 76.4807 15.84 74.5407 15.84H71.5107V21H64.4307V-1.43051e-06H74.5407ZM74.0907 10.38C75.0507 10.38 75.7707 10.17 76.2507 9.75C76.7307 9.31 76.9707 8.7 76.9707 7.92C76.9707 7.14 76.7307 6.54 76.2507 6.12C75.7707 5.68 75.0507 5.46 74.0907 5.46H71.5107V10.38H74.0907ZM96.5427 -1.43051e-06C98.4827 -1.43051e-06 100.173 0.319999 101.613 0.959999C103.053 1.6 104.163 2.52 104.943 3.72C105.723 4.92 106.113 6.32 106.113 7.92C106.113 9.52 105.723 10.92 104.943 12.12C104.163 13.32 103.053 14.24 101.613 14.88C100.173 15.52 98.4827 15.84 96.5427 15.84H93.5127V21H86.4327V-1.43051e-06H96.5427ZM96.0927 10.38C97.0527 10.38 97.7727 10.17 98.2527 9.75C98.7327 9.31 98.9727 8.7 98.9727 7.92C98.9727 7.14 98.7327 6.54 98.2527 6.12C97.7727 5.68 97.0527 5.46 96.0927 5.46H93.5127V10.38H96.0927Z" fill="white"/>
</svg>
