<svg width="98" height="91" viewBox="0 0 98 91" fill="none" xmlns="http://www.w3.org/2000/svg">
<path d="M14.4453 23.0853L9.68397 40.2446C9.36328 41.3955 9.294 42.6019 9.48085 43.7819C9.66769 44.9619 10.1063 46.0879 10.7668 47.0835C14.1243 52.141 22.3395 61.2738 39.7412 65.9318C57.4199 70.6628 67.433 65.794 71.7355 62.5881C73.2947 61.4273 74.4294 59.7863 74.9649 57.9177L80.1767 39.7445L14.4453 23.0853Z" fill="url(#paint0_linear_2207_7142)"/>
<path d="M52.1406 0.998048L2.61781 14.8687C2.0396 15.0294 1.51603 15.3445 1.10323 15.7801C0.690433 16.2157 0.403966 16.7554 0.274559 17.3415C0.145152 17.9275 0.177687 18.5377 0.368654 19.1066C0.559621 19.6755 0.901825 20.1818 1.35859 20.571C11.1733 28.9653 33.4796 48.519 41.9277 59.874C42.3677 60.4641 42.992 60.8905 43.7017 61.0856C44.4115 61.2808 45.166 61.2335 45.8459 60.9514L95.9514 40.2129C96.4722 39.9986 96.9296 39.655 97.2803 39.2144C97.631 38.7738 97.8634 38.251 97.9555 37.6955C98.0475 37.1399 97.9961 36.5701 97.8062 36.04C97.6163 35.5098 97.2942 35.037 96.8703 34.6663C87.1507 26.1328 62.4154 4.77019 54.3738 1.15924C53.6712 0.845709 52.8809 0.788665 52.1406 0.998048Z" fill="url(#paint1_linear_2207_7142)"/>
<path d="M51.1241 27C51.1241 27 77.8943 40.2549 79.9341 43.284C81.9739 46.3132 77.8677 60.0781 77.8677 60.0781C82.0814 71.7296 82.706 84.3813 75.5862 91C75.5862 91 66.8109 75.6789 70.7313 69.2214C74.6516 62.7639 76.1633 60.1187 76.1633 60.1187C76.1633 60.1187 79.5932 45.4435 78.5076 43.3455C78.5076 43.3433 48.8524 27.8401 51.1241 27Z" fill="url(#paint2_linear_2207_7142)"/>
<path opacity="0.44" d="M9.28178 19.4607L34.6218 44.4577L40.9592 50.7069L42.5422 52.2692L43.333 53.0462C43.5842 53.2871 43.8614 53.4992 44.1596 53.6786C44.7543 54.0407 45.4214 54.2673 46.1136 54.3426C46.8057 54.4178 47.506 54.3398 48.1646 54.114L65.04 48.4654C65.1031 48.4469 65.1709 48.4534 65.2293 48.4837C65.2876 48.514 65.332 48.5656 65.3532 48.6279C65.3744 48.6901 65.3707 48.7582 65.3428 48.8177C65.315 48.8773 65.2653 48.9238 65.2039 48.9476L48.3712 54.7339C47.6233 54.9956 46.8271 55.0896 46.0388 55.0093C45.2505 54.9291 44.4895 54.6766 43.8097 54.2696C43.4702 54.0656 43.1538 53.8254 42.866 53.5532L42.0641 52.7762L40.4688 51.2263L34.0859 45.0267L8.55573 20.2281C8.46098 20.13 8.40812 19.9989 8.40836 19.8625C8.40859 19.7261 8.4619 19.5952 8.55697 19.4974C8.65205 19.3997 8.78145 19.3428 8.91776 19.3387C9.05408 19.3347 9.18659 19.3839 9.28728 19.4759L9.28178 19.4607Z" fill="white"/>
<path opacity="0.44" d="M75.8488 66.7306L75.7996 66.774L75.7409 66.8295L75.6235 66.9406L75.3982 67.1883C75.2494 67.3549 75.1252 67.5382 74.9763 67.7126L74.6036 68.268C74.4875 68.458 74.3865 68.6557 74.2759 68.849C74.1663 69.0432 74.0693 69.242 73.9851 69.4444C73.8977 69.6466 73.8008 69.8465 73.7202 70.0509L73.5059 70.6719C73.4376 70.8807 73.3543 71.0851 73.3106 71.2995L73.155 71.9349C73.1058 72.1471 73.0417 72.3581 73.0185 72.5747C72.9557 73.0046 72.8819 73.4356 72.8287 73.8667L72.7509 75.1708C72.7509 75.2819 72.7358 75.3929 72.7345 75.4974L72.744 75.8239L72.7631 76.4782C72.7536 77.3525 72.8997 78.2222 72.9871 79.0943C73.0048 79.3164 73.0485 79.5286 73.0922 79.7452L73.2178 80.395C73.3038 80.8272 73.3789 81.2615 73.4745 81.6936C73.7121 82.549 73.9278 83.411 74.1844 84.2641L75.0637 86.8035V86.8112C75.0773 86.8487 75.072 86.8889 75.0491 86.9232C75.0262 86.9575 74.9875 86.9829 74.9415 86.994C74.8955 87.005 74.846 87.0008 74.8039 86.9821C74.7618 86.9635 74.7305 86.932 74.7169 86.8946L73.7503 84.3585C73.4649 83.5043 73.2192 82.64 72.9516 81.7803C72.841 81.3459 72.7509 80.9083 72.6498 80.4717L72.501 79.8163C72.4505 79.5941 72.4 79.3797 72.374 79.1587C72.258 78.27 72.0805 77.3936 72.0614 76.5005L72.0204 75.8339L71.9999 75.5007C71.9999 75.3896 71.9999 75.2785 71.9999 75.1674L72.0354 73.8256C72.0791 73.3812 72.1378 72.9369 72.1897 72.4925C72.2154 72.2688 72.2555 72.0463 72.3099 71.826L72.4464 71.1595C72.4846 70.9374 72.5638 70.7152 72.6293 70.4997L72.8341 69.8421C72.912 69.6199 73.0075 69.4122 73.0936 69.1967C73.1758 68.9793 73.2724 68.7657 73.383 68.5568C73.4936 68.3469 73.596 68.1347 73.7134 67.927L74.0984 67.3138C74.2486 67.1172 74.3851 66.915 74.549 66.7217L74.7988 66.4329L74.9354 66.2896L75.0077 66.2185L75.0951 66.1397C75.1407 66.0985 75.1959 66.065 75.2574 66.0411C75.319 66.0172 75.3857 66.0035 75.4538 66.0006C75.5219 65.9977 75.59 66.0057 75.6542 66.0243C75.7185 66.0428 75.7776 66.0714 75.8283 66.1086C75.8789 66.1457 75.9201 66.1906 75.9494 66.2406C75.9788 66.2907 75.9957 66.345 75.9992 66.4004C76.0028 66.4558 75.9929 66.5112 75.9701 66.5635C75.9473 66.6158 75.9121 66.6639 75.8665 66.7051L75.8488 66.7306Z" fill="white"/>
<path opacity="0.44" d="M76.5432 72.5583V73.3512L76.5555 74.2438L76.6007 76.0353L76.7201 79.6184L76.9999 86.7856C76.9974 86.8415 76.9536 86.8949 76.8773 86.9347C76.801 86.9745 76.6981 86.9978 76.5896 86.9999C76.481 87.0019 76.3751 86.9825 76.2935 86.9456C76.2118 86.9087 76.1605 86.8572 76.1501 86.8015L75.5123 79.6375L75.2139 76.0544L75.0802 74.2618L75.0226 73.3629L74.9999 72.9102V72.6823C74.9999 72.5848 75.0143 72.4703 75.0328 72.3643C75.047 72.2623 75.1378 72.1672 75.286 72.0993C75.4342 72.0313 75.628 71.9958 75.8262 72.0004C76.0244 72.005 76.2113 72.0492 76.3471 72.1237C76.483 72.1982 76.557 72.2971 76.5534 72.3993L76.5432 72.5583Z" fill="white"/>
<defs>
<linearGradient id="paint0_linear_2207_7142" x1="94799.1" y1="29027" x2="95708.8" y2="4596.32" gradientUnits="userSpaceOnUse">
<stop stop-color="#FE7062"/>
<stop offset="1" stop-color="#FF928E"/>
</linearGradient>
<linearGradient id="paint1_linear_2207_7142" x1="144537" y1="3507.85" x2="139810" y2="28025.9" gradientUnits="userSpaceOnUse">
<stop stop-color="#FE7062"/>
<stop offset="1" stop-color="#FF928E"/>
</linearGradient>
<linearGradient id="paint2_linear_2207_7142" x1="51901.8" y1="6410.36" x2="36818" y2="22502.3" gradientUnits="userSpaceOnUse">
<stop stop-color="#E1473D"/>
<stop offset="1" stop-color="#E9605A"/>
</linearGradient>
</defs>
</svg>
