<svg width="585" height="436" viewBox="0 0 585 436" fill="none" xmlns="http://www.w3.org/2000/svg">
<path d="M585 383.157H0V383.45H585V383.157Z" fill="#D1D1D1"/>
<path d="M277.29 330.97H51.3747C49.6049 330.967 47.9086 330.261 46.6583 329.009C45.4079 327.756 44.7057 326.058 44.7057 324.288V6.68141C44.7057 4.91142 45.4079 3.21374 46.6583 1.96107C47.9086 0.7084 49.6049 0.00309982 51.3747 0L277.29 0C279.062 0 280.761 0.703932 282.014 1.95694C283.267 3.20995 283.971 4.90939 283.971 6.68141V324.288C283.971 325.166 283.798 326.034 283.462 326.845C283.126 327.656 282.634 328.392 282.014 329.013C281.394 329.633 280.657 330.125 279.847 330.461C279.036 330.797 278.167 330.97 277.29 330.97ZM51.3747 0.292531C49.6825 0.295631 48.0606 0.970111 46.8651 2.16792C45.6696 3.36573 44.9982 4.989 44.9982 6.68141V324.288C44.9982 325.981 45.6696 327.604 46.8651 328.802C48.0606 330 49.6825 330.674 51.3747 330.677H277.29C278.983 330.674 280.606 330 281.804 328.802C283.001 327.605 283.675 325.982 283.678 324.288V6.68141C283.675 4.98792 283.001 3.36468 281.804 2.16721C280.606 0.96973 278.983 0.295624 277.29 0.292531H51.3747Z" fill="#D1D1D1"/>
<path d="M530.373 330.97H304.446C302.675 330.967 300.977 330.262 299.725 329.009C298.473 327.757 297.768 326.059 297.765 324.288V6.68141C297.768 4.91034 298.473 3.21269 299.725 1.96036C300.977 0.708019 302.675 0.00309358 304.446 0L530.373 0C532.14 0.00619255 533.834 0.712858 535.081 1.96519C536.329 3.21753 537.03 4.91344 537.03 6.68141V324.288C537.03 326.056 536.329 327.752 535.081 329.004C533.834 330.257 532.14 330.963 530.373 330.97ZM304.446 0.292531C302.752 0.295624 301.129 0.96973 299.932 2.16721C298.735 3.36468 298.061 4.98792 298.058 6.68141V324.288C298.061 325.982 298.735 327.605 299.932 328.802C301.129 330 302.752 330.674 304.446 330.677H530.373C532.066 330.674 533.689 330 534.886 328.802C536.084 327.605 536.758 325.982 536.761 324.288V6.68141C536.758 4.98792 536.084 3.36468 534.886 2.16721C533.689 0.96973 532.066 0.295624 530.373 0.292531H304.446Z" fill="#D1D1D1"/>
<path d="M234.515 394.297H204.095V394.589H234.515V394.297Z" fill="#D1D1D1"/>
<path d="M124.675 391.126H61.3782V391.418H124.675V391.126Z" fill="#D1D1D1"/>
<path d="M202.925 405.167H172.13V405.46H202.925V405.167Z" fill="#D1D1D1"/>
<path d="M347.56 403.201H302.129V403.494H347.56V403.201Z" fill="#D1D1D1"/>
<path d="M370.48 403.201H357.973V403.494H370.48V403.201Z" fill="#D1D1D1"/>
<path d="M526.395 398.252H462.56V398.544H526.395V398.252Z" fill="#D1D1D1"/>
<path d="M445.84 372.767H499.251V225.951H445.84V372.767Z" fill="#D6D6D6"/>
<path d="M212.624 383.157L488.99 383.157V372.778L212.624 372.778V383.157Z" fill="#D6D6D6"/>
<path d="M445.84 225.951H202.375V372.766H445.84V225.951Z" fill="#E8E8E8"/>
<path d="M446.776 235.885H202.375V289.629H446.776V235.885Z" fill="#D6D6D6"/>
<path d="M446.776 299.423H202.375V353.167H446.776V299.423Z" fill="#D6D6D6"/>
<path d="M445.84 289.629H455.083V235.885H445.84V289.629Z" fill="#CCCCCC"/>
<path d="M445.84 353.179H455.083V299.435H445.84V353.179Z" fill="#CCCCCC"/>
<path d="M195.261 225.951L445.84 225.951V216.918L195.261 216.918V225.951Z" fill="#D6D6D6"/>
<path d="M506.715 216.918H445.84V225.951H506.715V216.918Z" fill="#CCCCCC"/>
<path d="M356.183 189.303L504.808 189.303V31.2892L356.183 31.2892V189.303Z" fill="#E8E8E8"/>
<path d="M368.632 43.7392V176.853H492.359V43.7392H368.632Z" fill="white"/>
<path d="M444.19 124.7L467.836 113.736V106.832L444.19 95.8564V104.047L458.558 110.237L444.19 116.439V124.7Z" fill="#CCCCCC"/>
<path d="M428.77 92.6738H424.453L432.104 127.906H436.41L428.77 92.6738Z" fill="#CCCCCC"/>
<path d="M416.789 116.498L402.48 110.296L416.789 104.141V95.9502L393.12 106.832V113.736L416.766 124.7L416.789 116.498Z" fill="#CCCCCC"/>
<path d="M137.147 383.157H145.384L145.384 114.988H137.147L137.147 383.157Z" fill="#D6D6D6"/>
<path d="M135.428 381.285L135.205 380.115C136.051 379.84 136.833 379.397 137.502 378.812C138.172 378.227 138.716 377.512 139.101 376.71C141.242 372.907 142.541 364.833 136.586 347.878C127.413 321.773 132.889 300.699 143.805 258.726C145.7 251.413 147.853 243.129 150.088 234.154C158.477 200.606 150.719 179.801 144.483 163.08C139.651 150.104 135.825 139.853 140.716 127.977L141.804 128.421C137.124 139.877 140.833 149.94 145.583 162.671C151.878 179.544 159.705 200.536 151.223 234.434C148.988 243.386 146.835 251.682 144.94 259.007C134.082 300.792 128.63 321.784 137.697 347.527C143.816 364.962 142.377 373.375 140.037 377.377C139.578 378.31 138.932 379.138 138.139 379.81C137.346 380.483 136.423 380.985 135.428 381.285Z" fill="#D6D6D6"/>
<path d="M126.348 383.157H156.172L147.876 378.266H134.644L126.348 383.157Z" fill="#D6D6D6"/>
<path d="M82.2627 149.132H200.257L187.27 49.9761H95.2497L82.2627 149.132Z" fill="#E8E8E8"/>
<path d="M257.26 165.479H320.252L311.957 216.918H265.555L257.26 165.479Z" fill="#D6D6D6"/>
<path d="M292.5 436C417.787 436 519.351 430.07 519.351 422.754C519.351 415.439 417.787 409.508 292.5 409.508C167.213 409.508 65.6487 415.439 65.6487 422.754C65.6487 430.07 167.213 436 292.5 436Z" fill="#E8E8E8"/>
<path d="M490.534 229.497H93.0267V243.76H490.534V229.497Z" fill="#DB5D8B"/>
<path opacity="0.3" d="M199.415 229.497H93.0267V243.76H199.415V229.497Z" fill="white"/>
<path d="M201.111 243.76H191.857L196.7 422.532H201.111H205.522L210.378 243.76H201.111Z" fill="#DB5D8B"/>
<path opacity="0.3" d="M196.7 422.532H201.111V247.61L192.009 249.271L196.7 422.532Z" fill="white"/>
<path d="M113.396 243.76H104.142L108.986 422.532H113.396H117.807L122.651 243.76H113.396Z" fill="#DB5D8B"/>
<path opacity="0.3" d="M108.986 422.532H113.396V247.61L104.282 249.271L108.986 422.532Z" fill="white"/>
<path d="M470.165 243.76H460.91L465.754 422.532H470.165H474.576L479.431 243.76H470.165Z" fill="#DB5D8B"/>
<path opacity="0.3" d="M465.754 422.532H470.164V247.61L461.062 249.271L465.754 422.532Z" fill="white"/>
<path d="M382.45 243.76H373.195L378.039 422.532H382.45H386.86L391.704 243.76H382.45Z" fill="#DB5D8B"/>
<path opacity="0.3" d="M378.039 422.532H382.45V247.61L373.347 249.271L378.039 422.532Z" fill="white"/>
<path d="M281.713 153.146H187.2C186.434 153.116 185.672 153.267 184.976 153.588C184.28 153.908 183.67 154.388 183.194 154.989C182.719 155.59 182.392 156.295 182.24 157.046C182.088 157.797 182.116 158.574 182.321 159.312L194.91 219.398C195.315 221.099 196.262 222.622 197.609 223.736C198.956 224.851 200.629 225.497 202.375 225.576H296.958C297.724 225.604 298.486 225.451 299.182 225.129C299.878 224.808 300.488 224.326 300.964 223.724C301.439 223.123 301.765 222.417 301.917 221.666C302.069 220.914 302.041 220.137 301.837 219.398L289.236 159.312C288.828 157.604 287.871 156.075 286.513 154.962C285.154 153.848 283.468 153.21 281.713 153.146Z" fill="#263238"/>
<path d="M203.194 222.148C202.015 222.068 200.891 221.618 199.984 220.862C199.076 220.105 198.43 219.081 198.139 217.936L185.55 157.85C185.443 157.452 185.426 157.035 185.5 156.63C185.575 156.225 185.74 155.842 185.983 155.509C186.235 155.225 186.548 155 186.898 154.852C187.248 154.704 187.627 154.637 188.007 154.655H282.59C283.769 154.735 284.893 155.185 285.8 155.942C286.708 156.698 287.354 157.722 287.644 158.868L300.234 218.942C300.34 219.34 300.356 219.756 300.281 220.161C300.206 220.566 300.042 220.949 299.801 221.282C299.55 221.569 299.238 221.795 298.887 221.943C298.537 222.091 298.157 222.157 297.777 222.136L203.194 222.148Z" fill="white"/>
<path opacity="0.4" d="M274.552 217.339L262.618 160.412C262.551 160.075 262.559 159.727 262.642 159.393C262.725 159.059 262.88 158.748 263.096 158.481C263.313 158.214 263.586 157.998 263.896 157.848C264.205 157.699 264.544 157.619 264.888 157.616H280.238C280.771 157.62 281.285 157.805 281.698 158.141C282.111 158.477 282.396 158.944 282.508 159.465L294.442 216.391C294.507 216.728 294.498 217.074 294.414 217.407C294.331 217.739 294.175 218.049 293.959 218.314C293.742 218.58 293.47 218.795 293.161 218.944C292.853 219.093 292.515 219.172 292.172 219.176H276.822C276.291 219.172 275.778 218.989 275.365 218.655C274.953 218.321 274.666 217.857 274.552 217.339Z" fill="#DB5D8B"/>
<path d="M193.424 162.554L192.91 160.085H211.864L212.378 162.554H193.424Z" fill="#DB5D8B"/>
<path d="M202.176 168.685L201.661 166.205H234.878L235.404 168.685H202.176Z" fill="#D1D1D1"/>
<path d="M203.931 174.805L203.405 172.336H240.646L241.16 174.805H203.931Z" fill="#D1D1D1"/>
<path d="M205.674 180.925L205.16 178.456H235.135L235.661 180.925H205.674Z" fill="#D1D1D1"/>
<path d="M199.193 190.871L198.666 188.402H210.659L211.173 190.871H199.193Z" fill="#DB5D8B"/>
<path d="M207.932 196.99L207.418 194.521H222.019L222.546 196.99H207.932Z" fill="#D1D1D1"/>
<path d="M226.044 196.99L225.518 194.521H240.131L240.646 196.99H226.044Z" fill="#D1D1D1"/>
<path d="M209.687 203.122L209.173 200.641H258.547L259.061 203.122H209.687Z" fill="#D1D1D1"/>
<path d="M211.431 209.242L210.916 206.773H248.566L249.081 209.242H211.431Z" fill="#D1D1D1"/>
<path d="M325.868 225.214H201.427C198.034 225.214 195.835 227.145 196.548 229.497H333.333C332.631 227.145 329.261 225.214 325.868 225.214Z" fill="#263238"/>
<path opacity="0.1" d="M160.536 137.946L148.59 81.0194C148.522 80.6763 148.531 80.3222 148.618 79.9833C148.704 79.6443 148.866 79.3291 149.09 79.0608C149.315 78.7925 149.597 78.5779 149.915 78.4329C150.233 78.2879 150.58 78.2161 150.93 78.2228H247.572C248.104 78.2269 248.619 78.4123 249.032 78.7484C249.444 79.0845 249.73 79.5513 249.842 80.0716L261.776 136.998C261.843 137.335 261.835 137.683 261.752 138.017C261.67 138.351 261.514 138.663 261.298 138.93C261.081 139.197 260.808 139.413 260.498 139.562C260.189 139.712 259.85 139.791 259.506 139.795H162.864C162.322 139.804 161.793 139.625 161.369 139.288C160.944 138.95 160.65 138.476 160.536 137.946Z" fill="#DB5D8B"/>
<path d="M194.887 80.1066H174.599L174.143 77.9185H194.431L194.887 80.1066Z" fill="#DB5D8B"/>
<path opacity="0.4" d="M191.588 83.582H183.444L182.988 81.4055H191.131L191.588 83.582Z" fill="#DB5D8B"/>
<path opacity="0.4" d="M205.136 83.582H192.594L192.137 81.4055H204.68L205.136 83.582Z" fill="#DB5D8B"/>
<path opacity="0.4" d="M210.6 87.069H184.17L183.714 84.8809H210.156L210.6 87.069Z" fill="#DB5D8B"/>
<path opacity="0.4" d="M207.242 90.5441H184.895L184.439 88.3677H206.786L207.242 90.5441Z" fill="#DB5D8B"/>
<path opacity="0.4" d="M222.066 127.543H207.839L208.295 129.72H222.522L222.066 127.543Z" fill="#DB5D8B"/>
<path d="M204.329 122.758H183.491L183.035 120.581H203.872L204.329 122.758Z" fill="#DB5D8B"/>
<path opacity="0.4" d="M212.706 131.019H193.331L193.787 133.207H213.162L212.706 131.019Z" fill="#DB5D8B"/>
<path opacity="0.4" d="M206.833 127.543H192.605L193.062 129.72H207.289L206.833 127.543Z" fill="#DB5D8B"/>
<path opacity="0.4" d="M220.334 124.057H191.88L192.336 126.245H220.791L220.334 124.057Z" fill="#DB5D8B"/>
<path d="M194.173 63.8654H171.218L170.761 61.6772H193.717L194.173 63.8654Z" fill="#DB5D8B"/>
<path opacity="0.4" d="M205.511 72.1265H180.192L180.648 74.3029H205.955L205.511 72.1265Z" fill="#DB5D8B"/>
<path opacity="0.4" d="M200.444 68.6394H179.466L179.923 70.8275H200.901L200.444 68.6394Z" fill="#DB5D8B"/>
<path opacity="0.4" d="M201.837 65.1643H178.741L179.197 67.3407H202.293L201.837 65.1643Z" fill="#DB5D8B"/>
<path d="M193.916 96.2077H177.957L177.501 94.0312H193.46L193.916 96.2077Z" fill="#DB5D8B"/>
<path opacity="0.4" d="M218.977 104.469H187.797L188.253 106.657H219.422L218.977 104.469Z" fill="#DB5D8B"/>
<path opacity="0.4" d="M199.988 100.993H187.071L187.528 103.17H200.444L199.988 100.993Z" fill="#DB5D8B"/>
<path opacity="0.4" d="M214.005 100.993H201.088L201.544 103.17H214.461L214.005 100.993Z" fill="#DB5D8B"/>
<path opacity="0.4" d="M214.8 97.5063H186.346L186.802 99.6945H215.245L214.8 97.5063Z" fill="#DB5D8B"/>
<path opacity="0.4" d="M214.742 114.918H189.973L190.429 117.094H215.198L214.742 114.918Z" fill="#DB5D8B"/>
<path opacity="0.4" d="M196.455 111.431H189.248L189.704 113.619H196.899L196.455 111.431Z" fill="#DB5D8B"/>
<path opacity="0.4" d="M207.722 111.431H197.438L197.894 113.619H208.178L207.722 111.431Z" fill="#DB5D8B"/>
<path opacity="0.4" d="M216.976 107.956H188.522L188.978 110.132H217.433L216.976 107.956Z" fill="#DB5D8B"/>
<path opacity="0.4" d="M239.382 107.371H229.191L228.735 105.182H238.937L239.382 107.371Z" fill="#DB5D8B"/>
<path opacity="0.4" d="M256.347 107.371H240.646L240.189 105.182H255.891L256.347 107.371Z" fill="#DB5D8B"/>
<path opacity="0.4" d="M263.016 110.846H229.917L229.46 108.669H262.56L263.016 110.846Z" fill="#DB5D8B"/>
<path opacity="0.4" d="M258.617 114.333H230.642L230.186 112.145H258.16L258.617 114.333Z" fill="#DB5D8B"/>
<path opacity="0.4" d="M271.148 93.5164H239.452L239.909 95.7045H271.604L271.148 93.5164Z" fill="#DB5D8B"/>
<path opacity="0.4" d="M264.993 90.041H238.727L239.183 92.2175H265.438L264.993 90.041Z" fill="#DB5D8B"/>
<path d="M260.243 86.5542H231.321L231.777 88.7423H260.699L260.243 86.5542Z" fill="#DB5D8B"/>
<path opacity="0.4" d="M272.575 128.257H233.544L234 130.434H273.031L272.575 128.257Z" fill="#DB5D8B"/>
<path opacity="0.4" d="M248.988 124.77H232.818L233.275 126.958H249.444L248.988 124.77Z" fill="#DB5D8B"/>
<path opacity="0.4" d="M266.538 124.77H250.368L250.825 126.958H266.994L266.538 124.77Z" fill="#DB5D8B"/>
<path opacity="0.4" d="M267.708 121.295H232.093L232.549 123.472H268.164L267.708 121.295Z" fill="#DB5D8B"/>
<path opacity="0.4" d="M266.725 138.695H235.72L236.176 140.883H267.181L266.725 138.695Z" fill="#DB5D8B"/>
<path opacity="0.4" d="M244.015 135.219H234.995L235.451 137.396H244.472L244.015 135.219Z" fill="#DB5D8B"/>
<path opacity="0.4" d="M258.125 135.219H245.255L245.712 137.396H258.582L258.125 135.219Z" fill="#DB5D8B"/>
<path opacity="0.4" d="M269.896 131.733H234.269L234.725 133.921H270.34L269.896 131.733Z" fill="#DB5D8B"/>
<path opacity="0.4" d="M175.032 141.398H150.766L151.223 143.574H175.488L175.032 141.398Z" fill="#DB5D8B"/>
<path opacity="0.4" d="M167.86 137.911H150.041L150.497 140.099H168.304L167.86 137.911Z" fill="#DB5D8B"/>
<path opacity="0.4" d="M186.919 137.911H169.112L169.568 140.099H187.387L186.919 137.911Z" fill="#DB5D8B"/>
<path opacity="0.4" d="M184.942 134.436H149.315L149.772 136.612H185.387L184.942 134.436Z" fill="#DB5D8B"/>
<path d="M457.412 206.773H442.389L444.144 229.497H455.657L457.412 206.773Z" fill="#DB5D8B"/>
<path opacity="0.4" d="M457.412 206.773H442.389L444.144 229.497H455.657L457.412 206.773Z" fill="white"/>
<path d="M130.022 190.988H151.62L144.249 229.497H122.651L130.022 190.988Z" fill="#263238"/>
<path d="M157.529 180.667H127.027L135.568 229.497H166.07L157.529 180.667Z" fill="#DB5D8B"/>
<path d="M125.225 180.667H127.027L135.568 229.497H133.766L125.225 180.667Z" fill="#DB5D8B"/>
<path opacity="0.3" d="M125.225 180.667H127.027L135.568 229.497H133.766L125.225 180.667Z" fill="black"/>
<path d="M139.955 224.278L133.24 185.886H153.153L159.857 224.278H139.955Z" fill="white"/>
<path opacity="0.6" d="M158.909 224.278L152.205 185.886H153.153L159.857 224.278H158.909Z" fill="#DB5D8B"/>
<path d="M308.611 118.182C309.044 119.119 308.903 120.113 308.283 120.394C307.663 120.675 306.821 120.148 306.388 119.224C305.955 118.299 306.107 117.293 306.715 117.012C307.324 116.732 308.178 117.258 308.611 118.182Z" fill="#263238"/>
<path d="M308.985 120.078C308.985 120.078 309.36 126.479 308.213 130.176C310.553 130.96 313.08 129.006 313.08 129.006L308.985 120.078Z" fill="#FF5652"/>
<path d="M308.728 110.507C308.63 110.59 308.506 110.636 308.377 110.635C307.614 110.657 306.868 110.859 306.199 111.225C305.53 111.591 304.957 112.111 304.528 112.741C304.445 112.879 304.311 112.978 304.156 113.018C304 113.057 303.835 113.034 303.697 112.952C303.628 112.913 303.568 112.861 303.519 112.799C303.471 112.736 303.435 112.665 303.415 112.589C303.394 112.513 303.389 112.433 303.399 112.355C303.409 112.277 303.435 112.201 303.475 112.133C304.005 111.328 304.72 110.663 305.561 110.192C306.402 109.722 307.344 109.46 308.307 109.43C308.387 109.425 308.467 109.436 308.542 109.463C308.618 109.489 308.688 109.53 308.747 109.583C308.807 109.636 308.856 109.701 308.891 109.773C308.925 109.845 308.946 109.923 308.95 110.003C308.954 110.099 308.936 110.194 308.898 110.281C308.859 110.368 308.801 110.445 308.728 110.507Z" fill="#263238"/>
<path d="M343.067 116.778C346.683 129.31 350.719 139.011 355.645 144.569C355.645 144.569 355.738 154.41 338.972 159.09C320.533 164.239 327.6 152.397 327.6 152.397C336.96 147.178 336.071 139.315 329.027 136.319L343.067 116.778Z" fill="#FF8B7B"/>
<path d="M359.553 142.17C359.225 137.583 358.792 132.364 355.972 132.236C352.86 132.095 334.842 140.146 330.993 145.821C327.144 151.496 334.667 157.054 334.667 157.054L359.553 142.17Z" fill="#263238"/>
<path d="M322.674 213.021L307.113 212.518L307.394 225.553C307.394 225.553 320.966 224.149 321.563 220.58L322.674 213.021Z" fill="#FF8B7B"/>
<path d="M298.888 218.907L297.25 225.577L307.394 225.553L307.113 212.518L298.888 218.907Z" fill="#FF8B7B"/>
<path d="M385.129 158.856L384.801 162.191C384.696 163.268 384.556 164.332 384.415 165.397C384.146 167.515 383.807 169.633 383.444 171.739C382.742 175.963 381.829 180.152 380.776 184.388C379.705 188.693 378.408 192.938 376.892 197.108C376.085 199.249 375.242 201.39 374.236 203.567C373.222 205.85 372.049 208.059 370.726 210.178C370.41 210.728 370.012 211.348 369.626 211.863C369.24 212.378 368.866 213.033 368.456 213.571C368.047 214.109 367.614 214.741 367.076 215.291L366.315 216.157C366.07 216.438 365.812 216.719 365.449 217.07C363.104 219.367 360.356 221.211 357.341 222.511C352.717 224.495 347.809 225.739 342.798 226.197C340.517 226.466 338.259 226.571 336.047 226.618C333.836 226.665 331.625 226.618 329.449 226.513C327.272 226.407 325.12 226.197 322.978 225.951C320.837 225.705 318.755 225.354 316.485 224.898L316.859 212.67C324.329 211.354 331.713 209.592 338.972 207.393C340.588 206.873 342.174 206.264 343.723 205.568C345.044 205.019 346.307 204.336 347.49 203.531C348.177 203.113 348.76 202.545 349.198 201.87L349.537 201.332C349.697 201.099 349.842 200.857 349.97 200.606C350.137 200.338 350.29 200.06 350.427 199.775C350.579 199.483 350.743 199.202 350.895 198.851C352.271 195.855 353.402 192.751 354.276 189.572C355.235 186.132 356.136 182.551 356.862 178.842C357.587 175.133 358.289 171.388 358.933 167.609L359.822 161.922L360.629 156.375L385.129 158.856Z" fill="#DB5D8B"/>
<path opacity="0.2" d="M385.129 158.856L384.801 162.191C384.696 163.268 384.556 164.332 384.415 165.397C384.146 167.515 383.807 169.633 383.444 171.739C382.742 175.963 381.829 180.152 380.776 184.388C379.705 188.693 378.408 192.938 376.892 197.108C376.085 199.249 375.242 201.39 374.236 203.567C373.222 205.85 372.049 208.059 370.726 210.178C370.41 210.728 370.012 211.348 369.626 211.863C369.24 212.378 368.866 213.033 368.456 213.571C368.047 214.109 367.614 214.741 367.076 215.291L366.315 216.157C366.07 216.438 365.812 216.719 365.449 217.07C363.104 219.367 360.356 221.211 357.341 222.511C352.717 224.495 347.809 225.739 342.798 226.197C340.517 226.466 338.259 226.571 336.047 226.618C333.836 226.665 331.625 226.618 329.449 226.513C327.272 226.407 325.12 226.197 322.978 225.951C320.837 225.705 318.755 225.354 316.485 224.898L316.859 212.67C324.329 211.354 331.713 209.592 338.972 207.393C340.588 206.873 342.174 206.264 343.723 205.568C345.044 205.019 346.307 204.336 347.49 203.531C348.177 203.113 348.76 202.545 349.198 201.87L349.537 201.332C349.697 201.099 349.842 200.857 349.97 200.606C350.137 200.338 350.29 200.06 350.427 199.775C350.579 199.483 350.743 199.202 350.895 198.851C352.271 195.855 353.402 192.751 354.276 189.572C355.235 186.132 356.136 182.551 356.862 178.842C357.587 175.133 358.289 171.388 358.933 167.609L359.822 161.922L360.629 156.375L385.129 158.856Z" fill="#0177FF"/>
<path d="M316.04 174.349C321.841 199.368 325.106 224.908 325.786 250.582H394.29C394.664 242.11 393.237 194.416 386.346 159.944C385.735 156.822 384.507 153.854 382.733 151.214C380.958 148.573 378.674 146.315 376.014 144.57C373.354 142.826 370.373 141.631 367.244 141.056C364.116 140.481 360.904 140.538 357.798 141.222L357.47 141.293C348.917 143.247 336.644 146.383 329.39 149.132L329.098 149.238C324.245 151.126 320.245 154.715 317.843 159.335C315.441 163.955 314.8 169.291 316.04 174.349Z" fill="#0177FF"/>
<path opacity="0.2" d="M320.498 196.288C321.036 199.576 321.586 203.052 322.089 206.714C327.694 200.864 329.472 182.926 329.472 182.926L320.498 196.288Z" fill="#0177FF"/>
<path d="M263.589 213.864L248.04 212.413L247.525 225.448C250.095 226.157 252.81 226.15 255.376 225.426C257.941 224.702 260.26 223.289 262.08 221.341L263.589 213.864Z" fill="#FF8B7B"/>
<path d="M240.646 216.262L235.661 225.214L247.572 225.448L248.087 212.413L240.646 216.262Z" fill="#FF8B7B"/>
<path d="M341.745 168.393C340.669 170.452 339.709 172.254 338.633 174.138C337.557 176.022 336.527 177.836 335.416 179.649C333.216 183.288 330.935 186.881 328.524 190.426C323.682 197.684 318.321 204.583 312.484 211.067C309.356 214.553 305.956 217.785 302.316 220.732C301.86 221.13 301.322 221.505 300.819 221.902C300.316 222.3 299.871 222.64 299.122 223.073C298.373 223.505 297.742 223.938 297.063 224.301C296.384 224.664 295.682 225.015 294.992 225.331C292.409 226.446 289.709 227.266 286.943 227.776C282.101 228.593 277.167 228.703 272.294 228.104C270.013 227.831 267.748 227.44 265.508 226.934C264.338 226.677 263.297 226.384 262.209 226.045C261.121 225.705 260.091 225.354 258.839 224.875L260.77 212.799C268.117 211.804 276.062 210.517 281.537 208.048C282.755 207.549 283.901 206.888 284.942 206.082C285.362 205.797 285.754 205.472 286.112 205.111C286.194 205.006 286.556 204.69 286.826 204.432C287.095 204.175 287.411 203.929 287.703 203.625C290.202 201.138 292.546 198.5 294.723 195.727C299.433 189.649 303.834 183.338 307.909 176.818C310.015 173.506 312.062 170.136 314.11 166.754L317.128 161.664L320.042 156.68L341.745 168.393Z" fill="#0177FF"/>
<path d="M322.943 412.644H310.144L303.697 382.982H316.508L322.943 412.644Z" fill="#FF8B7B"/>
<path d="M309.43 409.895H323.821C324.073 409.904 324.314 409.995 324.51 410.153C324.706 410.311 324.846 410.528 324.909 410.772L327.436 422.157C327.506 422.439 327.511 422.733 327.449 423.016C327.387 423.299 327.261 423.565 327.08 423.791C326.898 424.018 326.667 424.199 326.405 424.322C326.142 424.444 325.854 424.505 325.564 424.498C320.545 424.416 318.1 424.112 311.77 424.112C307.874 424.112 302.878 424.521 297.508 424.521C292.137 424.521 291.424 419.209 293.623 418.67C303.498 416.517 304.153 413.534 307.347 410.702C307.917 410.183 308.659 409.896 309.43 409.895Z" fill="#263238"/>
<g opacity="0.2">
<path opacity="0.2" d="M316.52 382.993H303.697L307.277 399.41L319.843 398.275L316.52 382.993Z" fill="black"/>
</g>
<path d="M338.961 101.801C343.641 113.642 346.893 120.336 343.804 128.936C339.124 141.878 322.522 143.176 314.449 132.961C307.195 123.752 300.854 105.931 310.015 96.1373C312.021 93.9661 314.549 92.3442 317.359 91.426C320.169 90.5077 323.167 90.3237 326.068 90.8913C328.969 91.4589 331.677 92.7593 333.933 94.6688C336.19 96.5783 337.921 99.0335 338.961 101.801Z" fill="#FF8B7B"/>
<path d="M316.473 119.481C314.554 122.056 313.08 124.01 313.08 124.01C313.08 124.01 309.137 114.216 310.647 109.723C308.728 105.92 304.855 111.525 303.393 104.118C301.93 96.7108 308.26 88.7539 310.647 87.104C310.893 87.9671 311.003 88.8632 310.974 89.7602C317.422 84.5216 325.619 81.9284 333.906 82.5055C333.213 83.5395 332.772 84.7218 332.619 85.9573C332.619 85.9573 346.507 88.2976 349.666 96.1608C348.55 95.6074 347.372 95.191 346.156 94.9205C348.704 98.5746 349.713 103.084 348.964 107.476C347.956 113.875 347.432 120.34 347.396 126.818C347.525 130.141 338.411 136.495 332.853 129.697C327.296 122.898 316.473 119.481 316.473 119.481Z" fill="#263238"/>
<path d="M322.265 116.931C322.988 119.689 322.782 122.609 321.68 125.238C320.194 128.679 317.14 127.895 315.631 124.841C314.262 122.091 313.384 116.977 315.806 114.532C318.228 112.086 321.352 113.619 322.265 116.931Z" fill="#FF8B7B"/>
<path d="M346.32 250.582C346.32 250.582 286.837 272.147 285.094 300.722C281.865 353.296 303.357 394.917 303.357 394.917L323.06 392.811C323.06 392.811 319.55 375.891 316.941 328.255C313.653 268.415 415.221 329.659 394.302 250.605L346.32 250.582Z" fill="#0177FF"/>
<path opacity="0.5" d="M346.32 250.582C346.32 250.582 286.837 272.147 285.094 300.722C281.865 353.296 303.357 394.917 303.357 394.917L323.06 392.811C323.06 392.811 319.55 375.891 316.941 328.255C313.653 268.415 415.221 329.659 394.302 250.605L346.32 250.582Z" fill="white"/>
<path d="M297.905 387.639C297.812 387.639 301.041 396.38 301.041 396.38L325.611 393.981L324.382 386.024L297.905 387.639Z" fill="#0177FF"/>
<path d="M267.614 414.095H254.803L251.059 384.433H263.87L267.614 414.095Z" fill="#FF8B7B"/>
<path d="M254.709 409.895H268.749C269.004 409.892 269.252 409.978 269.45 410.138C269.649 410.298 269.786 410.522 269.837 410.772L272.388 422.158C272.452 422.432 272.452 422.718 272.389 422.993C272.326 423.269 272.202 423.526 272.025 423.746C271.848 423.966 271.623 424.142 271.368 424.262C271.112 424.383 270.833 424.443 270.551 424.439C265.508 424.357 258.207 424.077 251.831 424.077C244.413 424.077 242.997 424.498 234.281 424.509C229.016 424.509 227.553 419.197 229.753 418.717C239.768 416.518 242.974 416.272 251.62 410.924C252.532 410.296 253.603 409.939 254.709 409.895Z" fill="#263238"/>
<path opacity="0.2" d="M251.07 384.444L253.106 400.604L265.812 399.738L263.882 384.444H251.07Z" fill="black"/>
<path d="M325.787 250.582C325.787 250.582 228.325 259.229 229.378 308.187C230.467 359.111 249.491 393.454 249.491 393.454H268.515C268.515 393.454 264.911 367.033 265.555 316.905C265.742 301.88 296.092 296.919 325.716 295.176C351.316 293.654 375.278 279.063 385.223 255.391L387.258 250.547L325.787 250.582Z" fill="#0177FF"/>
<path opacity="0.5" d="M325.787 250.582C325.787 250.582 228.325 259.229 229.378 308.187C230.467 359.111 249.491 393.454 249.491 393.454H268.515C268.515 393.454 264.911 367.033 265.555 316.905C265.742 301.88 296.092 296.919 325.716 295.175C351.316 293.654 375.278 279.063 385.223 255.391L387.258 250.547L325.787 250.582Z" fill="white"/>
<path d="M245.033 388.329C244.951 388.329 248.297 397.128 248.297 397.128L271.276 395.49L269.931 387.522L245.033 388.329Z" fill="#0177FF"/>
<path d="M351.374 195.563L339.007 243.222C335.846 255.428 334.25 267.987 334.257 280.596V302.758C334.257 308.351 338.376 312.879 343.465 312.879H406.856C411.945 312.879 416.064 308.351 416.064 302.758V280.596C416.06 267.986 417.66 255.428 420.825 243.222L431.742 201.097C433.426 194.627 429.004 188.226 422.885 188.226H360.22C358.139 188.292 356.14 189.048 354.539 190.377C352.937 191.706 351.823 193.53 351.374 195.563Z" fill="#263238"/>
<path d="M272.528 289.805L274.599 301.623C275.699 307.848 281.163 312.879 286.814 312.879H357.283C362.934 312.879 366.643 307.848 365.543 301.623L363.472 289.805C362.22 282.784 356.008 277.003 349.573 277.003H281.97C275.488 277.003 271.288 282.737 272.528 289.805Z" fill="#263238"/>
<path d="M364.069 324.756H327.155L323.552 312.88H367.672L364.069 324.756Z" fill="#0177FF"/>
<path d="M352.205 324.756H339.019V412.995H352.205V324.756Z" fill="#DB5D8B"/>
<path opacity="0.7" d="M352.205 412.995H339.019V326.874L352.205 328.22V412.995Z" fill="#0177FF"/>
<path opacity="0.7" d="M348.988 412.995H345.84V327.565L348.988 327.892V412.995Z" fill="white"/>
<path d="M375.933 426.627H315.28C314.926 426.628 314.58 426.517 314.294 426.309C314.007 426.101 313.793 425.807 313.684 425.47C313.575 425.133 313.575 424.77 313.685 424.434C313.796 424.097 314.01 423.804 314.297 423.597L323.915 416.576C328.535 413.183 334.118 411.355 339.85 411.357H351.374C357.101 411.354 362.679 413.178 367.298 416.564L376.927 423.585C377.221 423.791 377.44 424.086 377.553 424.426C377.666 424.766 377.667 425.134 377.556 425.474C377.445 425.815 377.227 426.111 376.934 426.319C376.642 426.526 376.291 426.634 375.933 426.627Z" fill="#0177FF"/>
</svg>
