<svg width="124" height="31" viewBox="0 0 124 31" fill="none" xmlns="http://www.w3.org/2000/svg">
<path d="M24.3358 8.011H28.3542V25.1778H24.3358V8.011ZM26.3611 5.18201C25.6324 5.18201 25.0216 4.95698 24.5286 4.50691C24.0357 4.03541 23.7892 3.45675 23.7892 2.77094C23.7892 2.08512 24.0357 1.51718 24.5286 1.06711C25.0216 0.595612 25.6324 0.359863 26.3611 0.359863C27.0897 0.359863 27.7005 0.584896 28.1935 1.03496C28.6864 1.4636 28.9329 2.01011 28.9329 2.67449C28.9329 3.38174 28.6864 3.98183 28.1935 4.47476C27.722 4.94626 27.1112 5.18201 26.3611 5.18201Z" fill="#60B51C"/>
<path d="M32.7604 14.5691H41.601V17.9125H32.7604V14.5691Z" fill="#60B51C"/>
<path d="M49.8183 6.21073H42.36V2.67449H61.4557V6.21073H53.9975V25.1778H49.8183V6.21073Z" fill="#60B51C"/>
<path d="M70.7645 6.69287C73.2934 6.69287 75.2223 7.30368 76.551 8.52529C77.9012 9.72547 78.5764 11.5472 78.5764 13.9904V24.0526H74.7829V21.963C74.29 22.7131 73.5828 23.2918 72.6612 23.699C71.7611 24.0847 70.668 24.2776 69.3821 24.2776C68.0962 24.2776 66.971 24.0633 66.0066 23.6347C65.0422 23.1846 64.2921 22.5738 63.7563 21.8023C63.2419 21.0093 62.9847 20.1199 62.9847 19.134C62.9847 17.5909 63.5527 16.3586 64.6886 15.437C65.8459 14.494 67.6569 14.0225 70.1215 14.0225H74.5579V13.7654C74.5579 12.5652 74.1936 11.6436 73.4649 11.0007C72.7576 10.3577 71.6968 10.0362 70.2823 10.0362C69.3178 10.0362 68.3641 10.1862 67.4211 10.4863C66.4995 10.7863 65.7173 11.2043 65.0743 11.7401L63.4991 8.81461C64.3992 8.1288 65.4815 7.60372 66.746 7.23938C68.0105 6.87504 69.35 6.69287 70.7645 6.69287ZM70.218 21.3522C71.2253 21.3522 72.1147 21.1272 72.8862 20.6771C73.6792 20.2056 74.2364 19.5412 74.5579 18.6839V16.6908H70.4108C68.0962 16.6908 66.9389 17.4516 66.9389 18.9733C66.9389 19.702 67.2282 20.2806 67.8069 20.7092C68.3855 21.1379 69.1892 21.3522 70.218 21.3522Z" fill="#2E1AAD"/>
<path d="M93.2492 6.69287C94.9209 6.69287 96.4104 7.05721 97.7178 7.78589C99.0465 8.51457 100.086 9.54329 100.836 10.8721C101.586 12.2008 101.961 13.7332 101.961 15.4692C101.961 17.2052 101.586 18.7482 100.836 20.0984C100.086 21.4272 99.0465 22.4559 97.7178 23.1846C96.4104 23.9133 94.9209 24.2776 93.2492 24.2776C90.9346 24.2776 89.1022 23.5061 87.752 21.963V30.2892H83.7335V6.88576H87.5591V9.13609C88.2235 8.32168 89.0379 7.71088 90.0023 7.30368C90.9882 6.89647 92.0705 6.69287 93.2492 6.69287ZM92.7992 20.8378C94.278 20.8378 95.4889 20.3449 96.4319 19.359C97.3963 18.3732 97.8785 17.0766 97.8785 15.4692C97.8785 13.8618 97.3963 12.5652 96.4319 11.5793C95.4889 10.5935 94.278 10.1005 92.7992 10.1005C91.8347 10.1005 90.9668 10.3256 90.1952 10.7756C89.4237 11.2043 88.8129 11.8258 88.3628 12.6402C87.9127 13.4546 87.6877 14.3976 87.6877 15.4692C87.6877 16.5408 87.9127 17.4838 88.3628 18.2982C88.8129 19.1126 89.4237 19.7448 90.1952 20.1949C90.9668 20.6235 91.8347 20.8378 92.7992 20.8378Z" fill="#2E1AAD"/>
<path d="M115.288 6.69287C116.96 6.69287 118.449 7.05721 119.756 7.78589C121.085 8.51457 122.125 9.54329 122.875 10.8721C123.625 12.2008 124 13.7332 124 15.4692C124 17.2052 123.625 18.7482 122.875 20.0984C122.125 21.4272 121.085 22.4559 119.756 23.1846C118.449 23.9133 116.96 24.2776 115.288 24.2776C112.973 24.2776 111.141 23.5061 109.791 21.963V30.2892H105.772V6.88576H109.598V9.13609C110.262 8.32168 111.077 7.71088 112.041 7.30368C113.027 6.89647 114.109 6.69287 115.288 6.69287ZM114.838 20.8378C116.317 20.8378 117.528 20.3449 118.471 19.359C119.435 18.3732 119.917 17.0766 119.917 15.4692C119.917 13.8618 119.435 12.5652 118.471 11.5793C117.528 10.5935 116.317 10.1005 114.838 10.1005C113.873 10.1005 113.005 10.3256 112.234 10.7756C111.462 11.2043 110.852 11.8258 110.402 12.6402C109.951 13.4546 109.726 14.3976 109.726 15.4692C109.726 16.5408 109.951 17.4838 110.402 18.2982C110.852 19.1126 111.462 19.7448 112.234 20.1949C113.005 20.6235 113.873 20.8378 114.838 20.8378Z" fill="#2E1AAD"/>
<path d="M16.8494 20.0411C16.8241 19.875 16.7825 19.7105 16.742 19.5467C16.3262 17.8642 15.386 16.4043 14.4275 14.9592C13.8903 14.1497 13.3604 14.1194 12.5907 14.7677C11.618 14.111 11.4888 14.1139 10.603 14.7369C10.1613 14.61 9.78267 14.3964 9.43144 14.4296C9.07963 14.4628 8.75517 14.7427 8.38561 14.9316C8.34808 14.8772 8.26543 14.7683 8.19443 14.6528C7.81731 14.0376 7.44513 13.4202 7.06713 12.8056C6.93502 12.5911 6.74849 12.4375 6.53781 12.356C6.32743 12.2745 6.09318 12.2649 5.86591 12.338C5.37617 12.496 5.09682 12.9074 5.20565 13.3681C5.25104 13.5601 5.36046 13.7446 5.46783 13.9183C6.34023 15.332 7.22019 16.7415 8.0952 18.1537C8.33382 18.539 8.56341 18.9289 8.79737 19.3165C8.77118 19.3372 8.74499 19.3579 8.71851 19.3785C8.3827 19.2595 8.05243 19.1245 7.70993 19.0253C7.11776 18.8536 6.53083 18.876 5.99337 19.1865C5.56764 19.4324 5.56241 19.7696 5.95874 20.0571C6.99874 20.8117 8.01664 21.5953 9.09273 22.303C9.54318 22.5992 10.117 22.7363 10.6385 22.9376C10.8893 23.0345 11.1722 23.0773 11.3986 23.2071C11.707 23.3837 11.9616 23.3843 12.2765 23.2182C13.5932 22.5233 14.9219 21.8476 16.2462 21.1643C16.8218 20.8675 16.9422 20.6478 16.8494 20.0411Z" fill="#2E1AAD"/>
<path d="M4.98793 14.2146C4.85553 14.0002 4.7208 13.7679 4.65707 13.4979C4.48044 12.7524 4.90645 12.0543 5.6933 11.8005C6.04132 11.6882 6.4039 11.6984 6.74232 11.8294C7.06707 11.9551 7.33973 12.182 7.53353 12.4864C7.40695 11.4842 6.55201 10.7087 5.5155 10.7087C4.39169 10.7087 3.48059 11.6198 3.48059 12.7436C3.48059 13.8052 4.29391 14.6767 5.3313 14.7698C5.21636 14.5845 5.10171 14.3991 4.98793 14.2146Z" fill="#60B51C"/>
<path d="M7.3106 17.9594C7.06471 17.5631 6.81853 17.1667 6.57235 16.7704C6.55489 16.7422 6.53685 16.7134 6.51939 16.6851C6.19814 16.7669 5.86175 16.8103 5.51489 16.8103C3.26901 16.8103 1.44827 14.9895 1.44827 12.7436C1.44827 10.4978 3.26901 8.67703 5.51489 8.67703C7.76077 8.67703 9.5815 10.4978 9.5815 12.7436C9.5815 13.1324 9.5268 13.5084 9.42495 13.8645C9.77356 13.8436 10.0896 13.9588 10.3954 14.0709C10.4341 14.0851 10.4734 14.0994 10.5127 14.1133C10.6538 14.0188 10.7853 13.9376 10.914 13.8733C10.9899 13.5087 11.0301 13.1307 11.0301 12.7436C11.0301 9.69783 8.561 7.22876 5.51518 7.22876C2.46936 7.22876 0 9.69783 0 12.7436C0 15.7895 2.46907 18.2585 5.51489 18.2585C6.14372 18.2585 6.74782 18.1532 7.3106 17.9594Z" fill="#2E1AAD"/>
</svg>
