<svg width="68" height="92" viewBox="0 0 68 92" fill="none" xmlns="http://www.w3.org/2000/svg">
<path d="M17.7713 51.6427C17.7888 52.5476 8.30011 72.4933 3.85503 81.7882C3.67722 82.1599 3.61534 82.5764 3.67744 82.9837C3.73955 83.3909 3.92276 83.7701 4.20326 84.0718C4.48376 84.3736 4.84856 84.5839 5.25022 84.6755C5.65188 84.7671 6.07181 84.7358 6.4554 84.5855L16.8759 80.5214C17.2891 80.3619 17.7425 80.3396 18.1693 80.4576C18.5961 80.5757 18.9737 80.8279 19.2461 81.177L26.9456 91.115C27.1895 91.431 27.5201 91.6691 27.8971 91.8002C28.2741 91.9313 28.6812 91.9498 29.0685 91.8533C29.4558 91.7568 29.8067 91.5495 30.0781 91.2569C30.3495 90.9642 30.5298 90.5988 30.5969 90.2053L36.4549 56.3069L17.7713 51.6427Z" fill="url(#paint0_linear_2207_7137)"/>
<path d="M49.6773 51.041C49.6948 51.9443 59.928 71.5201 64.7223 80.6389C64.9136 81.0037 64.9907 81.4175 64.9437 81.8268C64.8968 82.236 64.7279 82.6216 64.459 82.9336C64.1901 83.2456 63.8337 83.4696 63.4359 83.5765C63.0381 83.6834 62.6174 83.6682 62.2283 83.5329L51.6633 79.8657C51.2445 79.7201 50.7898 79.714 50.3672 79.8482C49.9445 79.9824 49.5767 80.2497 49.3186 80.6103L42.0001 90.8308C41.7676 91.1548 41.4458 91.4041 41.0739 91.5483C40.7021 91.6925 40.2964 91.7254 39.9062 91.6429C39.516 91.5604 39.1583 91.3662 38.8767 91.0838C38.595 90.8015 38.4017 90.4433 38.3202 90.0529L31.1874 56.3973L49.6773 51.041Z" fill="url(#paint1_linear_2207_7137)"/>
<path d="M34.264 64.0157C50.7227 64.0157 64.0651 50.6733 64.0651 34.2146C64.0651 17.756 50.7227 4.41357 34.264 4.41357C17.8053 4.41357 4.46295 17.756 4.46295 34.2146C4.46295 50.6733 17.8053 64.0157 34.264 64.0157Z" fill="url(#paint2_linear_2207_7137)"/>
<path d="M51.2044 50.8604C60.4803 41.5845 60.4803 26.5452 51.2044 17.2692C41.9284 7.99324 26.8891 7.99325 17.6132 17.2692C8.33722 26.5452 8.33721 41.5845 17.6132 50.8604C26.8891 60.1364 41.9284 60.1364 51.2044 50.8604Z" fill="url(#paint3_linear_2207_7137)"/>
<defs>
<linearGradient id="paint0_linear_2207_7137" x1="22.3475" y1="72.0545" x2="40.4714" y2="22.6448" gradientUnits="userSpaceOnUse">
<stop stop-color="#FE7062"/>
<stop offset="1" stop-color="#FF928E"/>
</linearGradient>
<linearGradient id="paint1_linear_2207_7137" x1="32331.3" y1="38616.3" x2="29188.5" y2="48822.5" gradientUnits="userSpaceOnUse">
<stop stop-color="#FE7062"/>
<stop offset="1" stop-color="#FF928E"/>
</linearGradient>
<linearGradient id="paint2_linear_2207_7137" x1="2.42841" y1="69.0256" x2="76.8054" y2="-12.2926" gradientUnits="userSpaceOnUse">
<stop stop-color="#E1473D"/>
<stop offset="1" stop-color="#E9605A"/>
</linearGradient>
<linearGradient id="paint3_linear_2207_7137" x1="31385.9" y1="59270.1" x2="49029.1" y2="39886.2" gradientUnits="userSpaceOnUse">
<stop stop-color="#FE7062"/>
<stop offset="1" stop-color="#FF928E"/>
</linearGradient>
</defs>
</svg>
